<svg xmlns="http://www.w3.org/2000/svg" width="60" height="60" fill="none"><path fill="#1127E3" fill-opacity=".5" fill-rule="evenodd" d="M24.843.844C15.81 2.245 7.257 8.51 3.137 16.74.774 21.458-.037 24.996 0 30.425c.036 5.114.692 8.188 2.66 12.453 3.874 8.398 11.887 14.715 21.093 16.627 2.967.617 9.033.617 12 0 7.614-1.582 14.518-6.206 18.806-12.597 2.076-3.095 3.133-5.52 4.38-10.048.575-2.085.704-9.837.201-12.09-.204-.912-.42-1.898-.48-2.19-.224-1.073-1.38-4.024-2.29-5.841C52.188 8.384 43.654 2.205 34.393.826c-2.837-.423-6.756-.415-9.55.018Zm23.864 21.09c1.047.613 1.405 1.439 1.565 3.61.08 1.076.264 2.178.41 2.449.296.548 1.587 1.163 2.442 1.163.496 0 .547.091.46.83-.09.763-.162.83-.895.83-1.627 0-2.457 1.424-2.487 4.266-.023 2.118-1.408 3.32-3.827 3.32-1.165 0-1.203-.022-1.203-.682 0-.645.064-.687 1.213-.796 1.705-.163 1.96-.506 2.12-2.854.146-2.154.545-3.035 1.665-3.672l.655-.373-1.154-1.102-1.152-1.102V26.13c0-.93-.124-1.96-.274-2.288-.296-.643-1.506-1.167-2.409-1.042-.463.064-.556-.045-.622-.73l-.077-.804 1.433.129c.789.07 1.75.314 2.137.54Zm-33.893.317c0 .633-.077.689-1.1.803-1.596.179-1.864.558-2.018 2.865-.147 2.195-.628 3.147-1.896 3.756l-.725.349.897.573c1.237.791 1.733 1.88 1.734 3.807 0 2.012.404 2.571 1.981 2.748 1.063.118 1.127.165 1.127.834v.709l-1.438-.103c-2.544-.182-3.581-1.462-3.582-4.417 0-1.6-.055-1.79-.692-2.423a3.15 3.15 0 0 0-1.673-.841c-.873-.139-.982-.228-.982-.807 0-.574.11-.668.944-.8.519-.082 1.245-.406 1.613-.72.618-.527.68-.737.8-2.723.1-1.643.245-2.306.615-2.806.677-.916 1.925-1.484 3.26-1.484 1.09 0 1.135.026 1.135.68Zm3.829 3.975c.655 1.387 1.19 2.56 1.19 2.608 0 .272-1.233.024-1.347-.27-.1-.26-.512-.356-1.521-.356s-1.42.096-1.52.356c-.076.195-.42.355-.763.355-.344 0-.59-.095-.546-.212.044-.117.561-1.29 1.15-2.608.907-2.03 1.153-2.395 1.618-2.395.463 0 .734.394 1.739 2.522Zm4.776-.389v2.134h1.434c1.275 0 1.435.053 1.435.474 0 .437-.16.474-2.032.474h-2.032v-5.215h.598c.593 0 .597.016.597 2.133Zm6.693.475v2.607H28.917v-5.215H30.112v2.608Zm6.598-2.064c1.42.728 1.708 2.54.599 3.773-.646.717-.814.774-2.51.859l-1.818.091V23.64l1.505.12c.827.066 1.828.286 2.224.489Zm7.995 1.97c.652 1.382 1.184 2.556 1.184 2.607 0 .278-1.231.039-1.348-.261-.1-.26-.514-.356-1.546-.356-1.093 0-1.409.08-1.409.356 0 .237-.239.355-.717.355-.394 0-.717-.042-.717-.094 0-.051.533-1.225 1.184-2.607.952-2.022 1.282-2.514 1.685-2.514s.733.492 1.684 2.514Zm-10.529.212c0 1.496.018 1.541.613 1.541.666 0 1.553-.39 1.834-.806.645-.959-.287-2.276-1.61-2.276h-.837v1.541Zm-17.515-.652a9.535 9.535 0 0 1-.292.83c-.142.343-.043.415.57.415.856 0 .866-.025.378-.96-.424-.814-.493-.844-.656-.285Zm26.029.243c-.51.979-.503 1.002.33 1.002s.814.045.387-.963l-.33-.78-.387.741Zm-25.65 5.855c.47.099.65.265.595.548-.06.312-.329.407-1.152.407-.59 0-1.094.106-1.12.236-.027.132.318.207.774.168 1.494-.125 2.27.697 1.805 1.911-.328.855-1.573 1.228-2.774.831-.99-.326-1.186-.585-.847-1.116.175-.275.286-.284.577-.044.445.366 2.114.255 2.248-.15.07-.21-.251-.296-1.112-.296-.994 0-1.273-.096-1.565-.538-.201-.305-.295-.772-.215-1.075.155-.589 1.137-1.208 1.734-1.095.209.04.682.136 1.053.213Zm23.052.48c1.052 1.212.463 3.404-1.014 3.772-2.063.513-3.254-2.555-1.545-3.98.848-.709 1.834-.629 2.56.207Zm-16.964-.392c.17.106.241.363.161.571-.11.283-.35.345-.962.247-1-.161-1.537.229-1.537 1.115 0 .876.508 1.241 1.596 1.146 1.198-.105 1.416.572.308.955-1.016.351-2.29-.17-2.642-1.082-.352-.908-.1-2.236.518-2.737.529-.43 2.02-.554 2.558-.215Zm3.16.274c0 .395.16.474.956.474.797 0 .956-.079.956-.474 0-.316.16-.474.478-.474.443 0 .478.158.478 2.133 0 1.976-.035 2.134-.478 2.134-.414 0-.478-.158-.478-1.186V33.66h-1.912v1.185c0 1.028-.064 1.186-.479 1.186-.442 0-.478-.158-.478-2.134 0-1.975.036-2.133.479-2.133.318 0 .478.158.478.474Zm7.99-.019c1.051 1.151.624 3.312-.756 3.833-1.222.46-2.692-.716-2.692-2.155 0-.625.608-1.814 1.01-1.975.748-.298 2.04-.14 2.439.297Zm9.22 1.204v1.66h.957c.797 0 .956.078.956.474 0 .421-.16.474-1.434.474h-1.434v-2.134c0-1.975.035-2.133.478-2.133.432 0 .478.158.478 1.66Zm-11.517-.118c-.412.897.068 1.777.97 1.777.724 0 .986-.338.986-1.275 0-1.165-1.477-1.544-1.956-.502Zm5.737 0c-.412.897.068 1.777.97 1.777.724 0 .986-.338.986-1.275 0-1.165-1.477-1.544-1.956-.502Z" clip-rule="evenodd"/></svg>