<svg xmlns="http://www.w3.org/2000/svg" width="145" height="39" fill="none"><path fill="#1127E3" fill-opacity=".5" fill-rule="evenodd" d="M13.4 1.918C4.704 5.02-.74 13.21.145 21.856c.654 6.385 4.572 12.142 10.3 15.136 5.008 2.617 12.244 2.614 17.259-.006 6.955-3.635 11.081-11.076 10.303-18.579-.458-4.418-1.773-7.344-3.174-7.063-1.135.23-1.183 1.167-.348 6.841.98 6.677-2.545 13.02-8.877 15.968-4.463 2.078-8.626 2.079-13.03.003-4.071-1.92-5.927-3.81-7.8-7.942C-.065 15.534 8.547 3.779 20.714 4.46c3.5.195 4.17.048 4.368-.963.479-2.439-6.594-3.394-11.683-1.579Zm24.117 1.446c0 .586.312.872.694.637.382-.237.518-.716.302-1.066-.586-.947-.996-.771-.996.43Zm-9.986 2.652c-.54 1.408.914 3.146 2.215 2.647 1.363-.523.9-3.217-.601-3.504-.659-.125-1.385.26-1.614.857Zm7.806-.626c-.222.222-.244 1.017-.049 1.765.455 1.74 2.57 1.4 2.57-.414 0-1.293-1.679-2.193-2.52-1.351Zm-3.286 1.692c0 .376.307.683.683.683a.685.685 0 0 0 .683-.683.685.685 0 0 0-.683-.683.685.685 0 0 0-.683.683Zm52.043 4.101c.233 4.918-.008 5.531-1.48 3.757-1.143-1.377-6.105-1.322-8.12.09-1.827 1.278-3.496 4.846-3.496 7.472 0 2.753 2.017 6.393 4.157 7.5 2.495 1.29 6.376 1.274 7.458-.03 1.035-1.247 2.05-1.332 2.05-.171 0 .47.769.854 1.708.854h1.708V6.4h-4.211l.226 4.784Zm-61.297 1.193c.205.532.371 1.114.371 1.294 0 .179.308.136.684-.097 1.062-.656.804-2.164-.371-2.164-.629 0-.905.391-.684.967Zm-4.848.514c-.541 1.41.193 3.075 1.356 3.075.53 0 1.346-.461 1.814-1.025.678-.818.678-1.232 0-2.05-.468-.564-1.284-1.025-1.814-1.025s-1.14.461-1.355 1.025ZM42.3 22.338v8.422l2.05-.301c2.03-.298 2.05-.342 2.05-4.632 0-4.941.954-7.59 2.965-8.228 2.547-.808 3.867 1.887 3.867 7.89v5.271l2.05-.301 2.05-.3v-5.047c0-4.137.247-5.294 1.367-6.414 3.267-3.268 5.466-.517 5.466 6.837V30.7l1.879-.085 1.879-.086v-6.87c0-5.799-.203-7.096-1.302-8.308-1.602-1.768-6.196-1.953-8.496-.343-1.43 1.002-1.66 1.002-2.768 0-1.517-1.373-5.461-1.415-7.37-.078-1.281.898-1.494.898-1.838 0-.215-.558-1.168-1.015-2.12-1.015H42.3v8.423Zm51.852-6.504c-4.106 3.668-3.299 11.686 1.42 14.126 2.766 1.43 6.769 1.293 9.418-.322 2.554-1.558 2.804-2.731.843-3.956-1.167-.729-1.676-.639-3.338.59-2.087 1.543-3.995 1.383-5.87-.493-1.912-1.912-1.05-2.298 5.12-2.298h6.149v-2.46c0-1.887-.542-3.002-2.323-4.783-2.033-2.033-2.757-2.323-5.797-2.323-2.842 0-3.864.349-5.623 1.92Zm17.159 6.474V30.7l1.879-.08c1.862-.078 1.881-.129 2.22-5.716.276-4.543.599-5.825 1.668-6.605 1.544-1.126 2.383-1.193 3.798-.3.734.462 1.122 2.333 1.367 6.593.34 5.927.348 5.95 2.221 6.029l1.879.08v-6.593c0-5.635-.206-6.854-1.417-8.393-1.138-1.447-1.993-1.8-4.357-1.8-1.781 0-3.277.404-3.792 1.025-.468.564-1.121 1.025-1.45 1.025-.33 0-.6-.461-.6-1.025 0-.638-.645-1.025-1.708-1.025h-1.708v8.393Zm20.327-7.192c-2.312 1.434-2.329 1.743-.157 2.906 1.323.708 1.909.735 2.528.116 1.149-1.15 4.344-.997 5.609.267 1.763 1.763 1.254 2.16-2.332 1.815-6.932-.666-10.63 5.1-6.023 9.391 1.782 1.661 6.117 1.866 7.622.36 1.256-1.255 1.806-1.3 1.806-.148 0 .521.764.844 1.879.796l1.879-.08.197-6.289c.193-6.171.159-6.326-1.826-8.312-1.743-1.743-2.528-2.02-5.663-2.005-2.211.011-4.377.475-5.519 1.183Zm-118.479.526c-.251.656-.032 1.4.515 1.747 1.354.857 2.32.386 2.32-1.13 0-1.65-2.25-2.14-2.835-.617Zm10.66 2.071c-.635.764-.635 1.206 0 1.97 1.03 1.243 2.766.626 2.766-.985s-1.735-2.228-2.767-.985Zm-4.067.261c0 .354.307.833.683 1.065.376.233.684-.057.684-.643 0-.585-.308-1.065-.684-1.065-.376 0-.683.29-.683.643Zm62.216.04c.336 0 1.073.896 1.639 1.989 2.073 4.01-.935 7.743-5.348 6.635-2.174-.545-3.456-3.662-2.52-6.125.727-1.91 3.107-3.324 4.71-2.797.5.164 1.184.299 1.52.299Zm20.753.39c.59.592 1.074 1.207 1.074 1.367 0 .162-1.893.293-4.206.293-4.162 0-4.193-.014-2.969-1.366 1.48-1.635 4.609-1.785 6.101-.293Zm-87.752 2.344c-1.022 1.91.256 4.1 2.391 4.1 1.794 0 3.106-1.766 2.539-3.417-.806-2.348-3.816-2.765-4.93-.683ZM11 21.943c.127.658.683 1.196 1.237 1.196.553 0 1.11-.538 1.237-1.196.16-.839-.208-1.195-1.237-1.195-1.029 0-1.398.356-1.237 1.195Zm129.174 2.126c.278.27.017 1.189-.578 2.04-1.392 1.987-5.246 1.856-5.635-.192-.481-2.537 4.101-3.9 6.213-1.848Zm-120.367 1.86c.033.796.195.958.413.413.197-.493.172-1.083-.054-1.31-.227-.226-.388.177-.359.897Z" clip-rule="evenodd"/></svg>