<svg width="127" height="36" viewBox="0 0 127 36" fill="none" xmlns="http://www.w3.org/2000/svg">
<g clip-path="url(#clip0_6630_6341)">
<path d="M4.97209 10.1353L1.74512 16.2665V18.2027L5.61748 21.4297L12.0714 23.0431L18.5254 27.8836H27.2382V32.0786L31.756 34.3375H36.9191L43.0503 27.8836L45.3092 24.6566V19.8162L43.0503 10.1353L36.9191 4.00399L30.1425 1.74512H22.3977L12.0714 4.00399L4.97209 10.1353Z" stroke="black" stroke-width="1.93618"/>
<path d="M1.74512 17.374L22.3462 10.1635L37.1102 12.567L39.5136 6.38672" stroke="black" stroke-width="0.6867"/>
<path d="M38.4827 23.8991L27.8828 27.2396M12.7314 4.32812L22.3452 10.1651L38.4827 23.8991L12.7314 4.32812ZM38.4827 23.8991L36.9182 12.0728L38.4827 23.8991Z" stroke="black" stroke-width="0.6867"/>
<path d="M8.26855 15.3154L11.7021 21.8391L38.4833 23.8992L45.3504 25.2727" stroke="black" stroke-width="0.6867"/>
<path d="M8.19887 17.2327C9.2682 17.2327 10.1351 16.3659 10.1351 15.2965C10.1351 14.2272 9.2682 13.3604 8.19887 13.3604C7.12955 13.3604 6.2627 14.2272 6.2627 15.2965C6.2627 16.3659 7.12955 17.2327 8.19887 17.2327Z" fill="black"/>
<path d="M22.3985 12.716C23.6461 12.716 24.6574 11.7047 24.6574 10.4571C24.6574 9.20958 23.6461 8.19824 22.3985 8.19824C21.151 8.19824 20.1396 9.20958 20.1396 10.4571C20.1396 11.7047 21.151 12.716 22.3985 12.716Z" fill="black"/>
<path d="M36.5959 14.0063C37.487 14.0063 38.2094 13.2839 38.2094 12.3928C38.2094 11.5017 37.487 10.7793 36.5959 10.7793C35.7048 10.7793 34.9824 11.5017 34.9824 12.3928C34.9824 13.2839 35.7048 14.0063 36.5959 14.0063Z" fill="black"/>
<path d="M12.0701 23.0435C12.783 23.0435 13.3609 22.4656 13.3609 21.7527C13.3609 21.0398 12.783 20.4619 12.0701 20.4619C11.3572 20.4619 10.7793 21.0398 10.7793 21.7527C10.7793 22.4656 11.3572 23.0435 12.0701 23.0435Z" fill="black"/>
<path d="M38.5318 26.2686C39.9575 26.2686 41.1133 25.1128 41.1133 23.687C41.1133 22.2613 39.9575 21.1055 38.5318 21.1055C37.106 21.1055 35.9502 22.2613 35.9502 23.687C35.9502 25.1128 37.106 26.2686 38.5318 26.2686Z" fill="black"/>
<path d="M86.8792 19.1637C87.5848 19.1637 88.1568 18.5916 88.1568 17.886C88.1568 17.1804 87.5848 16.6084 86.8792 16.6084C86.1736 16.6084 85.6016 17.1804 85.6016 17.886C85.6016 18.5916 86.1736 19.1637 86.8792 19.1637Z" fill="black"/>
<path d="M48.5664 29.3311H52.6855L53.0841 27.7532H56.4392L56.8378 29.3311H61.5548L57.9174 17.4555H52.2204L48.5664 29.3311ZM54.7783 21.0098L55.7084 24.7967H53.8149L54.7783 21.0098ZM62.5876 29.3311H67.0555V17.4555H62.5876V29.3311ZM76.3855 29.5636C79.807 29.5636 81.5343 27.6369 81.5343 25.3781C81.5343 22.6209 79.6575 21.9067 76.7176 21.6244C75.7045 21.5247 75.3889 21.3088 75.3889 20.9102C75.3889 20.5614 75.6546 20.3455 76.1861 20.3455C76.7509 20.3455 77.0664 20.6943 77.0997 21.2091H81.1855C80.9862 18.4852 79.3087 17.2728 76.2028 17.2728C73.047 17.2728 71.2034 18.9337 71.2034 21.2424C71.2034 23.767 72.4158 24.7469 75.9536 25.1289C76.9336 25.2452 77.299 25.4445 77.299 25.8597C77.299 26.2251 77.083 26.4909 76.3855 26.4909C75.4886 26.4909 75.173 26.0424 75.1398 25.4777H70.9708C71.0041 28.3345 72.9972 29.5636 76.3855 29.5636ZM86.8321 29.5636C89.9879 29.5636 91.4495 28.102 91.4993 25.7601H88.0944C88.028 26.4577 87.7124 26.8397 87.0979 26.8397C86.2342 26.8397 85.9685 26.2417 85.9685 25.0459V24.913C85.9685 23.767 86.2674 23.2853 87.0481 23.2853C87.729 23.2853 87.8287 23.7005 87.9117 24.2154H91.4495C91.3166 21.342 89.2239 20.3787 86.9484 20.3787C84.2577 20.3787 82.0985 21.9566 82.0985 24.9794V25.1123C82.0985 28.1518 84.1581 29.5636 86.8321 29.5636ZM92.2608 29.3311H96.0643V24.6639C96.0643 23.7836 96.3632 23.4016 97.0442 23.4016C97.6422 23.4016 97.8747 23.7836 97.8747 24.4812V29.3311H101.678V23.5178C101.678 21.4583 100.565 20.3787 98.9543 20.3787C97.4927 20.3787 96.5626 21.1095 96.0643 22.0396V16.9904H92.2608V29.3311ZM107.503 26.8065C106.673 26.8065 106.34 26.2251 106.34 24.9794V24.8466C106.34 23.6673 106.722 23.1524 107.503 23.1524C108.317 23.1524 108.632 23.7171 108.632 24.8964V25.0293C108.632 26.2251 108.3 26.8065 107.503 26.8065ZM107.486 29.5636C110.26 29.5636 112.486 27.9193 112.486 24.996V24.8632C112.486 22.023 110.293 20.3787 107.503 20.3787C104.696 20.3787 102.487 22.0894 102.487 24.9794V25.1123C102.487 28.0521 104.713 29.5636 107.486 29.5636ZM117.997 26.8065C117.167 26.8065 116.835 26.2251 116.835 24.9794V24.8466C116.835 23.6673 117.217 23.1524 117.997 23.1524C118.811 23.1524 119.127 23.7171 119.127 24.8964V25.0293C119.127 26.2251 118.795 26.8065 117.997 26.8065ZM117.981 29.5636C120.754 29.5636 122.98 27.9193 122.98 24.996V24.8632C122.98 22.023 120.788 20.3787 117.997 20.3787C115.19 20.3787 112.981 22.0894 112.981 24.9794V25.1123C112.981 28.0521 115.207 29.5636 117.981 29.5636ZM123.941 29.3311H127.711V16.9904H123.941V29.3311Z" fill="black"/>
</g>
<defs>
<clipPath id="clip0_6630_6341">
<rect width="126.517" height="35.7737" fill="white"/>
</clipPath>
</defs>
</svg>
