<svg width="100" height="28" viewBox="0 0 100 28" fill="none" xmlns="http://www.w3.org/2000/svg">
<path d="M3.89147 7.93292L1.36572 12.7318V14.2473L4.39661 16.773L9.44809 18.0359L14.4996 21.8245H21.3191V25.1079L24.8551 26.8759H28.8963L33.6952 21.8245L35.4632 19.2987V15.5101L33.6952 7.93292L28.8963 3.13398L23.5923 1.36597H17.5305L9.44809 3.13398L3.89147 7.93292Z" stroke="white" stroke-width="1.51544"/>
<path d="M1.36572 13.5989L17.4901 7.95538L29.0459 9.83657L30.927 4.99927" stroke="white" stroke-width="0.537478"/>
<path d="M30.1208 18.7061L21.8242 21.3207M9.96533 3.38794L17.49 7.95649L30.1208 18.7061L9.96533 3.38794ZM30.1208 18.7061L28.8963 9.44971L30.1208 18.7061Z" stroke="white" stroke-width="0.537478"/>
<path d="M6.47168 11.9873L9.15909 17.0933L30.1207 18.7058L35.4956 19.7808" stroke="white" stroke-width="0.537478"/>
<path d="M6.4173 13.4882C7.25425 13.4882 7.93274 12.8097 7.93274 11.9727C7.93274 11.1358 7.25425 10.4573 6.4173 10.4573C5.58034 10.4573 4.90186 11.1358 4.90186 11.9727C4.90186 12.8097 5.58034 13.4882 6.4173 13.4882Z" fill="white"/>
<path d="M17.5312 9.95302C18.5076 9.95302 19.2992 9.16146 19.2992 8.18501C19.2992 7.20856 18.5076 6.41699 17.5312 6.41699C16.5548 6.41699 15.7632 7.20856 15.7632 8.18501C15.7632 9.16146 16.5548 9.95302 17.5312 9.95302Z" fill="white"/>
<path d="M28.6442 10.9637C29.3417 10.9637 29.9071 10.3983 29.9071 9.70086C29.9071 9.00339 29.3417 8.43799 28.6442 8.43799C27.9468 8.43799 27.3813 9.00339 27.3813 9.70086C27.3813 10.3983 27.9468 10.9637 28.6442 10.9637Z" fill="white"/>
<path d="M9.44828 18.036C10.0063 18.036 10.4586 17.5836 10.4586 17.0257C10.4586 16.4677 10.0063 16.0154 9.44828 16.0154C8.89031 16.0154 8.43799 16.4677 8.43799 17.0257C8.43799 17.5836 8.89031 18.036 9.44828 18.036Z" fill="white"/>
<path d="M30.1593 20.5607C31.2752 20.5607 32.1799 19.6561 32.1799 18.5401C32.1799 17.4242 31.2752 16.5195 30.1593 16.5195C29.0433 16.5195 28.1387 17.4242 28.1387 18.5401C28.1387 19.6561 29.0433 20.5607 30.1593 20.5607Z" fill="white"/>
<path d="M49.5889 16.3176L50.6829 15.9392L50.4134 15.16H49.5889V16.3176ZM46.3283 16.3176V15.16H45.5038L45.2342 15.9392L46.3283 16.3176ZM45.7888 17.8775V19.0351H46.6133L46.8828 18.2559L45.7888 17.8775ZM44.0647 17.8775L42.9751 17.4863L42.4189 19.0351H44.0647V17.8775ZM47.0086 9.67919V8.52156H46.1942L45.919 9.28794L47.0086 9.67919ZM48.9203 9.67919L50.0099 9.28794L49.7347 8.52156H48.9203V9.67919ZM51.8642 17.8775V19.0351H53.5099L52.9538 17.4863L51.8642 17.8775ZM50.1284 17.8775L49.0344 18.2559L49.3039 19.0351H50.1284V17.8775ZM49.1432 15.004V16.1617H50.7685L50.2372 14.6256L49.1432 15.004ZM47.9586 11.5792L49.0526 11.2008L47.9586 8.03784L46.8645 11.2008L47.9586 11.5792ZM46.774 15.004L45.68 14.6256L45.1487 16.1617H46.774V15.004ZM49.5889 15.16H46.3283V17.4753H49.5889V15.16ZM45.2342 15.9392L44.6947 17.4992L46.8828 18.2559L47.4223 16.696L45.2342 15.9392ZM45.7888 16.7199H44.0647V19.0351H45.7888V16.7199ZM45.1542 18.2688L48.0981 10.0704L45.919 9.28794L42.9751 17.4863L45.1542 18.2688ZM47.0086 10.8368H48.9203V8.52156H47.0086V10.8368ZM47.8308 10.0704L50.7748 18.2688L52.9538 17.4863L50.0099 9.28794L47.8308 10.0704ZM51.8642 16.7199H50.1284V19.0351H51.8642V16.7199ZM51.2224 17.4992L50.6829 15.9392L48.4948 16.696L49.0344 18.2559L51.2224 17.4992ZM50.2372 14.6256L49.0526 11.2008L46.8645 11.9576L48.0491 15.3824L50.2372 14.6256ZM46.8645 11.2008L45.68 14.6256L47.868 15.3824L49.0526 11.9576L46.8645 11.2008ZM46.774 16.1617H49.1432V13.8464H46.774V16.1617ZM54.6067 9.69093H55.7643V8.53331H54.6067V9.69093ZM54.6067 17.8775V19.0351H55.7643V17.8775H54.6067ZM52.9646 17.8775H51.807V19.0351H52.9646V17.8775ZM52.9646 9.69093V8.53331H51.807V9.69093H52.9646ZM53.449 9.69093V17.8775H55.7643V9.69093H53.449ZM54.6067 16.7199H52.9646V19.0351H54.6067V16.7199ZM54.1223 17.8775V9.69093H51.807V17.8775H54.1223ZM52.9646 10.8486H54.6067V8.53331H52.9646V10.8486ZM60.3021 17.6664L59.8439 18.7295L59.8505 18.7323L60.3021 17.6664ZM59.2231 16.822L58.2852 17.5005L59.2231 16.822ZM58.8126 15.5201V14.3624H57.6367L57.6551 15.5382L58.8126 15.5201ZM60.5719 15.5201L61.7267 15.4395L61.6516 14.3624H60.5719V15.5201ZM60.9237 16.3176L60.1373 17.1671L60.1449 17.1742L60.1528 17.1811L60.9237 16.3176ZM62.7183 16.3411L63.453 17.2356L63.4624 17.2279L63.4716 17.22L62.7183 16.3411ZM62.8238 15.0157L61.9845 15.813L62.8238 15.0157ZM62.2608 14.6521L61.8048 15.7162L61.8274 15.7258L61.8503 15.7346L62.2608 14.6521ZM61.346 14.3472L61.0193 15.4578L61.0266 15.4599L61.0339 15.4619L61.346 14.3472ZM60.0441 13.8898L59.5464 14.935L59.5612 14.942L59.5763 14.9487L60.0441 13.8898ZM59.1879 13.1978L58.2618 13.8924L58.2716 13.9054L58.2817 13.9181L59.1879 13.1978ZM59.1996 10.6879L60.1596 11.3348L59.1996 10.6879ZM60.22 9.86686L60.676 10.9309L60.684 10.9274L60.692 10.9239L60.22 9.86686ZM63.7739 10.1952L63.0556 11.1032L63.0631 11.109L63.0707 11.1148L63.7739 10.1952ZM64.6535 11.9076V13.0653H65.9006L65.808 11.8217L64.6535 11.9076ZM62.8473 11.9076L61.6914 11.9718L61.7522 13.0653H62.8473V11.9076ZM62.4837 11.2156L61.7303 12.0946L61.7471 12.1089L61.7643 12.1226L62.4837 11.2156ZM60.8299 11.1805L60.0854 10.294L60.0764 10.3015L60.0676 10.3093L60.8299 11.1805ZM60.7596 12.4472L59.9192 13.2433L59.9407 13.266L59.9634 13.2876L60.7596 12.4472ZM61.2991 12.799L60.8289 13.8569L60.8522 13.8672L60.8758 13.8765L61.2991 12.799ZM62.2139 13.1039L61.8813 14.2128L61.8873 14.2146L62.2139 13.1039ZM64.3837 14.2769L63.4687 14.9859L64.3837 14.2769ZM64.4072 16.7282L63.4163 16.1295L64.4072 16.7282ZM63.4103 17.6313L63.9279 18.6666L63.9353 18.663L63.9426 18.6592L63.4103 17.6313ZM61.8503 16.802C61.4132 16.802 61.0537 16.7276 60.7538 16.6005L59.8505 18.7323C60.4733 18.9962 61.1458 19.1173 61.8503 19.1173V16.802ZM60.7604 16.6033C60.4809 16.4829 60.2938 16.327 60.161 16.1434L58.2852 17.5005C58.6841 18.0519 59.2164 18.459 59.8439 18.7295L60.7604 16.6033ZM60.161 16.1434C60.0487 15.9882 59.9746 15.7906 59.9701 15.502L57.6551 15.5382C57.6662 16.2503 57.8658 16.9207 58.2852 17.5005L60.161 16.1434ZM58.8126 16.6777H60.5719V14.3624H58.8126V16.6777ZM59.4171 15.6006C59.4573 16.1769 59.6735 16.7376 60.1373 17.1671L61.7103 15.4682C61.7147 15.4723 61.7204 15.4785 61.7261 15.4865C61.7317 15.4944 61.7351 15.5009 61.7366 15.5043C61.7398 15.5117 61.7306 15.4951 61.7267 15.4395L59.4171 15.6006ZM60.1528 17.1811C60.6378 17.6142 61.2371 17.7685 61.8152 17.7685V15.4532C61.7266 15.4532 61.6838 15.4416 61.6726 15.4379C61.6651 15.4354 61.6778 15.439 61.6948 15.4541L60.1528 17.1811ZM61.8152 17.7685C62.372 17.7685 62.9643 17.6371 63.453 17.2356L61.9834 15.4466C62.0052 15.4287 62.0161 15.4285 61.997 15.4342C61.9745 15.4409 61.9181 15.4532 61.8152 15.4532V17.7685ZM63.4716 17.22C63.956 16.8048 64.2043 16.2372 64.2043 15.6139H61.8891C61.8891 15.6175 61.8891 15.5873 61.9095 15.542C61.9304 15.4959 61.9565 15.4693 61.9649 15.4621L63.4716 17.22ZM64.2043 15.6139C64.2043 15.1145 64.0419 14.6172 63.6631 14.2184L61.9845 15.813C61.9528 15.7797 61.9243 15.7353 61.9061 15.6867C61.8889 15.6405 61.8891 15.6117 61.8891 15.6139H64.2043ZM63.6631 14.2184C63.3807 13.9212 63.0403 13.7097 62.6714 13.5698L61.8503 15.7346C61.9349 15.7666 61.9698 15.7975 61.9845 15.813L63.6631 14.2184ZM62.7168 13.5881C62.4299 13.4651 62.0691 13.3475 61.6582 13.2325L61.0339 15.4619C61.4047 15.5658 61.6539 15.6515 61.8048 15.7162L62.7168 13.5881ZM61.6726 13.2366C61.1675 13.0881 60.7855 12.9518 60.512 12.8309L59.5763 14.9487C59.9752 15.1249 60.4611 15.2936 61.0193 15.4578L61.6726 13.2366ZM60.5418 12.8446C60.3837 12.7693 60.2348 12.6544 60.0941 12.4775L58.2817 13.9181C58.6258 14.351 59.0477 14.6975 59.5464 14.935L60.5418 12.8446ZM60.114 12.5032C60.0714 12.4465 59.9937 12.3 59.9937 11.9546H57.6784C57.6784 12.6412 57.8352 13.3236 58.2618 13.8924L60.114 12.5032ZM59.9937 11.9546C59.9937 11.6721 60.0609 11.4812 60.1596 11.3348L58.2396 10.0409C57.8536 10.6138 57.6784 11.2674 57.6784 11.9546H59.9937ZM60.1596 11.3348C60.2655 11.1777 60.4219 11.0398 60.676 10.9309L59.7641 8.80279C59.1425 9.0692 58.6186 9.47861 58.2396 10.0409L60.1596 11.3348ZM60.692 10.9239C60.9577 10.8053 61.293 10.7312 61.7213 10.7312V8.41598C61.0237 8.41598 60.3581 8.53747 59.7481 8.80975L60.692 10.9239ZM61.7213 10.7312C62.3752 10.7312 62.7851 10.8892 63.0556 11.1032L64.492 9.28732C63.7148 8.67249 62.7564 8.41598 61.7213 8.41598V10.7312ZM63.0707 11.1148C63.3115 11.299 63.4661 11.5508 63.4991 11.9936L65.808 11.8217C65.7314 10.7944 65.2996 9.90462 64.4771 9.27565L63.0707 11.1148ZM64.6535 10.75H62.8473V13.0653H64.6535V10.75ZM64.0031 11.8434C63.9686 11.2216 63.6812 10.6879 63.203 10.3086L61.7643 12.1226C61.7654 12.1235 61.7422 12.1045 61.7199 12.062C61.6971 12.0187 61.692 11.983 61.6914 11.9718L64.0031 11.8434ZM63.2371 10.3367C62.756 9.92429 62.1701 9.77651 61.604 9.77651V12.0918C61.6905 12.0918 61.7338 12.1029 61.7467 12.1071C61.7564 12.1101 61.7459 12.1079 61.7303 12.0946L63.2371 10.3367ZM61.604 9.77651C61.0827 9.77651 60.5384 9.9135 60.0854 10.294L61.5745 12.0668C61.5633 12.0763 61.5516 12.0841 61.5408 12.09C61.53 12.0958 61.5229 12.0983 61.5211 12.0989C61.5179 12.0998 61.5416 12.0918 61.604 12.0918V9.77651ZM60.0676 10.3093C59.5672 10.7471 59.3908 11.3408 59.3908 11.8959H61.7061C61.7061 11.8536 61.7126 11.8644 61.6961 11.9063C61.6877 11.9276 61.6747 11.9535 61.6556 11.9808C61.6364 12.0082 61.6146 12.0321 61.5923 12.0517L60.0676 10.3093ZM59.3908 11.8959C59.3908 12.3883 59.5597 12.8637 59.9192 13.2433L61.6 11.651C61.6298 11.6826 61.661 11.7282 61.6823 11.7839C61.7031 11.8383 61.7061 11.8797 61.7061 11.8959H59.3908ZM59.9634 13.2876C60.219 13.5296 60.5129 13.7164 60.8289 13.8569L61.7693 11.7411C61.663 11.694 61.5973 11.6462 61.5557 11.6067L59.9634 13.2876ZM60.8758 13.8765C61.1384 13.9796 61.4784 14.0919 61.8813 14.2128L62.5466 11.9951C62.1675 11.8814 61.8977 11.7904 61.7223 11.7215L60.8758 13.8765ZM61.8873 14.2146C62.3879 14.3618 62.7624 14.4994 63.0276 14.6228L64.004 12.5234C63.5968 12.3341 63.1034 12.1589 62.5406 11.9934L61.8873 14.2146ZM63.0276 14.6228C63.1852 14.6961 63.3316 14.8091 63.4687 14.9859L65.2988 13.5677C64.9511 13.1191 64.5188 12.7629 64.004 12.5234L63.0276 14.6228ZM63.4687 14.9859C63.5139 15.0443 63.5897 15.1831 63.5897 15.5083H65.9049C65.9049 14.8171 65.7383 14.1349 65.2988 13.5677L63.4687 14.9859ZM63.5897 15.5083C63.5897 15.7349 63.5342 15.9345 63.4163 16.1295L65.398 17.3267C65.7337 16.7711 65.9049 16.1576 65.9049 15.5083H63.5897ZM63.4163 16.1295C63.3132 16.3002 63.1505 16.4621 62.8779 16.6032L63.9426 18.6592C64.5457 18.3469 65.0477 17.9067 65.398 17.3267L63.4163 16.1295ZM62.8925 16.5958C62.6481 16.718 62.3133 16.802 61.8503 16.802V19.1173C62.5916 19.1173 63.2966 18.9824 63.9279 18.6666L62.8925 16.5958ZM66.1592 12.8694L67.1748 13.4248L67.1785 13.4182L66.1592 12.8694ZM67.2969 11.6965L67.866 12.7046L67.872 12.7011L67.8781 12.6976L67.2969 11.6965ZM70.9562 11.8842L70.2466 12.7987L70.2542 12.8045L70.2617 12.8103L70.9562 11.8842ZM72.0236 13.5731V14.7307H73.5022L73.147 13.2951L72.0236 13.5731ZM70.2528 13.5731L69.154 13.9391L69.4183 14.7307H70.2528V13.5731ZM69.7713 12.9163L69.0768 13.8424L69.0952 13.8562L69.1144 13.8693L69.7713 12.9163ZM67.8364 13.1861L68.734 13.9168L68.7381 13.9118L68.7422 13.9067L67.8364 13.1861ZM67.8364 16.0713L66.9304 16.792L66.9344 16.7971L66.9385 16.8021L67.8364 16.0713ZM70.2528 15.6843V14.5267H69.4251L69.1574 15.3096L70.2528 15.6843ZM72.0236 15.6843L73.145 15.9709L73.5145 14.5267H72.0236V15.6843ZM70.9562 17.3615L71.6678 18.2745L70.9562 17.3615ZM67.2969 17.5726L66.7156 18.5737L66.7216 18.5772L66.7278 18.5807L67.2969 17.5726ZM66.1592 16.3997L65.1399 16.9486L65.1435 16.9552L66.1592 16.3997ZM66.9063 14.6287C66.9063 14.1155 67.0097 13.7268 67.1748 13.4248L65.1435 12.3139C64.7613 13.0128 64.5911 13.7969 64.5911 14.6287H66.9063ZM67.1785 13.4182C67.3525 13.0951 67.5789 12.8667 67.866 12.7046L66.7278 10.6884C66.0453 11.0737 65.5132 11.6272 65.1399 12.3205L67.1785 13.4182ZM67.8781 12.6976C68.1665 12.5301 68.5168 12.4319 68.9621 12.4319V10.1167C68.1568 10.1167 67.3967 10.2999 66.7156 10.6954L67.8781 12.6976ZM68.9621 12.4319C69.5671 12.4319 69.966 12.5812 70.2466 12.7987L71.6658 10.9696C70.8982 10.3739 69.968 10.1167 68.9621 10.1167V12.4319ZM70.2617 12.8103C70.5526 13.0286 70.7752 13.348 70.8995 13.8511L73.147 13.2951C72.9121 12.3438 72.4231 11.5373 71.6507 10.958L70.2617 12.8103ZM72.0236 12.4155H70.2528V14.7307H72.0236V12.4155ZM71.3509 13.2071C71.1843 12.7068 70.879 12.2736 70.429 11.9633L69.1144 13.8693C69.1225 13.875 69.1253 13.8784 69.128 13.8816C69.1307 13.8857 69.1417 13.9017 69.154 13.9391L71.3509 13.2071ZM70.4659 11.9902C70.009 11.6475 69.4777 11.5124 68.9504 11.5124V13.8276C69.0187 13.8276 69.0556 13.8361 69.0693 13.8404C69.0816 13.844 69.0816 13.8456 69.0768 13.8424L70.4659 11.9902ZM68.9504 11.5124C68.1559 11.5124 67.4402 11.8246 66.9304 12.4654L68.7422 13.9067C68.7756 13.8651 68.7968 13.8541 68.807 13.8494C68.8193 13.8437 68.8596 13.8276 68.9504 13.8276V11.5124ZM66.9385 12.4553C66.4363 13.0723 66.2683 13.8519 66.2683 14.6287H68.5837C68.5837 14.1545 68.6889 13.9723 68.734 13.9168L66.9385 12.4553ZM66.2683 14.6287C66.2683 15.4041 66.4391 16.1742 66.9304 16.792L68.7422 15.3507C68.6862 15.2803 68.5837 15.0887 68.5837 14.6287H66.2683ZM66.9385 16.8021C67.4519 17.4328 68.1659 17.7333 68.9504 17.7333V15.418C68.8562 15.418 68.8125 15.4016 68.7975 15.3949C68.7852 15.3895 68.7654 15.3786 68.734 15.3405L66.9385 16.8021ZM68.9504 17.7333C69.4544 17.7333 69.9735 17.6194 70.4283 17.308C70.8893 16.9928 71.1816 16.5449 71.3475 16.059L69.1574 15.3096C69.1376 15.3669 69.1205 15.3934 69.115 15.401C69.1109 15.407 69.113 15.4029 69.1205 15.3976C69.1417 15.3833 69.1109 15.418 68.9504 15.418V17.7333ZM70.2528 16.8419H72.0236V14.5267H70.2528V16.8419ZM70.9023 15.3977C70.78 15.8734 70.5581 16.2042 70.2446 16.4484L71.6678 18.2745C72.4177 17.6899 72.9073 16.9026 73.145 15.9709L70.9023 15.3977ZM70.2446 16.4484C69.9516 16.6767 69.5507 16.8255 68.9621 16.8255V19.1407C69.9687 19.1407 70.8975 18.8751 71.6678 18.2745L70.2446 16.4484ZM68.9621 16.8255C68.5113 16.8255 68.1564 16.7285 67.866 16.5645L66.7278 18.5807C67.4068 18.9641 68.1625 19.1407 68.9621 19.1407V16.8255ZM67.8781 16.5715C67.5795 16.398 67.349 16.1627 67.1748 15.8443L65.1435 16.9552C65.5167 17.6376 66.0447 18.1842 66.7156 18.5737L67.8781 16.5715ZM67.1785 15.8509C67.0095 15.5372 66.9063 15.1413 66.9063 14.6287H64.5911C64.5911 15.461 64.7614 16.2457 65.1399 16.9485L67.1785 15.8509ZM78.1993 11.6144L77.625 12.6195L77.6332 12.624L77.6407 12.6283L78.1993 11.6144ZM79.0905 12.5644L78.0552 13.0821L78.0614 13.0938L78.0675 13.1052L79.0905 12.5644ZM79.419 17.8775V19.0351H80.5766V17.8775H79.419ZM77.7773 17.8775H76.6197V19.0351H77.7773V17.8775ZM77.3901 13.1039L76.5371 13.8862L76.5425 13.8922L76.548 13.8981L77.3901 13.1039ZM75.2552 13.1039L74.4139 12.3091L74.4132 12.3098L75.2552 13.1039ZM74.8687 17.8775V19.0351H76.0263V17.8775H74.8687ZM73.2263 17.8775H72.0687V19.0351H73.2263V17.8775ZM73.2263 9.19827V8.04064H72.0687V9.19827H73.2263ZM74.8687 9.19827H76.0263V8.04064H74.8687V9.19827ZM74.8687 12.1891H73.7111V15.662L75.7947 12.8837L74.8687 12.1891ZM75.7128 11.5323L76.1833 12.5902L76.1929 12.5859L76.2024 12.5814L75.7128 11.5323ZM76.8861 12.4436C77.2009 12.4436 77.4365 12.5118 77.625 12.6195L78.7737 10.6093C78.1959 10.2791 77.556 10.1283 76.8861 10.1283V12.4436ZM77.6407 12.6283C77.8019 12.7171 77.9405 12.8523 78.0552 13.0821L80.1265 12.0468C79.8192 11.4321 79.363 10.9339 78.758 10.6005L77.6407 12.6283ZM78.0675 13.1052C78.1788 13.3163 78.2615 13.6213 78.2615 14.0657H80.5766C80.5766 13.3372 80.4407 12.6415 80.1143 12.0237L78.0675 13.1052ZM78.2615 14.0657V17.8775H80.5766V14.0657H78.2615ZM79.419 16.7199H77.7773V19.0351H79.419V16.7199ZM78.9348 17.8775V14.2885H76.6197V17.8775H78.9348ZM78.9348 14.2885C78.9348 13.5885 78.758 12.8675 78.2321 12.3098L76.548 13.8981C76.548 13.8984 76.563 13.9124 76.5801 13.9649C76.5985 14.0221 76.6197 14.1243 76.6197 14.2885H78.9348ZM78.2437 12.3217C77.7288 11.7605 77.0452 11.5241 76.3343 11.5241V13.8394C76.4353 13.8394 76.4852 13.8551 76.5029 13.8621C76.5159 13.8674 76.5241 13.8725 76.5371 13.8862L78.2437 12.3217ZM76.3343 11.5241C75.622 11.5241 74.9363 11.7562 74.4139 12.3091L76.0973 13.8988C76.1068 13.8887 76.1403 13.8394 76.3343 13.8394V11.5241ZM74.4132 12.3098C73.8873 12.8675 73.7111 13.5885 73.7111 14.2885H76.0263C76.0263 14.1243 76.0467 14.0221 76.0659 13.9649C76.0829 13.9124 76.0973 13.8984 76.098 13.8981L74.4132 12.3098ZM73.7111 14.2885V17.8775H76.0263V14.2885H73.7111ZM74.8687 16.7199H73.2263V19.0351H74.8687V16.7199ZM74.3838 17.8775V9.19827H72.0687V17.8775H74.3838ZM73.2263 10.3559H74.8687V8.04064H73.2263V10.3559ZM73.7111 9.19827V12.1891H76.0263V9.19827H73.7111ZM75.7947 12.8837C75.876 12.7748 75.9942 12.6741 76.1833 12.5902L75.2429 10.4745C74.728 10.7033 74.2827 11.0405 73.9426 11.4945L75.7947 12.8837ZM76.2024 12.5814C76.3855 12.4961 76.6067 12.4436 76.8861 12.4436V10.1283C76.3049 10.1283 75.7442 10.2401 75.2231 10.4833L76.2024 12.5814ZM82.1767 17.5726L81.6092 18.5815L81.6153 18.585L81.6215 18.5882L82.1767 17.5726ZM80.9925 16.388L79.9797 16.9489L79.9831 16.9548L79.9865 16.9607L80.9925 16.388ZM81.0041 12.8694L80.005 12.2851L80.0016 12.2909L79.9982 12.2967L81.0041 12.8694ZM82.2122 11.6965L82.7613 12.7158L82.7667 12.7125L82.7729 12.7092L82.2122 11.6965ZM85.6139 11.6965L85.0525 12.7092L85.0586 12.7125L85.0648 12.7158L85.6139 11.6965ZM86.8097 12.8694L85.8037 13.442L85.8071 13.4479L85.8105 13.4537L86.8097 12.8694ZM86.7981 16.388L85.8058 15.7924L85.8024 15.7981L85.7989 15.8037L86.7981 16.388ZM85.5783 17.5726L86.1274 18.5919L86.1329 18.5889L85.5783 17.5726ZM84.6987 16.3411L85.2533 17.3573L85.2581 17.3545L85.2635 17.3516L84.6987 16.3411ZM85.3318 15.6843L86.3507 16.2347L85.3318 15.6843ZM85.0737 13.2095L84.2364 14.0084L84.246 14.0184L84.2555 14.0281L85.0737 13.2095ZM82.7046 13.2095L81.8673 12.4107L81.8666 12.4112L82.7046 13.2095ZM82.693 16.0596L81.8359 16.8373L81.8448 16.8477L81.855 16.858L82.693 16.0596ZM83.8663 16.8255C83.4155 16.8255 83.0467 16.7286 82.7326 16.5569L81.6215 18.5882C82.3085 18.9639 83.0652 19.1407 83.8663 19.1407V16.8255ZM82.7449 16.5636C82.4307 16.3871 82.1863 16.1446 81.9984 15.8153L79.9865 16.9607C80.3779 17.6479 80.9222 18.1951 81.6092 18.5815L82.7449 16.5636ZM82.0053 15.8271C81.8318 15.5139 81.728 15.1257 81.728 14.6287H79.4129C79.4129 15.461 79.5904 16.2456 79.9797 16.9489L82.0053 15.8271ZM81.728 14.6287C81.728 14.137 81.8332 13.7531 82.0101 13.442L79.9982 12.2967C79.5966 13.0022 79.4129 13.7911 79.4129 14.6287H81.728ZM82.0032 13.4537C82.1958 13.1252 82.4437 12.8865 82.7613 12.7158L81.6631 10.6772C80.9638 11.0539 80.4072 11.5971 80.005 12.2851L82.0032 13.4537ZM82.7729 12.7092C83.0966 12.53 83.4681 12.4319 83.9127 12.4319V10.1167C83.1068 10.1167 82.344 10.3 81.6515 10.6838L82.7729 12.7092ZM83.9127 12.4319C84.358 12.4319 84.7288 12.53 85.0525 12.7092L86.1745 10.6838C85.4814 10.3 84.7192 10.1167 83.9127 10.1167V12.4319ZM85.0648 12.7158C85.3789 12.885 85.6207 13.12 85.8037 13.442L87.8156 12.2967C87.4209 11.6022 86.8643 11.0554 86.1623 10.6772L85.0648 12.7158ZM85.8105 13.4537C85.9908 13.7627 86.0981 14.1424 86.0981 14.6287H88.4132C88.4132 13.7858 88.2226 12.9926 87.8095 12.2851L85.8105 13.4537ZM86.0981 14.6287C86.0981 15.1096 85.9895 15.4852 85.8058 15.7924L87.791 16.9836C88.2165 16.2743 88.4132 15.477 88.4132 14.6287H86.0981ZM85.7989 15.8037C85.6077 16.1305 85.355 16.3758 85.0238 16.5563L86.1329 18.5889C86.8343 18.2063 87.3943 17.662 87.7972 16.9722L85.7989 15.8037ZM85.0293 16.5533C84.7063 16.7275 84.3265 16.8255 83.8663 16.8255V19.1407C84.6721 19.1407 85.4342 18.9649 86.1274 18.5919L85.0293 16.5533ZM83.8663 17.7099C84.3545 17.7099 84.823 17.5919 85.2533 17.3573L84.1442 15.3248C84.0582 15.3717 83.9714 15.3945 83.8663 15.3945V17.7099ZM85.2635 17.3516C85.7361 17.0873 86.0981 16.7012 86.3507 16.2347L84.3136 15.1338C84.2528 15.2459 84.1927 15.2978 84.134 15.3305L85.2635 17.3516ZM86.3507 16.2347C86.6191 15.7379 86.7243 15.1863 86.7243 14.6287H84.4092C84.4092 14.8999 84.358 15.052 84.3136 15.1338L86.3507 16.2347ZM86.7243 14.6287C86.7243 13.8087 86.5024 13.0007 85.8925 12.391L84.2555 14.0281C84.3026 14.0751 84.4092 14.2132 84.4092 14.6287H86.7243ZM85.9116 12.4107C85.3701 11.8428 84.6714 11.5475 83.8895 11.5475V13.8628C84.0452 13.8628 84.1367 13.9038 84.2364 14.0084L85.9116 12.4107ZM83.8895 11.5475C83.1075 11.5475 82.4082 11.8428 81.8673 12.4107L83.5425 14.0084C83.6423 13.9038 83.7331 13.8628 83.8895 13.8628V11.5475ZM81.8666 12.4112C81.2841 13.0229 81.0779 13.8233 81.0779 14.6287H83.393C83.393 14.1987 83.5002 14.053 83.5432 14.0079L81.8666 12.4112ZM81.0779 14.6287C81.0779 15.429 81.2773 16.2215 81.8359 16.8373L83.5507 15.2819C83.4995 15.2253 83.393 15.0637 83.393 14.6287H81.0779ZM81.855 16.858C82.3945 17.4245 83.0925 17.7099 83.8663 17.7099V15.3945C83.701 15.3945 83.617 15.3514 83.5316 15.2612L81.855 16.858ZM89.6561 17.5726L89.0886 18.5815L89.0947 18.585L89.1009 18.5882L89.6561 17.5726ZM88.4719 16.388L87.4591 16.9489L87.4626 16.9548L87.466 16.9607L88.4719 16.388ZM88.4835 12.8694L87.4844 12.2851L87.481 12.2909L87.4776 12.2967L88.4835 12.8694ZM89.6916 11.6965L90.2407 12.7158L90.2462 12.7125L90.2523 12.7092L89.6916 11.6965ZM93.0926 11.6965L92.5319 12.7092L92.5381 12.7125L92.5442 12.7158L93.0926 11.6965ZM94.2891 12.8694L93.2831 13.442L93.2866 13.4479L93.29 13.4537L94.2891 12.8694ZM94.2775 16.388L93.2845 15.7924L93.2811 15.7981L93.2784 15.8037L94.2775 16.388ZM93.0578 17.5726L93.6068 18.5919L93.6123 18.5889L93.0578 17.5726ZM92.1782 16.3411L92.7327 17.3573L92.7375 17.3545L92.7429 17.3516L92.1782 16.3411ZM92.8112 15.6843L93.8295 16.2347L92.8112 15.6843ZM92.5531 13.2095L91.7158 14.0084L91.7254 14.0184L91.7349 14.0281L92.5531 13.2095ZM90.184 13.2095L89.3461 12.4107V12.4112L90.184 13.2095ZM90.1724 16.0596L89.3146 16.8373L89.3242 16.8477L89.3345 16.858L90.1724 16.0596ZM91.345 16.8255C90.8949 16.8255 90.5255 16.7286 90.212 16.5569L89.1009 18.5882C89.7879 18.9639 90.5446 19.1407 91.345 19.1407V16.8255ZM90.2236 16.5636C89.9102 16.3871 89.665 16.1446 89.4779 15.8153L87.466 16.9607C87.8566 17.6479 88.4016 18.1951 89.0886 18.5815L90.2236 16.5636ZM89.4847 15.8271C89.3112 15.5139 89.2074 15.1257 89.2074 14.6287H86.8916C86.8916 15.461 87.0699 16.2456 87.4591 16.9489L89.4847 15.8271ZM89.2074 14.6287C89.2074 14.137 89.3126 13.7531 89.4895 13.442L87.4776 12.2967C87.076 13.0022 86.8916 13.7911 86.8916 14.6287H89.2074ZM89.4826 13.4537C89.6745 13.1252 89.9231 12.8865 90.2407 12.7158L89.1425 10.6772C88.4432 11.0539 87.8866 11.5971 87.4844 12.2851L89.4826 13.4537ZM90.2523 12.7092C90.576 12.53 90.9475 12.4319 91.3921 12.4319V10.1167C90.5863 10.1167 89.8234 10.3 89.1309 10.6838L90.2523 12.7092ZM91.3921 12.4319C91.8367 12.4319 92.2082 12.53 92.5319 12.7092L93.654 10.6838C92.9608 10.3 92.1986 10.1167 91.3921 10.1167V12.4319ZM92.5442 12.7158C92.8584 12.885 93.1001 13.12 93.2831 13.442L95.295 12.2967C94.8996 11.6022 94.3437 11.0554 93.6417 10.6772L92.5442 12.7158ZM93.29 13.4537C93.4703 13.7627 93.5775 14.1424 93.5775 14.6287H95.8926C95.8926 13.7858 95.7021 12.9926 95.2889 12.2851L93.29 13.4537ZM93.5775 14.6287C93.5775 15.1096 93.4689 15.4852 93.2845 15.7924L95.2705 16.9836C95.6959 16.2743 95.8926 15.477 95.8926 14.6287H93.5775ZM93.2784 15.8037C93.0871 16.1305 92.8345 16.3758 92.5032 16.5563L93.6123 18.5889C94.313 18.2063 94.8737 17.662 95.2766 16.9722L93.2784 15.8037ZM92.5087 16.5533C92.185 16.7275 91.806 16.8255 91.345 16.8255V19.1407C92.1515 19.1407 92.9137 18.9649 93.6068 18.5919L92.5087 16.5533ZM91.345 17.7099C91.834 17.7099 92.3025 17.5919 92.7327 17.3573L91.6236 15.3248C91.5376 15.3717 91.4508 15.3945 91.345 15.3945V17.7099ZM92.7429 17.3516C93.2155 17.0873 93.5775 16.7012 93.8295 16.2347L91.793 15.1338C91.7322 15.2459 91.6721 15.2978 91.6134 15.3305L92.7429 17.3516ZM93.8295 16.2347C94.0986 15.7379 94.2037 15.1863 94.2037 14.6287H91.8886C91.8886 14.8999 91.8374 15.052 91.793 15.1338L93.8295 16.2347ZM94.2037 14.6287C94.2037 13.8087 93.9818 13.0007 93.3719 12.391L91.7349 14.0281C91.7821 14.0751 91.8886 14.2132 91.8886 14.6287H94.2037ZM93.391 12.4107C92.8495 11.8428 92.1508 11.5475 91.3689 11.5475V13.8628C91.5246 13.8628 91.6161 13.9038 91.7158 14.0084L93.391 12.4107ZM91.3689 11.5475C90.5863 11.5475 89.8876 11.8428 89.3461 12.4107L91.022 14.0084C91.1217 13.9038 91.2125 13.8628 91.3689 13.8628V11.5475ZM89.3461 12.4112C88.7635 13.0229 88.5573 13.8233 88.5573 14.6287H90.8724C90.8724 14.1987 90.9796 14.053 91.0226 14.0079L89.3461 12.4112ZM88.5573 14.6287C88.5573 15.429 88.7567 16.2215 89.3146 16.8373L91.0302 15.2819C90.9783 15.2253 90.8724 15.0637 90.8724 14.6287H88.5573ZM89.3345 16.858C89.874 17.4245 90.5719 17.7099 91.345 17.7099V15.3945C91.1804 15.3945 91.0964 15.3514 91.011 15.2612L89.3345 16.858ZM97.5815 9.19827H98.739V8.04064H97.5815V9.19827ZM97.5815 17.8775V19.0351H98.739V17.8775H97.5815ZM95.9397 17.8775H94.7815V19.0351H95.9397V17.8775ZM95.9397 9.19827V8.04064H94.7815V9.19827H95.9397ZM96.4239 9.19827V17.8775H98.739V9.19827H96.4239ZM97.5815 16.7199H95.9397V19.0351H97.5815V16.7199ZM97.0973 17.8775V9.19827H94.7815V17.8775H97.0973ZM95.9397 10.3559H97.5815V8.04064H95.9397V10.3559Z" fill="white"/>
<path d="M70.318 9.95396C71.0155 9.95396 71.5809 9.38855 71.5809 8.69109C71.5809 7.99363 71.0155 7.42822 70.318 7.42822C69.6206 7.42822 69.0552 7.99363 69.0552 8.69109C69.0552 9.38855 69.6206 9.95396 70.318 9.95396Z" fill="white"/>
<path d="M70.3184 9.70125C70.8764 9.70125 71.3287 9.24893 71.3287 8.69096C71.3287 8.13299 70.8764 7.68066 70.3184 7.68066C69.7604 7.68066 69.3081 8.13299 69.3081 8.69096C69.3081 9.24893 69.7604 9.70125 70.3184 9.70125Z" stroke="white" stroke-width="0.505148"/>
</svg>
