<svg width="119" height="39" viewBox="0 0 119 39" fill="none" xmlns="http://www.w3.org/2000/svg">
<path d="M51.7474 26.4805H48.1277V16.2696H51.7773C52.8044 16.2696 53.6885 16.474 54.4298 16.8828C55.171 17.2883 55.741 17.8717 56.1399 18.6328C56.5421 19.394 56.7432 20.3047 56.7432 21.365C56.7432 22.4287 56.5421 23.3427 56.1399 24.1072C55.741 24.8717 55.1677 25.4584 54.4198 25.8672C53.6752 26.2761 52.7844 26.4805 51.7474 26.4805ZM50.2866 24.6307H51.6576C52.2958 24.6307 52.8326 24.5177 53.2681 24.2917C53.7068 24.0624 54.0359 23.7084 54.2552 23.2297C54.4779 22.7478 54.5893 22.1262 54.5893 21.365C54.5893 20.6105 54.4779 19.9939 54.2552 19.5153C54.0359 19.0367 53.7085 18.6843 53.273 18.4583C52.8376 18.2323 52.3008 18.1193 51.6626 18.1193H50.2866V24.6307ZM61.7925 26.63C61.0048 26.63 60.3267 26.4705 59.7583 26.1514C59.1933 25.829 58.7578 25.3736 58.452 24.7853C58.1462 24.1937 57.9933 23.494 57.9933 22.6863C57.9933 21.8985 58.1462 21.2072 58.452 20.6122C58.7578 20.0172 59.1883 19.5535 59.7434 19.2211C60.3018 18.8888 60.9566 18.7226 61.7078 18.7226C62.213 18.7226 62.6833 18.804 63.1187 18.9669C63.5575 19.1264 63.9397 19.3674 64.2655 19.6898C64.5945 20.0122 64.8505 20.4177 65.0333 20.9063C65.2161 21.3916 65.3075 21.96 65.3075 22.6115V23.1948H58.8409V21.8786H63.3082C63.3082 21.5728 63.2417 21.3019 63.1088 21.0659C62.9758 20.8299 62.7913 20.6454 62.5554 20.5125C62.3227 20.3762 62.0518 20.3081 61.7427 20.3081C61.4203 20.3081 61.1344 20.3828 60.8851 20.5324C60.6391 20.6787 60.4464 20.8764 60.3068 21.1257C60.1672 21.3717 60.0957 21.6459 60.0924 21.9484V23.1998C60.0924 23.5787 60.1622 23.9061 60.3018 24.182C60.4447 24.4579 60.6458 24.6706 60.9051 24.8202C61.1643 24.9698 61.4718 25.0446 61.8274 25.0446C62.0634 25.0446 62.2795 25.0113 62.4756 24.9448C62.6717 24.8784 62.8395 24.7787 62.9791 24.6457C63.1187 24.5127 63.2251 24.3499 63.2982 24.1571L65.2626 24.2867C65.1629 24.7587 64.9585 25.1709 64.6494 25.5232C64.3436 25.8722 63.9481 26.1448 63.4628 26.3409C62.9808 26.5337 62.4241 26.63 61.7925 26.63ZM73.0654 21.0061L71.121 21.1257C71.0877 20.9595 71.0162 20.81 70.9066 20.677C70.7969 20.5407 70.6523 20.4327 70.4728 20.3529C70.2966 20.2698 70.0856 20.2283 69.8396 20.2283C69.5105 20.2283 69.233 20.2981 69.007 20.4377C68.7809 20.574 68.6679 20.7568 68.6679 20.9861C68.6679 21.1689 68.7411 21.3235 68.8873 21.4498C69.0336 21.5761 69.2845 21.6775 69.6402 21.7539L71.0262 22.0331C71.7708 22.186 72.3259 22.432 72.6915 22.771C73.0571 23.1101 73.2399 23.5555 73.2399 24.1072C73.2399 24.6091 73.092 25.0495 72.7962 25.4285C72.5037 25.8074 72.1015 26.1032 71.5896 26.3159C71.0811 26.5253 70.4944 26.63 69.8296 26.63C68.8159 26.63 68.0082 26.419 67.4065 25.9968C66.8082 25.5714 66.4576 24.993 66.3545 24.2618L68.4436 24.1521C68.5067 24.4612 68.6596 24.6972 68.9023 24.8601C69.1449 25.0196 69.4557 25.0994 69.8346 25.0994C70.2069 25.0994 70.506 25.0279 70.7321 24.885C70.9614 24.7388 71.0777 24.551 71.0811 24.3216C71.0777 24.1288 70.9963 23.971 70.8368 23.848C70.6772 23.7217 70.4312 23.6253 70.0989 23.5588L68.7726 23.2945C68.0248 23.145 67.468 22.8857 67.1024 22.5168C66.7401 22.1478 66.5589 21.6775 66.5589 21.1058C66.5589 20.6138 66.6919 20.1901 66.9578 19.8344C67.227 19.4787 67.6043 19.2045 68.0896 19.0117C68.5782 18.819 69.1499 18.7226 69.8047 18.7226C70.7719 18.7226 71.5331 18.927 72.0882 19.3358C72.6466 19.7447 72.9723 20.3014 73.0654 21.0061ZM74.5774 26.4805V18.8223H76.7013V26.4805H74.5774ZM75.6443 17.8351C75.3285 17.8351 75.0577 17.7304 74.8316 17.521C74.6089 17.3083 74.4976 17.054 74.4976 16.7582C74.4976 16.4657 74.6089 16.2147 74.8316 16.0053C75.0577 15.7926 75.3285 15.6862 75.6443 15.6862C75.9601 15.6862 76.2293 15.7926 76.452 16.0053C76.678 16.2147 76.791 16.4657 76.791 16.7582C76.791 17.054 76.678 17.3083 76.452 17.521C76.2293 17.7304 75.9601 17.8351 75.6443 17.8351ZM81.8529 29.5118C81.1648 29.5118 80.5748 29.4171 80.0829 29.2276C79.5943 29.0415 79.2054 28.7872 78.9162 28.4648C78.6271 28.1424 78.4393 27.7801 78.3528 27.3779L80.3172 27.1137C80.3771 27.2666 80.4718 27.4095 80.6014 27.5424C80.7311 27.6754 80.9022 27.7818 81.115 27.8615C81.331 27.9446 81.5936 27.9862 81.9027 27.9862C82.3647 27.9862 82.7453 27.8732 83.0445 27.6471C83.347 27.4244 83.4982 27.0505 83.4982 26.5253V25.1243H83.4084C83.3154 25.3371 83.1758 25.5382 82.9896 25.7276C82.8035 25.9171 82.5642 26.0716 82.2717 26.1913C81.9792 26.311 81.6302 26.3708 81.2247 26.3708C80.6496 26.3708 80.1261 26.2378 79.6541 25.9719C79.1855 25.7027 78.8115 25.2922 78.5323 24.7404C78.2565 24.1853 78.1185 23.484 78.1185 22.6364C78.1185 21.7689 78.2598 21.0443 78.5423 20.4626C78.8248 19.8809 79.2004 19.4455 79.6691 19.1563C80.1411 18.8672 80.6579 18.7226 81.2197 18.7226C81.6485 18.7226 82.0074 18.7957 82.2966 18.9419C82.5858 19.0849 82.8185 19.2644 82.9946 19.4804C83.1741 19.6931 83.3121 19.9025 83.4084 20.1086H83.4882V18.8223H85.5972V26.5553C85.5972 27.2067 85.4377 27.7518 85.1186 28.1906C84.7995 28.6293 84.3574 28.9584 83.7923 29.1778C83.2306 29.4005 82.5841 29.5118 81.8529 29.5118ZM81.8977 24.7753C82.2401 24.7753 82.5293 24.6906 82.7653 24.5211C83.0046 24.3482 83.1874 24.1022 83.3137 23.7832C83.4433 23.4607 83.5082 23.0752 83.5082 22.6264C83.5082 22.1777 83.445 21.7888 83.3187 21.4598C83.1924 21.1274 83.0096 20.8698 82.7703 20.687C82.5309 20.5042 82.2401 20.4128 81.8977 20.4128C81.5487 20.4128 81.2546 20.5075 81.0153 20.6969C80.7759 20.8831 80.5948 21.1423 80.4718 21.4747C80.3488 21.8071 80.2873 22.191 80.2873 22.6264C80.2873 23.0685 80.3488 23.4508 80.4718 23.7732C80.5981 24.0923 80.7793 24.3399 81.0153 24.5161C81.2546 24.6889 81.5487 24.7753 81.8977 24.7753ZM89.4113 22.0531V26.4805H87.2874V18.8223H89.3116V20.1734H89.4014C89.5709 19.728 89.8551 19.3757 90.2539 19.1164C90.6528 18.8539 91.1364 18.7226 91.7048 18.7226C92.2366 18.7226 92.7003 18.8389 93.0958 19.0716C93.4914 19.3042 93.7988 19.6366 94.0182 20.0687C94.2376 20.4975 94.3473 21.0094 94.3473 21.6044V26.4805H92.2233V21.9833C92.2267 21.5146 92.107 21.149 91.8644 20.8864C91.6217 20.6205 91.2877 20.4875 90.8622 20.4875C90.5764 20.4875 90.3237 20.549 90.1044 20.672C89.8883 20.795 89.7188 20.9745 89.5958 21.2105C89.4762 21.4432 89.4147 21.724 89.4113 22.0531ZM96.0213 29.3523V18.8223H98.1153V20.1086H98.21C98.3031 19.9025 98.4377 19.6931 98.6139 19.4804C98.7934 19.2644 99.026 19.0849 99.3119 18.9419C99.6011 18.7957 99.96 18.7226 100.389 18.7226C100.947 18.7226 101.462 18.8688 101.934 19.1613C102.406 19.4505 102.784 19.8876 103.066 20.4726C103.349 21.0543 103.49 21.7838 103.49 22.6613C103.49 23.5156 103.352 24.2369 103.076 24.8252C102.804 25.4102 102.431 25.8539 101.959 26.1564C101.491 26.4555 100.966 26.6051 100.384 26.6051C99.9717 26.6051 99.621 26.537 99.3318 26.4007C99.046 26.2644 98.8116 26.0932 98.6288 25.8872C98.446 25.6778 98.3064 25.4667 98.21 25.254H98.1452V29.3523H96.0213ZM98.1003 22.6514C98.1003 23.1067 98.1635 23.5039 98.2898 23.843C98.4161 24.182 98.5989 24.4463 98.8382 24.6357C99.0776 24.8219 99.3684 24.9149 99.7107 24.9149C100.056 24.9149 100.349 24.8202 100.588 24.6307C100.828 24.438 101.009 24.172 101.132 23.833C101.258 23.4907 101.321 23.0968 101.321 22.6514C101.321 22.2093 101.26 21.8204 101.137 21.4847C101.014 21.149 100.833 20.8864 100.593 20.6969C100.354 20.5075 100.06 20.4128 99.7107 20.4128C99.3651 20.4128 99.0726 20.5042 98.8332 20.687C98.5973 20.8698 98.4161 21.129 98.2898 21.4648C98.1635 21.8005 98.1003 22.196 98.1003 22.6514ZM107.09 26.6251C106.601 26.6251 106.166 26.5403 105.783 26.3708C105.401 26.1979 105.099 25.9437 104.876 25.608C104.657 25.2689 104.547 24.8468 104.547 24.3416C104.547 23.9161 104.625 23.5588 104.781 23.2696C104.938 22.9804 105.15 22.7478 105.419 22.5716C105.689 22.3954 105.995 22.2625 106.337 22.1727C106.683 22.083 107.045 22.0198 107.424 21.9833C107.869 21.9367 108.228 21.8935 108.501 21.8537C108.773 21.8104 108.971 21.7473 109.094 21.6642C109.217 21.5811 109.278 21.4581 109.278 21.2952V21.2653C109.278 20.9496 109.179 20.7053 108.979 20.5324C108.783 20.3596 108.504 20.2732 108.142 20.2732C107.759 20.2732 107.455 20.3579 107.229 20.5274C107.003 20.6936 106.854 20.903 106.781 21.1556L104.816 20.9961C104.916 20.5308 105.112 20.1286 105.405 19.7895C105.697 19.4472 106.074 19.1846 106.536 19.0018C107.002 18.8156 107.54 18.7226 108.152 18.7226C108.577 18.7226 108.984 18.7724 109.373 18.8721C109.765 18.9719 110.113 19.1264 110.415 19.3358C110.721 19.5452 110.962 19.8145 111.138 20.1435C111.314 20.4693 111.402 20.8598 111.402 21.3152V26.4805H109.388V25.4185H109.328C109.205 25.6578 109.041 25.8689 108.835 26.0517C108.629 26.2312 108.381 26.3724 108.092 26.4755C107.803 26.5752 107.469 26.6251 107.09 26.6251ZM107.698 25.1592C108.01 25.1592 108.286 25.0977 108.526 24.9748C108.765 24.8485 108.953 24.6789 109.089 24.4662C109.225 24.2535 109.293 24.0125 109.293 23.7433V22.9306C109.227 22.9738 109.136 23.0137 109.019 23.0502C108.906 23.0835 108.778 23.1151 108.635 23.145C108.492 23.1716 108.349 23.1965 108.207 23.2198C108.064 23.2397 107.934 23.258 107.818 23.2746C107.568 23.3112 107.351 23.3693 107.165 23.4491C106.978 23.5289 106.834 23.6369 106.731 23.7732C106.628 23.9061 106.576 24.0723 106.576 24.2718C106.576 24.5609 106.681 24.782 106.89 24.9349C107.103 25.0844 107.372 25.1592 107.698 25.1592ZM115.174 16.2696V26.4805H113.05V16.2696H115.174Z" fill="white"/>
<path fill-rule="evenodd" clip-rule="evenodd" d="M0.439453 19.5V34.32C0.439453 36.9047 2.53476 39 5.11945 39H19.9395H34.7595C37.3441 39 39.4395 36.9047 39.4395 34.32V19.5V4.68C39.4395 2.09531 37.3441 0 34.7595 0H19.9395H5.11945C2.53476 0 0.439453 2.09531 0.439453 4.68V19.5ZM21.3962 12.6124C22.9413 12.8955 24.3311 13.7806 25.3687 15.1424C26.1604 16.1815 26.6556 17.3822 26.8306 18.6875C26.8712 18.9907 26.8772 19.9059 26.8404 20.2042C26.62 21.9931 25.7992 23.666 24.5414 24.8899C24.2379 25.1853 23.9959 25.3813 23.6473 25.6142C23.0589 26.0072 22.4569 26.2547 21.7788 26.3821V26.3821C21.6302 26.4101 21.4793 26.4242 21.3281 26.4244L17.2808 26.4291V26.4291C14.9207 26.4318 13.0061 24.5194 13.0061 22.1593V19.5003V16.637C13.0061 14.389 14.8285 12.5667 17.0764 12.5667V12.5667H20.8932C21.0619 12.5667 21.2303 12.582 21.3962 12.6124V12.6124ZM16.7904 13.0267C16.5146 13.14 16.1808 13.3837 15.185 14.1985C13.7618 15.3629 13.584 15.5108 13.5567 15.5525C13.5091 15.6251 13.5034 15.7477 13.5433 15.8365C13.5704 15.8967 14.2625 16.8241 14.3415 16.9059C14.3494 16.9142 15.1674 16.2811 16.1591 15.499C17.1509 14.717 17.9652 14.075 17.9687 14.0724C17.9753 14.0674 17.3891 13.2939 17.2601 13.1373C17.1316 12.9813 16.9848 12.9467 16.7904 13.0267ZM17.6645 15.1247C17.2821 15.4271 16.9542 15.6855 16.9357 15.699C16.9041 15.7221 16.9099 15.7342 17.0335 15.9047L17.1168 16.0195C17.1431 16.0557 17.1942 16.063 17.2296 16.0356V16.0356C17.2652 16.008 17.5024 15.826 17.7568 15.6312V15.6312C18.0437 15.4115 18.4249 15.3584 18.7609 15.4915L19.3064 15.7074C19.9671 15.9691 20.4113 16.1545 20.439 16.1804C20.5371 16.272 20.4923 16.02 21.2562 20.7729C21.3663 21.4581 21.4598 22.0334 21.4639 22.0514C21.468 22.0693 21.4655 22.0815 21.4583 22.0785C21.446 22.0732 20.9197 21.523 19.7599 20.3026C19.4763 20.0042 19.2249 19.7384 19.2013 19.712V19.712C19.1766 19.6846 19.1763 19.6431 19.2005 19.6153L19.379 19.4098C19.7242 19.0124 19.8067 18.8415 19.7916 18.5544C19.781 18.3529 19.7111 18.2028 19.5561 18.0487C19.2412 17.7355 18.8397 17.6797 18.505 17.9024C18.3755 17.9886 18.3215 18.0497 17.964 18.5153L17.7919 18.7394C17.708 18.8488 17.717 19.0032 17.8131 19.1021V19.1021C17.9883 19.2823 18.2708 19.5702 19.789 21.116C20.6563 21.999 20.8221 22.1722 20.8003 22.1722C20.7954 22.1722 20.4758 22.0297 20.0901 21.8555C19.7043 21.6813 18.5925 21.1802 17.6193 20.742C16.6461 20.3038 15.8282 19.9303 15.8018 19.9121C15.6957 19.839 15.6891 19.8045 15.5528 18.6098C15.4828 17.996 15.4258 17.476 15.4261 17.4542C15.4265 17.4236 15.5665 17.3078 16.04 16.9465C16.3773 16.6891 16.6533 16.473 16.6533 16.4663C16.6533 16.4574 16.4773 16.2135 16.4078 16.1261C16.4049 16.1225 16.0242 16.4184 15.5617 16.7835C14.7358 17.4356 14.721 17.4484 14.7303 17.5032C14.7354 17.5339 14.7969 18.0668 14.8667 18.6875C14.9366 19.3082 15.0064 19.8607 15.0217 19.9153C15.0959 20.1791 15.2966 20.4308 15.5294 20.552C15.5964 20.5869 16.415 20.9587 17.3485 21.3782C18.282 21.7977 19.801 22.4807 20.7242 22.896C21.6474 23.3113 22.4055 23.6483 22.409 23.6449C22.4124 23.6414 22.2479 22.5998 22.0433 21.3301C21.8388 20.0604 21.5696 18.3878 21.445 17.6132C21.3021 16.7244 21.2035 16.1609 21.1776 16.0857C21.1043 15.8725 20.9227 15.6514 20.7276 15.5377C20.6864 15.5137 20.1448 15.2935 19.5242 15.0485C18.9035 14.8035 18.3876 14.5967 18.3776 14.589C18.3674 14.581 18.0606 14.8114 17.6645 15.1247ZM19.0119 18.3195C19.1227 18.3657 19.2106 18.446 19.2609 18.547C19.3504 18.7266 19.3088 18.8495 19.0495 19.1712V19.1712C18.9612 19.2808 18.7969 19.2881 18.6992 19.1868L18.5988 19.0828C18.4424 18.9206 18.3145 18.7814 18.3145 18.7734C18.3145 18.7536 18.4847 18.5337 18.5749 18.4371C18.704 18.2988 18.861 18.2565 19.0119 18.3195Z" fill="white"/>
</svg>
