<svg width="143" height="43" viewBox="0 0 143 43" fill="none" xmlns="http://www.w3.org/2000/svg">
<path d="M56.7585 29H52.1339V15.9542H56.7967C58.1089 15.9542 59.2386 16.2154 60.1856 16.7377C61.1326 17.2558 61.8609 18.0011 62.3705 18.9736C62.8843 19.9461 63.1413 21.1097 63.1413 22.4644C63.1413 23.8233 62.8843 24.9911 62.3705 25.9679C61.8609 26.9446 61.1283 27.6941 60.1728 28.2165C59.2216 28.7388 58.0835 29 56.7585 29ZM54.8921 26.6367H56.6438C57.4592 26.6367 58.145 26.4923 58.7014 26.2036C59.2619 25.9105 59.6823 25.4583 59.9626 24.8467C60.2471 24.231 60.3894 23.4369 60.3894 22.4644C60.3894 21.5004 60.2471 20.7126 59.9626 20.1011C59.6823 19.4896 59.264 19.0394 58.7077 18.7506C58.1514 18.4619 57.4656 18.3175 56.6502 18.3175H54.8921V26.6367ZM69.5925 29.1911C68.586 29.1911 67.7197 28.9873 66.9935 28.5796C66.2716 28.1677 65.7153 27.5859 65.3246 26.8342C64.9339 26.0783 64.7385 25.1844 64.7385 24.1524C64.7385 23.146 64.9339 22.2626 65.3246 21.5025C65.7153 20.7423 66.2652 20.1499 66.9744 19.7253C67.6879 19.3006 68.5245 19.0883 69.4842 19.0883C70.1297 19.0883 70.7306 19.1923 71.2869 19.4004C71.8475 19.6042 72.3358 19.9121 72.752 20.324C73.1724 20.736 73.4994 21.2541 73.733 21.8783C73.9666 22.4983 74.0834 23.2245 74.0834 24.0569V24.8022H65.8214V23.1205H71.529C71.529 22.7298 71.444 22.3837 71.2742 22.0822C71.1043 21.7806 70.8686 21.545 70.5671 21.3751C70.2698 21.201 69.9237 21.1139 69.5288 21.1139C69.1169 21.1139 68.7517 21.2095 68.4331 21.4006C68.1189 21.5874 67.8726 21.8401 67.6942 22.1586C67.5159 22.4729 67.4246 22.8232 67.4203 23.2097V24.8085C67.4203 25.2926 67.5095 25.7109 67.6879 26.0634C67.8705 26.4159 68.1274 26.6877 68.4586 26.8788C68.7899 27.0699 69.1827 27.1654 69.6371 27.1654C69.9386 27.1654 70.2146 27.123 70.4652 27.038C70.7157 26.9531 70.9302 26.8257 71.1086 26.6558C71.2869 26.486 71.4228 26.2779 71.5162 26.0316L74.026 26.1972C73.8986 26.8002 73.6375 27.3268 73.2425 27.777C72.8518 28.2229 72.3465 28.5711 71.7264 28.8216C71.1107 29.0679 70.3994 29.1911 69.5925 29.1911ZM83.9951 22.0057L81.5108 22.1586C81.4683 21.9463 81.377 21.7552 81.2369 21.5853C81.0967 21.4112 80.912 21.2732 80.6827 21.1712C80.4576 21.0651 80.188 21.012 79.8737 21.012C79.4533 21.012 79.0987 21.1012 78.8099 21.2795C78.5211 21.4537 78.3767 21.6872 78.3767 21.9802C78.3767 22.2138 78.4702 22.4113 78.657 22.5727C78.8439 22.734 79.1645 22.8635 79.6189 22.9612L81.3898 23.3179C82.341 23.5133 83.0502 23.8275 83.5174 24.2607C83.9845 24.6939 84.2181 25.2629 84.2181 25.9679C84.2181 26.6091 84.0291 27.1718 83.6511 27.6559C83.2774 28.14 82.7636 28.518 82.1096 28.7898C81.4598 29.0573 80.7103 29.1911 79.861 29.1911C78.5657 29.1911 77.5338 28.9214 76.7651 28.3821C76.0007 27.8385 75.5527 27.0996 75.4211 26.1653L78.0901 26.0252C78.1708 26.4201 78.3661 26.7217 78.6761 26.9297C78.9861 27.1336 79.3832 27.2355 79.8673 27.2355C80.343 27.2355 80.7252 27.1442 81.0139 26.9616C81.307 26.7747 81.4556 26.5348 81.4598 26.2418C81.4556 25.9955 81.3515 25.7938 81.1477 25.6366C80.9439 25.4753 80.6296 25.3521 80.2049 25.2672L78.5105 24.9296C77.555 24.7385 76.8437 24.4072 76.3766 23.9358C75.9137 23.4645 75.6822 22.8635 75.6822 22.1331C75.6822 21.5046 75.8521 20.9632 76.1918 20.5088C76.5358 20.0544 77.0178 19.704 77.6378 19.4577C78.2621 19.2114 78.9925 19.0883 79.8291 19.0883C81.0649 19.0883 82.0374 19.3494 82.7466 19.8718C83.46 20.3941 83.8762 21.1054 83.9951 22.0057ZM85.9268 29V19.2157H88.6404V29H85.9268ZM87.29 17.9544C86.8866 17.9544 86.5405 17.8206 86.2517 17.5531C85.9672 17.2813 85.8249 16.9564 85.8249 16.5785C85.8249 16.2048 85.9672 15.8841 86.2517 15.6166C86.5405 15.3448 86.8866 15.2089 87.29 15.2089C87.6934 15.2089 88.0374 15.3448 88.3219 15.6166C88.6107 15.8841 88.7551 16.2048 88.7551 16.5785C88.7551 16.9564 88.6107 17.2813 88.3219 17.5531C88.0374 17.8206 87.6934 17.9544 87.29 17.9544ZM95.2223 32.873C94.3432 32.873 93.5894 32.7519 92.9609 32.5099C92.3366 32.2721 91.8398 31.9472 91.4703 31.5353C91.1009 31.1233 90.8609 30.6605 90.7505 30.1466L93.2603 29.809C93.3367 30.0043 93.4578 30.1869 93.6234 30.3568C93.789 30.5267 94.0077 30.6626 94.2795 30.7645C94.5555 30.8707 94.891 30.9237 95.286 30.9237C95.8763 30.9237 96.3625 30.7794 96.7447 30.4906C97.1311 30.2061 97.3244 29.7283 97.3244 29.0573V27.2674H97.2097C97.0908 27.5391 96.9124 27.7961 96.6746 28.0381C96.4368 28.2802 96.1311 28.4777 95.7573 28.6305C95.3836 28.7834 94.9377 28.8599 94.4196 28.8599C93.685 28.8599 93.0161 28.69 92.4131 28.3503C91.8143 28.0063 91.3366 27.4818 90.9798 26.7769C90.6274 26.0677 90.4511 25.1716 90.4511 24.0887C90.4511 22.9803 90.6316 22.0546 90.9926 21.3114C91.3535 20.5682 91.8334 20.0119 92.4322 19.6424C93.0352 19.273 93.6956 19.0883 94.4133 19.0883C94.9611 19.0883 95.4197 19.1817 95.7892 19.3685C96.1587 19.5511 96.4559 19.7805 96.681 20.0565C96.9103 20.3283 97.0866 20.5958 97.2097 20.8591H97.3116V19.2157H100.006V29.0956C100.006 29.9279 99.8023 30.6244 99.3946 31.1849C98.9869 31.7455 98.4221 32.1659 97.7002 32.4462C96.9825 32.7307 96.1565 32.873 95.2223 32.873ZM95.2796 26.8215C95.717 26.8215 96.0865 26.7132 96.388 26.4966C96.6937 26.2758 96.9273 25.9615 97.0887 25.5538C97.2543 25.1419 97.3371 24.6493 97.3371 24.076C97.3371 23.5027 97.2564 23.0058 97.095 22.5854C96.9337 22.1607 96.7001 21.8316 96.3943 21.598C96.0886 21.3645 95.717 21.2477 95.2796 21.2477C94.8337 21.2477 94.4579 21.3687 94.1521 21.6108C93.8463 21.8486 93.6149 22.1798 93.4578 22.6045C93.3006 23.0292 93.2221 23.5197 93.2221 24.076C93.2221 24.6408 93.3006 25.1292 93.4578 25.5411C93.6191 25.9488 93.8506 26.2651 94.1521 26.4902C94.4579 26.711 94.8337 26.8215 95.2796 26.8215ZM104.879 23.3434V29H102.166V19.2157H104.752V20.9419H104.866C105.083 20.3729 105.446 19.9227 105.956 19.5915C106.465 19.256 107.083 19.0883 107.809 19.0883C108.489 19.0883 109.081 19.2369 109.587 19.5342C110.092 19.8314 110.485 20.2561 110.765 20.8082C111.045 21.356 111.186 22.01 111.186 22.7701V29H108.472V23.2542C108.476 22.6555 108.323 22.1883 108.013 21.8528C107.703 21.5131 107.276 21.3432 106.733 21.3432C106.368 21.3432 106.045 21.4218 105.765 21.5789C105.489 21.7361 105.272 21.9654 105.115 22.2669C104.962 22.5642 104.883 22.923 104.879 23.3434ZM113.324 32.6691V19.2157H116V20.8591H116.121C116.24 20.5958 116.412 20.3283 116.637 20.0565C116.866 19.7805 117.163 19.5511 117.528 19.3685C117.898 19.1817 118.357 19.0883 118.904 19.0883C119.618 19.0883 120.276 19.2751 120.879 19.6488C121.482 20.0183 121.964 20.5767 122.325 21.3241C122.686 22.0673 122.867 22.9994 122.867 24.1206C122.867 25.212 122.69 26.1335 122.338 26.8852C121.99 27.6326 121.514 28.1995 120.911 28.5859C120.312 28.9681 119.641 29.1593 118.898 29.1593C118.371 29.1593 117.923 29.0722 117.554 28.8981C117.189 28.724 116.889 28.5053 116.656 28.242C116.422 27.9744 116.244 27.7048 116.121 27.433H116.038V32.6691H113.324ZM115.981 24.1078C115.981 24.6896 116.061 25.1971 116.223 25.6303C116.384 26.0634 116.618 26.401 116.923 26.6431C117.229 26.8809 117.601 26.9998 118.038 26.9998C118.48 26.9998 118.853 26.8788 119.159 26.6367C119.465 26.3904 119.696 26.0507 119.854 25.6175C120.015 25.1801 120.096 24.6769 120.096 24.1078C120.096 23.543 120.017 23.0462 119.86 22.6172C119.703 22.1883 119.471 21.8528 119.166 21.6108C118.86 21.3687 118.484 21.2477 118.038 21.2477C117.596 21.2477 117.223 21.3645 116.917 21.598C116.615 21.8316 116.384 22.1628 116.223 22.5918C116.061 23.0207 115.981 23.526 115.981 24.1078ZM127.466 29.1847C126.841 29.1847 126.285 29.0764 125.797 28.8599C125.308 28.639 124.922 28.3142 124.637 27.8852C124.357 27.4521 124.217 26.9128 124.217 26.2673C124.217 25.7237 124.317 25.2672 124.516 24.8977C124.716 24.5282 124.988 24.231 125.332 24.0059C125.676 23.7808 126.066 23.611 126.504 23.4963C126.945 23.3816 127.408 23.301 127.892 23.2542C128.462 23.1948 128.92 23.1396 129.268 23.0886C129.617 23.0334 129.869 22.9527 130.026 22.8466C130.184 22.7404 130.262 22.5833 130.262 22.3752V22.337C130.262 21.9335 130.135 21.6214 129.88 21.4006C129.629 21.1797 129.273 21.0693 128.81 21.0693C128.321 21.0693 127.933 21.1776 127.644 21.3942C127.355 21.6065 127.164 21.8741 127.071 22.1968L124.561 21.993C124.688 21.3984 124.939 20.8846 125.313 20.4514C125.686 20.014 126.168 19.6785 126.759 19.445C127.353 19.2072 128.041 19.0883 128.823 19.0883C129.366 19.0883 129.886 19.152 130.383 19.2794C130.884 19.4068 131.328 19.6042 131.715 19.8718C132.105 20.1393 132.413 20.4833 132.638 20.9037C132.863 21.3199 132.976 21.8189 132.976 22.4007V29H130.402V27.6432H130.326C130.169 27.9489 129.959 28.2186 129.695 28.4522C129.432 28.6815 129.116 28.862 128.746 28.9936C128.377 29.121 127.95 29.1847 127.466 29.1847ZM128.243 27.3119C128.642 27.3119 128.995 27.2334 129.3 27.0763C129.606 26.9149 129.846 26.6983 130.02 26.4265C130.194 26.1547 130.281 25.8468 130.281 25.5029V24.4645C130.196 24.5198 130.08 24.5707 129.931 24.6174C129.787 24.6599 129.623 24.7002 129.44 24.7385C129.258 24.7724 129.075 24.8043 128.893 24.834C128.71 24.8595 128.544 24.8828 128.396 24.9041C128.077 24.9508 127.799 25.0251 127.561 25.127C127.323 25.2289 127.139 25.367 127.007 25.5411C126.875 25.7109 126.81 25.9233 126.81 26.1781C126.81 26.5475 126.943 26.8299 127.211 27.0253C127.483 27.2164 127.827 27.3119 128.243 27.3119ZM137.795 15.9542V29H135.081V15.9542H137.795Z" fill="black"/>
<path fill-rule="evenodd" clip-rule="evenodd" d="M0 21.5V37.84C0 40.6898 2.31021 43 5.16 43H21.5H37.84C40.6898 43 43 40.6898 43 37.84V21.5V5.16C43 2.31021 40.6898 0 37.84 0H21.5H5.16C2.31021 0 0 2.31021 0 5.16V21.5ZM23.1062 13.906C24.8097 14.2181 26.342 15.1941 27.4861 16.6955C28.359 17.8411 28.9049 19.165 29.0979 20.6042C29.1427 20.9385 29.1493 21.9475 29.1087 22.2764C28.8657 24.2488 27.9607 26.0933 26.574 27.4427C26.2393 27.7684 25.9725 27.9845 25.5882 28.2413C24.9394 28.6747 24.2756 28.9475 23.528 29.088C23.3642 29.1188 23.1978 29.1344 23.0311 29.1346L18.5686 29.1397C15.9666 29.1427 13.8556 27.0342 13.8556 24.4321V21.5004V18.3433C13.8556 15.8648 15.8648 13.8556 18.3433 13.8556H22.5515C22.7376 13.8556 22.9232 13.8724 23.1062 13.906ZM18.028 14.3627C17.7239 14.4877 17.3559 14.7564 16.2579 15.6547C14.6888 16.9386 14.4928 17.1016 14.4626 17.1477C14.4102 17.2276 14.4038 17.3628 14.4478 17.4607C14.4777 17.5272 15.2408 18.5496 15.3279 18.6399C15.3366 18.6489 16.2385 17.9509 17.3319 17.0887C18.4255 16.2264 19.3233 15.5186 19.3271 15.5157C19.3344 15.5103 18.6881 14.6574 18.5458 14.4847C18.4041 14.3127 18.2423 14.2746 18.028 14.3627ZM18.9917 16.676C18.5701 17.0093 18.2086 17.2943 18.1882 17.3092C18.1533 17.3346 18.1597 17.348 18.296 17.5359L18.3879 17.6625C18.4169 17.7025 18.4732 17.7105 18.5122 17.6803C18.5515 17.6498 18.813 17.4492 19.0935 17.2344C19.4098 16.9921 19.8301 16.9337 20.2006 17.0803L20.802 17.3184C21.5305 17.6069 22.0203 17.8114 22.0508 17.8399C22.1589 17.9409 22.1095 17.6631 22.9518 22.9035C23.0732 23.659 23.1763 24.2933 23.1808 24.3131C23.1853 24.3328 23.1825 24.3463 23.1746 24.3429C23.161 24.3371 22.5808 23.7304 21.3021 22.3849C20.9894 22.0559 20.7122 21.7629 20.6861 21.7338C20.659 21.7035 20.6586 21.6578 20.6852 21.6272L20.8821 21.4006C21.2627 20.9624 21.3536 20.774 21.337 20.4574C21.3253 20.2353 21.2482 20.0697 21.0773 19.8998C20.7301 19.5546 20.2875 19.493 19.9184 19.7385C19.7756 19.8336 19.7161 19.901 19.322 20.4143L19.1322 20.6614C19.0396 20.782 19.0496 20.9522 19.1555 21.0612C19.3487 21.26 19.6602 21.5774 21.3341 23.2817C22.2904 24.2554 22.4732 24.4463 22.4492 24.4463C22.4437 24.4463 22.0913 24.2891 21.666 24.0971C21.2408 23.905 20.0149 23.3526 18.9419 22.8694C17.8689 22.3862 16.9671 21.9744 16.9379 21.9543C16.821 21.8737 16.8137 21.8357 16.6635 20.5184C16.5863 19.8417 16.5234 19.2684 16.5237 19.2444C16.5242 19.2106 16.6786 19.083 17.2006 18.6846C17.5725 18.4008 17.8769 18.1625 17.8769 18.1551C17.8769 18.1453 17.6828 17.8765 17.6061 17.7801C17.6029 17.7761 17.1832 18.1023 16.6733 18.5049C15.7626 19.2239 15.7463 19.238 15.7565 19.2984C15.7622 19.3323 15.83 19.9198 15.907 20.6042C15.9841 21.2885 16.061 21.8976 16.0779 21.9579C16.1597 22.2488 16.3809 22.5263 16.6376 22.6599C16.7115 22.6984 17.6141 23.1083 18.6433 23.5708C19.6725 24.0334 21.3474 24.7865 22.3653 25.2443C23.3831 25.7022 24.219 26.0737 24.2228 26.07C24.2266 26.0662 24.0452 24.9177 23.8197 23.5178C23.5941 22.1178 23.2973 20.2737 23.16 19.4197C23.0025 18.4398 22.8937 17.8184 22.8651 17.7355C22.7843 17.5004 22.5841 17.2567 22.369 17.1313C22.3235 17.1048 21.7264 16.8621 21.0421 16.5919C20.3578 16.3218 19.789 16.0938 19.778 16.0853C19.7667 16.0765 19.4284 16.3305 18.9917 16.676ZM20.4773 20.1984C20.5995 20.2494 20.6964 20.3379 20.7519 20.4492C20.8506 20.6473 20.8047 20.7828 20.5188 21.1375C20.4215 21.2583 20.2402 21.2664 20.1325 21.1547L20.0219 21.04C19.8494 20.8612 19.7083 20.7077 19.7083 20.6989C19.7083 20.6771 19.8961 20.4346 19.9955 20.3281C20.1378 20.1756 20.311 20.129 20.4773 20.1984Z" fill="black"/>
</svg>
