<svg width="184" height="26" viewBox="0 0 184 26" fill="none" xmlns="http://www.w3.org/2000/svg">
<path d="M10.7051 25.7092C9.13133 25.7092 7.72034 25.465 6.47219 24.9765C5.22405 24.4881 4.15679 23.8007 3.27043 22.9144C2.40215 22.0281 1.7419 20.9788 1.28966 19.7669C0.837442 18.555 0.611328 17.2435 0.611328 15.8325C0.611328 14.4035 0.855527 13.092 1.34394 11.8981C1.85043 10.6862 2.57399 9.63697 3.51462 8.75063C4.45526 7.86427 5.55869 7.17688 6.82494 6.68848C8.10926 6.20007 9.52926 5.95587 11.085 5.95587C12.1522 5.95587 13.1561 6.09154 14.0968 6.36287C15.0555 6.63421 15.9147 7.00503 16.6745 7.47535C17.4342 7.94567 18.0854 8.47025 18.6281 9.0491L15.4263 12.4679C15.0283 12.0881 14.6033 11.7625 14.1511 11.4911C13.7169 11.2198 13.2375 11.0027 12.713 10.8399C12.2064 10.6771 11.6366 10.5957 11.0036 10.5957C10.2981 10.5957 9.64687 10.7314 9.04993 11.0027C8.47104 11.256 7.96455 11.6177 7.53041 12.0881C7.09627 12.5403 6.75257 13.092 6.49933 13.7432C6.26417 14.3764 6.1466 15.0728 6.1466 15.8325C6.1466 16.5742 6.27322 17.2706 6.52647 17.9218C6.77971 18.555 7.13245 19.1066 7.58468 19.577C8.0369 20.0473 8.57051 20.4181 9.1856 20.6894C9.81866 20.9427 10.497 21.0693 11.2206 21.0693C11.7271 21.0693 12.1974 20.9879 12.6316 20.8251C13.0657 20.6623 13.4365 20.4452 13.744 20.1739C14.0697 19.8845 14.3228 19.5498 14.5038 19.17C14.6847 18.772 14.7751 18.3469 14.7751 17.8947V17.1349L15.4806 18.2745H10.488V14.3673H19.6592C19.6772 14.5663 19.6953 14.8738 19.7135 15.2898C19.7496 15.6878 19.7677 16.0858 19.7677 16.4837C19.7858 16.8817 19.7949 17.1621 19.7949 17.3249C19.7949 18.5368 19.5687 19.6584 19.1165 20.6894C18.6642 21.7205 18.0312 22.6068 17.2172 23.3485C16.4031 24.0902 15.4444 24.669 14.341 25.0851C13.2375 25.5012 12.0256 25.7092 10.7051 25.7092ZM29.3312 25.7092C27.6851 25.7092 26.2651 25.3926 25.0712 24.7595C23.8774 24.1083 22.9548 23.2219 22.3036 22.1004C21.6524 20.9608 21.3268 19.6674 21.3268 18.2203C21.3268 17.1349 21.5077 16.131 21.8695 15.2084C22.2313 14.2859 22.7377 13.4899 23.389 12.8207C24.0402 12.1333 24.809 11.6087 25.6953 11.2469C26.5998 10.8671 27.5856 10.6771 28.6529 10.6771C29.702 10.6771 30.6517 10.858 31.5019 11.2198C32.3702 11.5816 33.1119 12.0971 33.7269 12.7664C34.36 13.4357 34.8394 14.2226 35.165 15.127C35.5086 16.0315 35.6624 17.0264 35.6262 18.1117L35.5991 19.2514H24.203L23.5789 16.7279H31.5562L31.0678 17.2706V16.7551C31.0678 16.3571 30.9592 16.0134 30.7422 15.724C30.5432 15.4164 30.2718 15.1813 29.9282 15.0185C29.5845 14.8557 29.1956 14.7743 28.7614 14.7743C28.1464 14.7743 27.6309 14.9009 27.2148 15.1542C26.8169 15.3893 26.5093 15.7331 26.2923 16.1853C26.0752 16.6374 25.9667 17.1801 25.9667 17.8133C25.9667 18.5368 26.1114 19.1609 26.4008 19.6855C26.7083 20.2101 27.1515 20.6171 27.7303 20.9065C28.3273 21.1959 29.0508 21.3406 29.901 21.3406C30.4618 21.3406 30.9502 21.2683 31.3662 21.1236C31.8004 20.9788 32.2617 20.7256 32.7501 20.3638L35.0836 23.647C34.4504 24.1535 33.8083 24.5605 33.1571 24.868C32.5239 25.1574 31.8909 25.3655 31.2577 25.4921C30.6246 25.6368 29.9824 25.7092 29.3312 25.7092ZM37.8325 25.4378V10.9756H42.5538L42.7709 13.906L41.7398 14.2316C41.9206 13.5442 42.2734 12.9383 42.798 12.4137C43.3226 11.871 43.9467 11.4459 44.6702 11.1384C45.3937 10.8309 46.1535 10.6771 46.9494 10.6771C48.0348 10.6771 48.9483 10.9033 49.6899 11.3555C50.4497 11.7896 51.0195 12.4499 51.3994 13.3362C51.7973 14.2045 51.9963 15.2718 51.9963 16.538V25.4378H46.9494V16.945C46.9494 16.4746 46.8771 16.0858 46.7324 15.7782C46.5876 15.4526 46.3706 15.2084 46.0812 15.0456C45.7918 14.8828 45.448 14.8105 45.0501 14.8286C44.7425 14.8286 44.4531 14.8738 44.1818 14.9642C43.9285 15.0547 43.7025 15.1994 43.5035 15.3984C43.3045 15.5792 43.1507 15.7873 43.0422 16.0224C42.9517 16.2576 42.9065 16.5199 42.9065 16.8093V25.4378H40.3831C39.7681 25.4378 39.2435 25.4378 38.8093 25.4378C38.3933 25.4378 38.0677 25.4378 37.8325 25.4378ZM55.373 25.4378V20.8438L68.4073 3.60711L71.2207 6.8835H56.2989V0.508789H75.4587V5.06724L62.4956 22.3395L59.6465 19.4192H75.8504V25.4378H55.373ZM80.3886 25.4378V7.31255H85.4358V25.4378H80.3886ZM78.0008 15.2627V10.9756H87.9592V15.2627H78.0008ZM96.8523 25.7092C95.2065 25.7092 93.7862 25.3926 92.5923 24.7595C91.3984 24.1083 90.4759 23.2219 89.8247 22.1004C89.1735 20.9608 88.8479 19.6674 88.8479 18.2203C88.8479 17.1349 89.0285 16.131 89.3905 15.2084C89.7526 14.2859 90.2588 13.4899 90.91 12.8207C91.5612 12.1333 92.3303 11.6087 93.2164 11.2469C94.1211 10.8671 95.1064 10.6771 96.1739 10.6771C97.2228 10.6771 98.1725 10.858 99.023 11.2198C99.8912 11.5816 100.633 12.0971 101.248 12.7664C101.881 13.4357 102.36 14.2226 102.686 15.127C103.029 16.0315 103.184 17.0264 103.147 18.1117L103.12 19.2514H91.724L91.1 16.7279H99.0772L98.5888 17.2706V16.7551C98.5888 16.3571 98.4803 16.0134 98.2632 15.724C98.064 15.4164 97.7926 15.1813 97.4492 15.0185C97.1058 14.8557 96.7166 14.7743 96.2825 14.7743C95.6677 14.7743 95.1522 14.9009 94.7359 15.1542C94.3382 15.3893 94.0304 15.7331 93.8133 16.1853C93.5962 16.6374 93.4877 17.1801 93.4877 17.8133C93.4877 18.5368 93.6327 19.1609 93.9218 19.6855C94.2296 20.2101 94.6723 20.6171 95.2514 20.9065C95.8483 21.1959 96.5716 21.3406 97.4221 21.3406C97.9826 21.3406 98.471 21.2683 98.8873 21.1236C99.3214 20.9788 99.7827 20.7256 100.271 20.3638L102.605 23.647C101.971 24.1535 101.329 24.5605 100.678 24.868C100.045 25.1574 99.4122 25.3655 98.7788 25.4921C98.1454 25.6368 97.5035 25.7092 96.8523 25.7092ZM111.811 25.7092C110.383 25.7092 109.098 25.3836 107.958 24.7323C106.837 24.0811 105.951 23.1948 105.299 22.0732C104.648 20.9336 104.323 19.6403 104.323 18.1931C104.323 16.746 104.648 15.4617 105.299 14.3402C105.951 13.2006 106.837 12.3051 107.958 11.6539C109.098 11.0027 110.383 10.6771 111.811 10.6771C113.114 10.6771 114.308 10.8851 115.393 11.3012C116.496 11.7173 117.374 12.3142 118.025 13.092L115.285 16.3481C115.085 16.0948 114.833 15.8687 114.525 15.6697C114.217 15.4526 113.874 15.2898 113.494 15.1813C113.132 15.0547 112.725 14.9914 112.273 14.9914C111.676 14.9914 111.151 15.127 110.699 15.3984C110.247 15.6697 109.894 16.0496 109.641 16.538C109.406 17.0083 109.288 17.551 109.288 18.166C109.288 18.781 109.406 19.3237 109.641 19.794C109.876 20.2644 110.22 20.6442 110.672 20.9336C111.142 21.223 111.676 21.3678 112.273 21.3678C112.725 21.3678 113.132 21.3135 113.494 21.205C113.874 21.0964 114.208 20.9427 114.498 20.7437C114.805 20.5447 115.067 20.3096 115.285 20.0382L118.025 23.3214C117.356 24.0811 116.469 24.669 115.366 25.0851C114.281 25.5012 113.096 25.7092 111.811 25.7092ZM119.848 25.4378V5.35893H124.786V13.906L123.755 14.2316C123.936 13.5442 124.289 12.9383 124.813 12.4137C125.338 11.871 125.962 11.4459 126.686 11.1384C127.409 10.8309 128.169 10.6771 128.965 10.6771C130.05 10.6771 130.964 10.9033 131.705 11.3555C132.465 11.7896 133.035 12.4499 133.415 13.3362C133.813 14.2045 134.012 15.2718 134.012 16.538V25.4378H128.965V16.945C128.965 16.4746 128.892 16.0858 128.748 15.7782C128.603 15.4526 128.386 15.2084 128.097 15.0456C127.807 14.8828 127.463 14.8105 127.066 14.8286C126.758 14.8286 126.469 14.8738 126.197 14.9642C125.944 15.0547 125.717 15.1994 125.519 15.3984C125.32 15.5792 125.166 15.7873 125.058 16.0224C124.967 16.2576 124.922 16.5199 124.922 16.8093V25.4378H122.399C121.783 25.4378 121.259 25.4378 120.825 25.4378C120.409 25.4378 120.083 25.4378 119.848 25.4378ZM137.314 25.4378V10.9756H142.36V25.4378H137.314ZM139.837 8.23509C138.915 8.23509 138.2 8.02707 137.693 7.61102C137.187 7.17688 136.934 6.5709 136.934 5.79307C136.934 5.06951 137.187 4.48161 137.693 4.02938C138.218 3.55906 138.932 3.32391 139.837 3.32391C140.742 3.32391 141.447 3.54098 141.953 3.97511C142.478 4.39117 142.74 4.99714 142.74 5.79307C142.74 6.51663 142.478 7.10453 141.953 7.55675C141.429 8.00898 140.723 8.23509 139.837 8.23509ZM152.869 25.7092C151.222 25.7092 149.803 25.3926 148.609 24.7595C147.415 24.1083 146.492 23.2219 145.841 22.1004C145.19 20.9608 144.864 19.6674 144.864 18.2203C144.864 17.1349 145.045 16.131 145.407 15.2084C145.768 14.2859 146.275 13.4899 146.927 12.8207C147.578 12.1333 148.346 11.6087 149.233 11.2469C150.137 10.8671 151.123 10.6771 152.19 10.6771C153.239 10.6771 154.189 10.858 155.04 11.2198C155.908 11.5816 156.649 12.0971 157.264 12.7664C157.897 13.4357 158.377 14.2226 158.703 15.127C159.046 16.0315 159.199 17.0264 159.164 18.1117L159.137 19.2514H147.741L147.117 16.7279H155.094L154.605 17.2706V16.7551C154.605 16.3571 154.497 16.0134 154.28 15.724C154.081 15.4164 153.809 15.1813 153.466 15.0185C153.122 14.8557 152.733 14.7743 152.299 14.7743C151.683 14.7743 151.168 14.9009 150.752 15.1542C150.354 15.3893 150.047 15.7331 149.83 16.1853C149.613 16.6374 149.504 17.1801 149.504 17.8133C149.504 18.5368 149.648 19.1609 149.938 19.6855C150.245 20.2101 150.689 20.6171 151.268 20.9065C151.865 21.1959 152.588 21.3406 153.439 21.3406C153.999 21.3406 154.488 21.2683 154.904 21.1236C155.338 20.9788 155.799 20.7256 156.288 20.3638L158.621 23.647C157.988 24.1535 157.346 24.5605 156.695 24.868C156.061 25.1574 155.428 25.3655 154.795 25.4921C154.162 25.6368 153.52 25.7092 152.869 25.7092ZM166.308 25.7092C164.807 25.7092 163.487 25.474 162.347 25.0037C161.207 24.5333 160.32 23.9274 159.688 23.1857L162.645 20.6352C163.224 21.1598 163.875 21.5486 164.599 21.8019C165.34 22.0552 165.991 22.1818 166.553 22.1818C166.751 22.1818 166.933 22.1637 167.095 22.1275C167.258 22.0913 167.384 22.037 167.475 21.9647C167.584 21.8742 167.665 21.7839 167.719 21.6934C167.791 21.5848 167.828 21.4672 167.828 21.3406C167.828 21.0331 167.674 20.798 167.367 20.6352C167.204 20.5628 166.933 20.4724 166.553 20.3638C166.191 20.2372 165.702 20.1016 165.087 19.9568C164.328 19.7578 163.649 19.5227 163.052 19.2514C162.455 18.962 161.948 18.6273 161.533 18.2474C161.134 17.8675 160.818 17.4334 160.583 16.945C160.366 16.4385 160.258 15.8868 160.258 15.2898C160.258 14.5663 160.42 13.9241 160.746 13.3634C161.072 12.8026 161.524 12.3232 162.103 11.9253C162.681 11.5092 163.332 11.2017 164.056 11.0027C164.78 10.7857 165.522 10.6771 166.281 10.6771C167.131 10.6771 167.927 10.7676 168.669 10.9485C169.429 11.1113 170.134 11.3555 170.786 11.6811C171.455 11.9886 172.051 12.3685 172.576 12.8207L169.971 15.6968C169.664 15.4255 169.302 15.1722 168.886 14.9371C168.488 14.702 168.072 14.512 167.638 14.3673C167.204 14.2045 166.797 14.1231 166.417 14.1231C166.181 14.1231 165.983 14.1412 165.82 14.1774C165.657 14.2136 165.522 14.2678 165.413 14.3402C165.305 14.4125 165.223 14.503 165.169 14.6115C165.115 14.72 165.087 14.8376 165.087 14.9642C165.087 15.127 165.132 15.2808 165.223 15.4255C165.313 15.5702 165.458 15.6878 165.657 15.7782C165.82 15.8687 166.091 15.9862 166.471 16.131C166.869 16.2576 167.439 16.4204 168.181 16.6194C169.012 16.8545 169.736 17.1259 170.351 17.4334C170.966 17.7409 171.464 18.0937 171.844 18.4916C172.115 18.7992 172.323 19.1428 172.468 19.5227C172.612 19.8845 172.685 20.2915 172.685 20.7437C172.685 21.7025 172.404 22.5617 171.844 23.3214C171.301 24.0631 170.55 24.6509 169.592 25.0851C168.633 25.5012 167.538 25.7092 166.308 25.7092ZM179.305 25.9788C177.83 25.9788 176.683 25.569 175.863 24.7493C175.076 23.9296 174.683 22.7658 174.683 21.2575C174.683 19.8805 175.109 18.7494 175.961 17.8641C176.813 16.9789 177.928 16.5363 179.305 16.5363C180.748 16.5363 181.879 16.9461 182.699 17.7658C183.519 18.5855 183.928 19.7493 183.928 21.2575C183.928 22.6346 183.502 23.7657 182.65 24.6509C181.798 25.5362 180.683 25.9788 179.305 25.9788Z" fill="white"/>
</svg>
