<svg width="234" height="27" viewBox="0 0 234 27" fill="none" xmlns="http://www.w3.org/2000/svg">
<path d="M8.17095 6.6535C9.3534 6.6535 10.3881 6.88445 11.2749 7.34635C12.1802 7.78977 12.8823 8.47337 13.3811 9.39717C13.8985 10.321 14.1571 11.4849 14.1571 12.8891V21.3418H12.1894V13.0831C12.1894 11.5496 11.8015 10.3949 11.0255 9.61888C10.268 8.82442 9.19636 8.42718 7.81067 8.42718C6.77602 8.42718 5.87071 8.63966 5.09472 9.0646C4.33721 9.47107 3.74599 10.0715 3.32104 10.866C2.91457 11.642 2.71134 12.5842 2.71134 13.6928V21.3418H0.743662V6.79207H2.6282V10.7829L2.32335 10.0346C2.78524 8.98146 3.52428 8.15929 4.54045 7.56806C5.55662 6.95836 6.76679 6.6535 8.17095 6.6535ZM25.4028 21.4804C23.9987 21.4804 22.7331 21.1663 21.6061 20.5381C20.4975 19.8914 19.6199 19.0138 18.9733 17.9053C18.3266 16.7783 18.0033 15.4942 18.0033 14.0531C18.0033 12.5935 18.3266 11.3094 18.9733 10.2009C19.6199 9.09232 20.4975 8.22395 21.6061 7.59577C22.7146 6.96759 23.9802 6.6535 25.4028 6.6535C26.844 6.6535 28.1188 6.96759 29.2273 7.59577C30.3544 8.22395 31.232 9.09232 31.8601 10.2009C32.5068 11.3094 32.8301 12.5935 32.8301 14.0531C32.8301 15.4942 32.5068 16.7783 31.8601 17.9053C31.232 19.0138 30.3544 19.8914 29.2273 20.5381C28.1003 21.1663 26.8255 21.4804 25.4028 21.4804ZM25.4028 19.7344C26.456 19.7344 27.389 19.5035 28.2019 19.0416C29.0149 18.5612 29.6523 17.8961 30.1142 17.0462C30.5946 16.1778 30.8347 15.1801 30.8347 14.0531C30.8347 12.9076 30.5946 11.9099 30.1142 11.06C29.6523 10.2101 29.0149 9.55421 28.2019 9.09231C27.389 8.61194 26.4652 8.37176 25.4306 8.37176C24.3959 8.37176 23.4721 8.61194 22.6592 9.09231C21.8462 9.55421 21.1996 10.2101 20.7192 11.06C20.2388 11.9099 19.9987 12.9076 19.9987 14.0531C19.9987 15.1801 20.2388 16.1778 20.7192 17.0462C21.1996 17.8961 21.8462 18.5612 22.6592 19.0416C23.4721 19.5035 24.3867 19.7344 25.4028 19.7344ZM42.8889 21.4804C41.4478 21.4804 40.1545 21.1663 39.009 20.5381C37.882 19.8914 36.9951 19.0138 36.3485 17.9053C35.7018 16.7783 35.3785 15.4942 35.3785 14.0531C35.3785 12.5935 35.7018 11.3094 36.3485 10.2009C36.9951 9.09232 37.882 8.22395 39.009 7.59577C40.1545 6.96759 41.4478 6.6535 42.8889 6.6535C44.1268 6.6535 45.2446 6.89369 46.2423 7.37406C47.24 7.85443 48.0252 8.57499 48.598 9.53573L47.1291 10.5334C46.6303 9.7944 46.0113 9.24936 45.2723 8.89832C44.5333 8.54728 43.7296 8.37176 42.8612 8.37176C41.8266 8.37176 40.8935 8.61194 40.0621 9.09231C39.2307 9.55421 38.5748 10.2101 38.0944 11.06C37.6141 11.9099 37.3739 12.9076 37.3739 14.0531C37.3739 15.1986 37.6141 16.1963 38.0944 17.0462C38.5748 17.8961 39.2307 18.5612 40.0621 19.0416C40.8935 19.5035 41.8266 19.7344 42.8612 19.7344C43.7296 19.7344 44.5333 19.5589 45.2723 19.2078C46.0113 18.8568 46.6303 18.321 47.1291 17.6004L48.598 18.5981C48.0252 19.5404 47.24 20.261 46.2423 20.7598C45.2446 21.2402 44.1268 21.4804 42.8889 21.4804ZM58.1505 21.4804C56.7464 21.4804 55.4808 21.1663 54.3538 20.5381C53.2452 19.8914 52.3676 19.0138 51.721 17.9053C51.0743 16.7783 50.751 15.4942 50.751 14.0531C50.751 12.5935 51.0743 11.3094 51.721 10.2009C52.3676 9.09232 53.2452 8.22395 54.3538 7.59577C55.4623 6.96759 56.7279 6.6535 58.1505 6.6535C59.5917 6.6535 60.8665 6.96759 61.975 7.59577C63.1021 8.22395 63.9797 9.09232 64.6079 10.2009C65.2545 11.3094 65.5778 12.5935 65.5778 14.0531C65.5778 15.4942 65.2545 16.7783 64.6079 17.9053C63.9797 19.0138 63.1021 19.8914 61.975 20.5381C60.848 21.1663 59.5732 21.4804 58.1505 21.4804ZM58.1505 19.7344C59.2037 19.7344 60.1367 19.5035 60.9496 19.0416C61.7626 18.5612 62.4 17.8961 62.8619 17.0462C63.3423 16.1778 63.5824 15.1801 63.5824 14.0531C63.5824 12.9076 63.3423 11.9099 62.8619 11.06C62.4 10.2101 61.7626 9.55421 60.9496 9.09231C60.1367 8.61194 59.2129 8.37176 58.1783 8.37176C57.1436 8.37176 56.2198 8.61194 55.4069 9.09231C54.5939 9.55421 53.9473 10.2101 53.4669 11.06C52.9865 11.9099 52.7464 12.9076 52.7464 14.0531C52.7464 15.1801 52.9865 16.1778 53.4669 17.0462C53.9473 17.8961 54.5939 18.5612 55.4069 19.0416C56.2198 19.5035 57.1344 19.7344 58.1505 19.7344ZM75.3872 21.4804C74.0015 21.4804 72.7544 21.1663 71.6458 20.5381C70.5558 19.9099 69.6966 19.0416 69.0685 17.933C68.4403 16.806 68.1262 15.5127 68.1262 14.0531C68.1262 12.575 68.4403 11.2817 69.0685 10.1732C69.6966 9.0646 70.5558 8.20547 71.6458 7.59577C72.7544 6.96759 74.0015 6.6535 75.3872 6.6535C76.662 6.6535 77.7983 6.93988 78.796 7.51263C79.8122 8.08538 80.6159 8.92603 81.2071 10.0346C81.8168 11.1247 82.1216 12.4642 82.1216 14.0531C82.1216 15.6235 81.826 16.963 81.2348 18.0716C80.6436 19.1801 79.8399 20.03 78.8237 20.6212C77.826 21.194 76.6805 21.4804 75.3872 21.4804ZM75.5258 19.7344C76.5604 19.7344 77.4842 19.5035 78.2971 19.0416C79.1286 18.5612 79.7752 17.8961 80.2371 17.0462C80.7175 16.1778 80.9577 15.1801 80.9577 14.0531C80.9577 12.9076 80.7175 11.9099 80.2371 11.06C79.7752 10.2101 79.1286 9.55421 78.2971 9.09231C77.4842 8.61194 76.5604 8.37176 75.5258 8.37176C74.5096 8.37176 73.595 8.61194 72.7821 9.09231C71.9692 9.55421 71.3225 10.2101 70.8421 11.06C70.3618 11.9099 70.1216 12.9076 70.1216 14.0531C70.1216 15.1801 70.3618 16.1778 70.8421 17.0462C71.3225 17.8961 71.9692 18.5612 72.7821 19.0416C73.595 19.5035 74.5096 19.7344 75.5258 19.7344ZM81.0131 21.3418V16.963L81.2071 14.0254L80.93 11.0877V0.778187H82.8976V21.3418H81.0131ZM94.5578 21.4804C93.0427 21.4804 91.7125 21.1663 90.567 20.5381C89.4215 19.8914 88.5254 19.0138 87.8787 17.9053C87.2321 16.7783 86.9088 15.4942 86.9088 14.0531C86.9088 12.612 87.2136 11.3371 87.8233 10.2286C88.4515 9.12003 89.3014 8.25166 90.373 7.62349C91.4631 6.97683 92.6825 6.6535 94.0312 6.6535C95.3984 6.6535 96.6086 6.96759 97.6617 7.59577C98.7333 8.20547 99.574 9.07384 100.184 10.2009C100.793 11.3094 101.098 12.5935 101.098 14.0531C101.098 14.1455 101.089 14.2471 101.07 14.3579C101.07 14.4503 101.07 14.5519 101.07 14.6628H88.4053V13.194H100.017L99.2414 13.7759C99.2414 12.7228 99.0104 11.7898 98.5485 10.9769C98.1051 10.1454 97.4954 9.49878 96.7194 9.03689C95.9435 8.57499 95.0474 8.34404 94.0312 8.34404C93.0335 8.34404 92.1374 8.57499 91.343 9.03689C90.5485 9.49878 89.9296 10.1454 89.4861 10.9769C89.0427 11.8083 88.821 12.7598 88.821 13.8314V14.1362C88.821 15.2448 89.0612 16.224 89.5416 17.0739C90.0404 17.9053 90.724 18.5612 91.5924 19.0416C92.4792 19.5035 93.4862 19.7344 94.6132 19.7344C95.5 19.7344 96.3222 19.5774 97.0797 19.2633C97.8557 18.9492 98.5208 18.4688 99.0751 17.8221L100.184 19.097C99.537 19.873 98.7241 20.4642 97.7448 20.8707C96.7841 21.2771 95.7217 21.4804 94.5578 21.4804ZM102.415 21.3418L111.283 1.94216H113.307L122.175 21.3418H120.013L111.865 3.13386H112.697L104.549 21.3418H102.415ZM105.907 16.1593L106.517 14.4965H117.796L118.406 16.1593H105.907ZM130.875 21.4804C129.434 21.4804 128.14 21.1663 126.995 20.5381C125.868 19.8914 124.981 19.0138 124.334 17.9053C123.688 16.7783 123.364 15.4942 123.364 14.0531C123.364 12.5935 123.688 11.3094 124.334 10.2009C124.981 9.09232 125.868 8.22395 126.995 7.59577C128.14 6.96759 129.434 6.6535 130.875 6.6535C132.113 6.6535 133.23 6.89369 134.228 7.37406C135.226 7.85443 136.011 8.57499 136.584 9.53573L135.115 10.5334C134.616 9.7944 133.997 9.24936 133.258 8.89832C132.519 8.54728 131.715 8.37176 130.847 8.37176C129.812 8.37176 128.879 8.61194 128.048 9.09231C127.216 9.55421 126.561 10.2101 126.08 11.06C125.6 11.9099 125.36 12.9076 125.36 14.0531C125.36 15.1986 125.6 16.1963 126.08 17.0462C126.561 17.8961 127.216 18.5612 128.048 19.0416C128.879 19.5035 129.812 19.7344 130.847 19.7344C131.715 19.7344 132.519 19.5589 133.258 19.2078C133.997 18.8568 134.616 18.321 135.115 17.6004L136.584 18.5981C136.011 19.5404 135.226 20.261 134.228 20.7598C133.23 21.2402 132.113 21.4804 130.875 21.4804ZM149.567 21.3418V18.127L149.484 17.6004V12.224C149.484 10.9861 149.133 10.0346 148.431 9.36945C147.747 8.70432 146.722 8.37176 145.354 8.37176C144.412 8.37176 143.516 8.5288 142.666 8.84289C141.816 9.15698 141.096 9.57269 140.505 10.09L139.618 8.62118C140.357 7.993 141.244 7.51263 142.278 7.18007C143.313 6.82902 144.403 6.6535 145.548 6.6535C147.433 6.6535 148.883 7.12464 149.9 8.06691C150.934 8.9907 151.452 10.4041 151.452 12.3071V21.3418H149.567ZM144.551 21.4804C143.461 21.4804 142.509 21.3048 141.696 20.9538C140.902 20.5843 140.292 20.0854 139.867 19.4573C139.442 18.8106 139.23 18.0716 139.23 17.2402C139.23 16.4827 139.405 15.799 139.756 15.1893C140.126 14.5612 140.717 14.0623 141.53 13.6928C142.361 13.3048 143.47 13.1108 144.856 13.1108H149.872V14.5796H144.911C143.507 14.5796 142.528 14.8291 141.973 15.3279C141.438 15.8268 141.17 16.4457 141.17 17.1847C141.17 18.0161 141.493 18.6813 142.14 19.1801C142.786 19.679 143.692 19.9284 144.856 19.9284C145.964 19.9284 146.916 19.679 147.71 19.1801C148.523 18.6628 149.114 17.9238 149.484 16.963L149.927 18.321C149.558 19.2817 148.911 20.0485 147.987 20.6212C147.082 21.194 145.936 21.4804 144.551 21.4804ZM162.588 21.4804C161.202 21.4804 159.955 21.1663 158.847 20.5381C157.757 19.9099 156.898 19.0416 156.269 17.933C155.641 16.806 155.327 15.5127 155.327 14.0531C155.327 12.575 155.641 11.2817 156.269 10.1732C156.898 9.0646 157.757 8.20547 158.847 7.59577C159.955 6.96759 161.202 6.6535 162.588 6.6535C163.863 6.6535 164.999 6.93988 165.997 7.51263C167.013 8.08538 167.817 8.92603 168.408 10.0346C169.018 11.1247 169.323 12.4642 169.323 14.0531C169.323 15.6235 169.027 16.963 168.436 18.0716C167.844 19.1801 167.041 20.03 166.025 20.6212C165.027 21.194 163.881 21.4804 162.588 21.4804ZM162.727 19.7344C163.761 19.7344 164.685 19.5035 165.498 19.0416C166.329 18.5612 166.976 17.8961 167.438 17.0462C167.918 16.1778 168.159 15.1801 168.159 14.0531C168.159 12.9076 167.918 11.9099 167.438 11.06C166.976 10.2101 166.329 9.55421 165.498 9.09231C164.685 8.61194 163.761 8.37176 162.727 8.37176C161.711 8.37176 160.796 8.61194 159.983 9.09231C159.17 9.55421 158.523 10.2101 158.043 11.06C157.563 11.9099 157.323 12.9076 157.323 14.0531C157.323 15.1801 157.563 16.1778 158.043 17.0462C158.523 17.8961 159.17 18.5612 159.983 19.0416C160.796 19.5035 161.711 19.7344 162.727 19.7344ZM168.214 21.3418V16.963L168.408 14.0254L168.131 11.0877V0.778187H170.099V21.3418H168.214ZM181.759 21.4804C180.244 21.4804 178.913 21.1663 177.768 20.5381C176.622 19.8914 175.726 19.0138 175.08 17.9053C174.433 16.7783 174.11 15.4942 174.11 14.0531C174.11 12.612 174.415 11.3371 175.024 10.2286C175.652 9.12003 176.502 8.25166 177.574 7.62349C178.664 6.97683 179.883 6.6535 181.232 6.6535C182.599 6.6535 183.809 6.96759 184.863 7.59577C185.934 8.20547 186.775 9.07384 187.385 10.2009C187.994 11.3094 188.299 12.5935 188.299 14.0531C188.299 14.1455 188.29 14.2471 188.271 14.3579C188.271 14.4503 188.271 14.5519 188.271 14.6628H175.606V13.194H187.218L186.442 13.7759C186.442 12.7228 186.211 11.7898 185.749 10.9769C185.306 10.1454 184.696 9.49878 183.92 9.03689C183.144 8.57499 182.248 8.34404 181.232 8.34404C180.234 8.34404 179.338 8.57499 178.544 9.03689C177.749 9.49878 177.13 10.1454 176.687 10.9769C176.244 11.8083 176.022 12.7598 176.022 13.8314V14.1362C176.022 15.2448 176.262 16.224 176.742 17.0739C177.241 17.9053 177.925 18.5612 178.793 19.0416C179.68 19.5035 180.687 19.7344 181.814 19.7344C182.701 19.7344 183.523 19.5774 184.281 19.2633C185.057 18.9492 185.722 18.4688 186.276 17.8221L187.385 19.097C186.738 19.873 185.925 20.4642 184.946 20.8707C183.985 21.2771 182.923 21.4804 181.759 21.4804ZM210.484 6.6535C211.667 6.6535 212.692 6.88445 213.561 7.34635C214.447 7.78977 215.131 8.47337 215.611 9.39717C216.11 10.321 216.36 11.4849 216.36 12.8891V21.3418H214.392V13.0831C214.392 11.5496 214.023 10.3949 213.284 9.61888C212.563 8.82442 211.538 8.42718 210.207 8.42718C209.21 8.42718 208.341 8.63966 207.602 9.0646C206.882 9.47107 206.318 10.0715 205.912 10.866C205.524 11.642 205.33 12.5842 205.33 13.6928V21.3418H203.362V13.0831C203.362 11.5496 202.992 10.3949 202.253 9.61888C201.514 8.82442 200.48 8.42718 199.149 8.42718C198.17 8.42718 197.311 8.63966 196.572 9.0646C195.833 9.47107 195.26 10.0715 194.854 10.866C194.466 11.642 194.272 12.5842 194.272 13.6928V21.3418H192.304V6.79207H194.189V10.7274L193.884 10.0346C194.327 8.98146 195.039 8.15929 196.018 7.56806C197.016 6.95836 198.189 6.6535 199.537 6.6535C200.96 6.6535 202.17 7.01378 203.168 7.73434C204.166 8.43642 204.812 9.49878 205.108 10.9214L204.332 10.6166C204.757 9.43412 205.505 8.48261 206.577 7.76205C207.667 7.02302 208.969 6.6535 210.484 6.6535ZM221.536 26.8568C220.853 26.8568 220.197 26.746 219.568 26.5243C218.959 26.3026 218.432 25.97 217.989 25.5266L218.903 24.0577C219.273 24.4088 219.67 24.6767 220.095 24.8614C220.538 25.0647 221.028 25.1663 221.564 25.1663C222.211 25.1663 222.765 24.9815 223.227 24.612C223.707 24.261 224.16 23.6328 224.585 22.7275L225.527 20.5935L225.749 20.2887L231.735 6.79207H233.675L226.386 23.0878C225.98 24.03 225.527 24.7783 225.028 25.3326C224.548 25.8869 224.021 26.2748 223.448 26.4966C222.876 26.7367 222.238 26.8568 221.536 26.8568ZM225.416 21.7575L218.709 6.79207H220.76L226.691 20.1501L225.416 21.7575Z" fill="white"/>
</svg>
