<svg xmlns="http://www.w3.org/2000/svg" width="158" height="44" fill="none"><path stroke="#1127E3" stroke-opacity=".5" stroke-width="2.418" d="m6.237 11.866-4.03 7.657v2.419l4.836 4.03 8.061 2.015 8.06 6.046h10.883v5.24l5.642 2.82h6.449l7.658-8.06 2.82-4.03v-6.046l-2.82-12.091-7.658-7.658-8.464-2.821h-9.673L15.104 4.208l-8.867 7.658Z"/><path stroke="#1127E3" stroke-opacity=".5" stroke-width=".858" d="m2.207 20.91 25.73-9.005 18.44 3.002 3.001-7.72"/><path stroke="#1127E3" stroke-opacity=".5" stroke-width=".858" d="m15.93 4.615 12.007 7.29L48.092 29.06m0 0-1.954-14.77m1.954 14.77L34.853 33.23"/><path stroke="#1127E3" stroke-opacity=".5" stroke-width=".858" d="m10.352 18.338 4.288 8.148 33.449 2.573 8.576 1.715"/><circle cx="10.266" cy="18.313" r="2.418" fill="#1127E3" fill-opacity=".5"/><circle cx="28.005" cy="12.268" r="2.821" fill="#1127E3" fill-opacity=".5"/><circle cx="45.734" cy="14.685" r="2.015" fill="#1127E3" fill-opacity=".5"/><circle cx="15.104" cy="26.376" r="1.612" fill="#1127E3" fill-opacity=".5"/><circle cx="48.154" cy="28.791" r="3.224" fill="#1127E3" fill-opacity=".5"/><path fill="#1127E3" fill-opacity=".5" d="m72.916 25.031-1.733-.639-.916 2.486h2.65v-1.847Zm4.829-13.1v-1.848h-1.288l-.445 1.208 1.733.64Zm2.171 0 1.735-.635-.444-1.213h-1.291v1.847Zm4.791 13.1v1.848h2.643l-.908-2.482-1.735.634Zm-2.096 0-1.743.612.434 1.235h1.309v-1.847Zm-1.123-3.2 1.743-.612-.433-1.235h-1.31v1.847Zm-5.353 0v-1.847h-1.31l-.433 1.235 1.743.612Zm-1.123 3.2v1.848h1.31l.433-1.236-1.743-.612Zm1.685-4.772-1.741-.617-.873 2.464h2.614v-1.847Zm4.23 0v1.847h2.614l-.873-2.464-1.741.617Zm-2.115-5.97 1.741-.617-1.741-4.916-1.742 4.916 1.742.617ZM74.65 25.67l4.828-13.1-3.466-1.279-4.829 13.101 3.467 1.278Zm3.095-11.893h2.171v-3.694h-2.171v3.694Zm.436-1.212 4.791 13.1 3.47-1.268-4.791-13.101-3.47 1.269Zm6.526 10.619h-2.096v3.694h2.096v-3.694Zm-.353 1.236-1.123-3.2-3.486 1.223 1.123 3.2 3.486-1.223Zm-2.866-4.436h-5.353v3.694h5.353v-3.694Zm-7.096 1.235-1.123 3.2 3.486 1.224 1.124-3.2-3.487-1.224Zm.62 1.965h-2.096v3.694h2.096v-3.694Zm1.685-1.078h4.23v-3.695h-4.23v3.695Zm5.97-2.464-2.114-5.97-3.483 1.233 2.115 5.97 3.483-1.233Zm-5.597-5.97-2.114 5.97 3.482 1.234 2.115-5.97-3.483-1.234Zm9.464 11.36h-1.847v1.846h1.847v-1.847Zm0-13.102v-1.847h-1.847v1.847h1.847Zm1.984 0h1.847v-1.847h-1.847v1.847Zm0 13.101v1.848h1.847V25.03h-1.847Zm-.137 0v-13.1h-3.694v13.1h3.694Zm-1.847-11.253h1.984v-3.695h-1.984v3.694Zm.137-1.848v13.101h3.694v-13.1h-3.694Zm1.847 11.254h-1.984v3.694h1.984v-3.694Zm9.17 1.566.78-1.674-.78 1.674Zm-1.703-1.44-1.555.995.007.011.007.011 1.541-1.018Zm-.617-2.228v-1.847h-1.874l.027 1.874 1.847-.027Zm2.096 0 1.847-.033-.032-1.814h-1.815v1.847Zm.73 1.778-1.323 1.29 1.323-1.29Zm3.781.187 1.198 1.406.004-.003-1.202-1.403Zm.336-2.545-1.516 1.055.015.022.016.021 1.485-1.098Zm-.842-.711-.872 1.628.012.006.012.007.848-1.641Zm-2.676-.992.597-1.748-.013-.004-.584 1.752Zm-2.283-1.31-1.353 1.258.008.008.008.009 1.337-1.275Zm-.749-2.115h1.847v-.031l-1.847.031Zm.505-1.928-1.542-1.016-.008.012-.008.012 1.558.992Zm1.497-1.272.787 1.671.007-.003.007-.004-.8-1.664Zm4.492 0-.813 1.658.013.006.8-1.664Zm1.516 1.31-1.552 1 .005.008.005.008 1.542-1.016Zm.562 1.927v1.848h1.879l-.032-1.879-1.847.031Zm-2.096 0h-1.848v1.848h1.848V15.41Zm-.262-.954-1.612.902.008.015.008.014 1.596-.931Zm-.768-.767-.942 1.589.942-1.59Zm-1.235-.3-.037 1.847h.037V13.39Zm-1.553.468-1.144-1.451-.01.009-.011.008 1.165 1.434Zm-.15 2.527-1.248 1.361 1.248-1.361Zm1.235.692-.621 1.74.018.006.019.006.584-1.752Zm1.797.618-.613 1.742.019.007.02.007.574-1.756Zm1.74.767-.933 1.594.933-1.594Zm1.217 1.18-1.573.967.009.015.009.014 1.555-.997Zm-.038 3.705 1.584.95.005-.007.005-.008-1.594-.935Zm-1.516 1.385.851 1.64.012-.006.011-.007-.874-1.627Zm-2.489-1.323c-.745 0-1.312-.13-1.747-.333l-1.559 3.35c1.012.47 2.13.677 3.306.677V23.41Zm-1.747-.333c-.435-.203-.73-.465-.94-.784l-3.084 2.035c.613.929 1.453 1.627 2.465 2.098l1.56-3.35Zm-.927-.762c-.185-.29-.318-.685-.326-1.259l-3.694.054c.016 1.148.296 2.238.909 3.196l3.111-1.991Zm-2.173.616h2.096v-3.695h-2.096v3.695Zm.25-1.815c.02 1.154.44 2.2 1.253 3.034l2.646-2.578c-.136-.14-.202-.278-.206-.522l-3.694.066Zm1.253 3.034c.909.933 2.107 1.288 3.326 1.288v-3.694c-.504 0-.64-.132-.68-.172l-2.646 2.578Zm3.326 1.288c1.04 0 2.113-.248 2.976-.984l-2.397-2.811c-.002.001-.007.006-.021.013a.463.463 0 0 1-.082.033 1.673 1.673 0 0 1-.476.055v3.694Zm2.98-.987a3.638 3.638 0 0 0 1.3-2.825h-3.695a.172.172 0 0 1-.002.035l.002-.007a.207.207 0 0 0 .006-.015l.007-.013.004-.006a.16.16 0 0 1-.027.026l2.405 2.805Zm1.3-2.825c0-.74-.172-1.534-.68-2.22l-2.971 2.195a.392.392 0 0 1-.053-.098c-.001-.004.009.032.009.123h3.695Zm-.649-2.178a4.119 4.119 0 0 0-1.51-1.297l-1.697 3.282c.139.072.172.123.174.125l3.033-2.11Zm-1.486-1.284a9.321 9.321 0 0 0-1.519-.635l-1.14 3.515c.379.123.68.25.914.376l1.745-3.256Zm-1.519-.635c-.452-.146-.93-.305-1.433-.477l-1.194 3.496c.52.177 1.015.343 1.487.496l1.14-3.515Zm-1.446-.481c-.841-.281-1.298-.59-1.53-.833l-2.674 2.55c.79.829 1.856 1.394 3.036 1.787l1.168-3.504Zm-1.515-.816c-.122-.131-.254-.355-.254-.857h-3.694c0 1.245.367 2.43 1.243 3.373l2.705-2.516Zm-.254-.888c-.007-.424.087-.7.217-.905l-3.117-1.984c-.569.894-.812 1.902-.794 2.951l3.694-.062Zm.2-.88c.162-.246.39-.453.742-.618l-1.573-3.343a5.412 5.412 0 0 0-2.253 1.928l3.085 2.033Zm.756-.625c.355-.17.827-.285 1.464-.285V9.858c-1.084 0-2.122.197-3.065.65l1.6 3.33Zm1.464-.285c.622 0 1.076.113 1.414.28l1.626-3.318c-.934-.458-1.965-.657-3.04-.657v3.695Zm1.427.285c.366.177.601.394.764.646l3.105-2.001c-.561-.87-1.337-1.527-2.268-1.974l-1.601 3.33Zm.774.662c.146.222.249.514.257.943l3.694-.063c-.018-1.043-.289-2.037-.866-2.913l-3.085 2.033Zm2.104-.936h-2.096v3.695h2.096v-3.695Zm-.249 1.847c0-.673-.179-1.311-.514-1.885l-3.191 1.862.01.018.001.003-.001-.003v.005h3.695Zm-.498-1.857a3.9 3.9 0 0 0-1.437-1.454l-1.884 3.179c.085.05.097.079.098.08l3.223-1.805Zm-1.437-1.454c-.684-.405-1.439-.557-2.177-.557v3.694c.118 0 .194.012.239.023.021.005.036.01.043.014l.009.003.002.002 1.884-3.179Zm-2.14-.557c-.966-.02-1.925.227-2.734.864l2.287 2.902c.015-.012.092-.078.373-.072l.074-3.694Zm-2.755.881c-.885.719-1.282 1.724-1.282 2.782h3.695c0-.072.012-.066-.01-.018a.327.327 0 0 1-.074.104l-2.33-2.868Zm-1.282 2.782c0 .885.273 1.83 1.049 2.54l2.496-2.723a.572.572 0 0 1 .141.203c.02.054.009.058.009-.02h-3.695Zm1.049 2.54c.535.49 1.186.83 1.862 1.07l1.242-3.478c-.372-.133-.544-.256-.608-.315l-2.496 2.723Zm1.899 1.084c.512.17 1.101.373 1.768.607l1.226-3.485c-.681-.24-1.29-.449-1.826-.627L98.92 18.83Zm1.807.62c.542.178.999.382 1.381.606l1.867-3.188a10.793 10.793 0 0 0-2.1-.93l-1.148 3.513Zm1.381.606c.26.153.442.334.577.553l3.146-1.936a5.294 5.294 0 0 0-1.856-1.805l-1.867 3.188Zm.595.582c.072.113.176.358.176.856h3.694c0-1-.209-1.99-.76-2.85l-3.11 1.994Zm.176.856c0 .33-.08.625-.252.918l3.187 1.87a5.446 5.446 0 0 0 .759-2.788h-3.694Zm-.243.902c-.138.231-.375.477-.806.708l1.748 3.255c.918-.492 1.691-1.17 2.226-2.062l-3.168-1.9Zm-.782.696c-.344.178-.863.317-1.639.317v3.694c1.196 0 2.337-.211 3.34-.731l-1.701-3.28Zm6.912 1.546-.925 1.599.012.007.913-1.606Zm-1.684-1.703-1.624.88.009.017.009.017 1.606-.914Zm0-5.072-1.612-.902-.006.01 1.618.892Zm1.684-1.722-.913-1.605-.012.007.925 1.598Zm5.334.281-1.131 1.46.006.005.006.004 1.119-1.469Zm1.516 2.433v1.847h2.297l-.492-2.243-1.805.396Zm-2.077 0-1.795.438.344 1.41h1.451v-1.848Zm-.824-1.198 1.035-1.53-1.035 1.53Zm-2.844-.056.921 1.601.018-.01.018-.011-.957-1.58Zm-.992 1.067 1.625.878.004-.009.005-.009-1.634-.86Zm0 3.462-1.635.86.005.01.005.009 1.625-.879Zm.992 1.067-.958 1.58.958-1.58Zm2.844-.056 1.035 1.53-1.035-1.53Zm.824-1.217v-1.847h-1.459l-.338 1.42 1.797.427Zm2.077 0 1.807.384.474-2.23h-2.281v1.846Zm-1.497 2.415-1.134-1.458 1.134 1.458Zm-2.901-.93c-.621 0-1.119-.138-1.538-.376l-1.827 3.21c1.028.585 2.165.86 3.365.86V23.41Zm-1.526-.37a2.66 2.66 0 0 1-1.005-1.017l-3.211 1.827a6.354 6.354 0 0 0 2.365 2.388l1.851-3.197Zm-.986-.985c-.233-.428-.376-.965-.376-1.664h-3.694c0 1.222.256 2.382.822 3.426l3.248-1.762Zm-.376-1.664c0-.7.144-1.226.369-1.634l-3.235-1.785c-.572 1.038-.828 2.197-.828 3.419h3.694Zm.364-1.625c.254-.454.582-.784.998-1.025l-1.851-3.197a6.308 6.308 0 0 0-2.371 2.418l3.224 1.804Zm.986-1.018c.419-.239.917-.376 1.538-.376v-3.695c-1.2 0-2.337.275-3.365.86l1.827 3.21Zm1.538-.376c.812 0 1.355.205 1.751.512l2.262-2.922c-1.151-.89-2.529-1.285-4.013-1.285v3.695Zm1.763.52c.416.317.694.737.831 1.36l3.609-.792c-.313-1.423-1.045-2.625-2.201-3.506l-2.239 2.938Zm2.635-.883h-2.077v3.694h2.077v-3.694Zm-.283 1.41a3.798 3.798 0 0 0-1.583-2.29l-2.07 3.06c.018.011.027.02.031.024l.006.006a.286.286 0 0 1 .027.074l3.589-.875Zm-1.583-2.29c-.766-.519-1.635-.748-2.532-.748v3.694c.251 0 .38.057.462.113l2.07-3.06Zm-2.532-.748a4.4 4.4 0 0 0-2.305.641l1.915 3.16a.707.707 0 0 1 .39-.107V15.38Zm-2.269.62c-.752.433-1.314 1.065-1.705 1.808l3.269 1.72c.108-.205.208-.285.279-.326L108.949 16Zm-1.695 1.79c-.434.801-.597 1.698-.597 2.6h3.695c0-.471.086-.722.152-.844l-3.25-1.756Zm-.597 2.6c0 .904.164 1.797.587 2.6l3.269-1.72c-.076-.145-.161-.412-.161-.88h-3.695Zm.597 2.619a4.575 4.575 0 0 0 1.659 1.768l1.915-3.16a.89.89 0 0 1-.324-.365l-3.25 1.757Zm1.659 1.768a4.4 4.4 0 0 0 2.305.642v-3.695a.707.707 0 0 1-.39-.107l-1.915 3.16Zm2.305.642c.897 0 1.766-.23 2.532-.748l-2.07-3.06c-.082.056-.211.113-.462.113v3.695Zm2.532-.748c.829-.56 1.36-1.37 1.586-2.319l-3.594-.855c-.016.066-.032.089-.032.09a.022.022 0 0 1-.005.005c-.003.002-.01.009-.025.019l2.07 3.06Zm-.211-.9h2.077v-3.694h-2.077v3.695Zm.27-2.23c-.124.583-.391 1.003-.824 1.34l2.268 2.916c1.139-.886 1.87-2.076 2.17-3.489l-3.614-.767Zm-.824 1.34c-.414.321-.964.528-1.767.528v3.694c1.493 0 2.877-.405 4.035-1.306l-2.268-2.916Zm4.783 2.15h-1.847v1.848h1.847V25.03Zm0-13.475V9.709h-1.847v1.847h1.847Zm1.984 0h1.847V9.709h-1.847v1.847Zm0 5.69h-1.848v6.852l3.445-5.924-1.597-.928Zm1.291-1.254.885 1.621.006-.003.006-.004-.897-1.614Zm4.473.58 1.366-1.244-1.366 1.244Zm.955 8.46v1.846h1.847v-1.847h-1.847Zm-1.966 0h-1.847v1.846h1.847v-1.847Zm-4.023-7.038-1.338-1.274-.008.009-.008.008 1.354 1.257Zm-.73 7.037v1.848h1.847V25.03h-1.847Zm-.137 0V11.556h-3.694v13.475h3.694Zm-1.847-11.628h1.984V9.71h-1.984v3.694Zm.136-1.847v5.69h3.695v-5.69h-3.695Zm3.445 6.618a1.44 1.44 0 0 1 .579-.56l-1.77-3.244a5.136 5.136 0 0 0-2.003 1.947l3.194 1.857Zm.591-.568c.274-.152.58-.235.956-.235v-3.695c-.972 0-1.901.229-2.75.7l1.794 3.23Zm.956-.235c.69 0 1.03.198 1.254.445l2.732-2.488c-1.048-1.151-2.455-1.652-3.986-1.652v3.695Zm1.254.445c.209.23.473.746.473 1.881h3.695c0-1.634-.373-3.201-1.436-4.369l-2.732 2.488Zm.473 1.881v5.334h3.695v-5.334h-3.695Zm1.848 3.487h-1.966v3.694h1.966v-3.694Zm-.118 1.847v-5.128h-3.695v5.128h3.695Zm0-5.128c0-1.095-.211-2.258-.942-3.174-.795-.995-1.932-1.368-3.058-1.368v3.694c.169 0 .232.027.23.026a.185.185 0 0 1-.059-.046c-.014-.018.134.167.134.868h3.695Zm-4-4.542c-1.234 0-2.348.455-3.209 1.36l2.675 2.547c.137-.144.271-.213.534-.213v-3.694Zm-3.225 1.376c-.904.973-1.224 2.234-1.224 3.503h3.695c0-.678.167-.914.236-.989l-2.707-2.514Zm-1.224 3.503v4.791h3.695V20.24h-3.695Zm1.848 2.944h-1.984v3.694h1.984v-3.694Zm11.002 1.473-.938 1.591.016.01.017.01.905-1.611Zm-1.666-1.703-1.612.902.006.011 1.606-.913Zm0-5.11-1.601-.922-.005.009 1.606.913Zm1.703-1.703.904 1.611.011-.006.011-.006-.926-1.599Zm4.754 0-.938 1.592.017.01.016.01.905-1.612Zm1.684 1.703-1.612.902.009.017.01.016 1.593-.935Zm0 5.11-1.6-.922-.005.008 1.605.914Zm-1.684 1.703.904 1.61.011-.005.01-.006-.925-1.6Zm-1.086-1.46-.921-1.6-.011.005-.011.007.943 1.588Zm.992-1.048 1.625.878.005-.009.005-.009-1.635-.86Zm0-3.5-1.652.826.013.027.014.026 1.625-.879Zm-.973-1.067-.943 1.589.011.006.01.006.922-1.6Zm-2.639 0-.922-1.6-.01.006-.011.006.943 1.588Zm-.973 1.067 1.625.879.005-.01.004-.008-1.634-.86Zm0 3.5-1.635.86.005.01.005.008 1.625-.878Zm.973 1.048.943-1.588-.943 1.588Zm1.31.212c-.597 0-1.08-.132-1.491-.363l-1.809 3.222c1.011.567 2.126.835 3.3.835V23.41Zm-1.458-.343a2.706 2.706 0 0 1-.998-1.026l-3.211 1.827a6.392 6.392 0 0 0 2.334 2.381l1.875-3.183Zm-.991-1.014c-.235-.42-.383-.956-.383-1.662h-3.694c0 1.24.264 2.414.853 3.466l3.224-1.804Zm-.383-1.662c0-.708.148-1.23.376-1.632l-3.211-1.827c-.595 1.046-.859 2.22-.859 3.459h3.694Zm.371-1.623c.266-.461.598-.785 1.007-1.015l-1.808-3.221a6.31 6.31 0 0 0-2.4 2.391l3.201 1.845Zm1.029-1.027c.412-.239.881-.37 1.451-.37v-3.694a6.508 6.508 0 0 0-3.303.867l1.852 3.197Zm1.451-.37c.587 0 1.05.134 1.439.363l1.876-3.183c-1.009-.595-2.131-.874-3.315-.874v3.695Zm1.472.382c.404.227.725.544.977.994l3.224-1.803a6.186 6.186 0 0 0-2.392-2.413l-1.809 3.222Zm.996 1.027c.233.397.382.913.382 1.61h3.695c0-1.248-.275-2.43-.89-3.479l-3.187 1.869Zm.382 1.61c0 .698-.149 1.226-.389 1.643l3.201 1.844c.608-1.055.883-2.237.883-3.486h-3.695Zm-.394 1.651a2.66 2.66 0 0 1-1.005 1.018l1.851 3.198a6.354 6.354 0 0 0 2.365-2.389l-3.211-1.827Zm-.984 1.006c-.411.231-.894.363-1.491.363v3.694c1.175 0 2.289-.268 3.3-.835l-1.809-3.222Zm-1.491 2.354c.799 0 1.562-.204 2.253-.614l-1.886-3.177a.673.673 0 0 1-.367.096V25.4Zm2.232-.602a4.445 4.445 0 0 0 1.695-1.77l-3.25-1.757c-.104.192-.204.277-.288.325l1.843 3.202Zm1.705-1.789c.425-.807.587-1.709.587-2.62h-3.695c0 .488-.088.76-.161.9l3.269 1.72Zm.587-2.62c0-.907-.161-1.812-.597-2.618l-3.25 1.757c.064.117.152.372.152.862h3.695Zm-.57-2.566c-.379-.76-.942-1.403-1.703-1.841l-1.844 3.201c.062.036.149.104.243.292l3.304-1.652Zm-1.682-1.829a4.364 4.364 0 0 0-2.253-.614v3.694c.149 0 .259.033.367.097l1.886-3.177Zm-2.253-.614a4.47 4.47 0 0 0-2.251.601l1.844 3.202a.773.773 0 0 1 .407-.109V15.38Zm-2.272.614c-.735.437-1.281 1.066-1.665 1.795l3.269 1.72c.116-.219.219-.3.282-.338l-1.886-3.177Zm-1.655 1.777c-.436.806-.597 1.711-.597 2.619h3.695c0-.49.089-.745.152-.862l-3.25-1.757Zm-.597 2.619c0 .91.162 1.812.587 2.62l3.269-1.721c-.073-.14-.161-.412-.161-.9h-3.695Zm.597 2.637c.387.717.932 1.33 1.655 1.758l1.886-3.176c-.076-.045-.179-.132-.291-.338l-3.25 1.756Zm1.655 1.758c.691.41 1.454.615 2.253.615v-3.694a.678.678 0 0 1-.367-.097l-1.886 3.176Zm11.061-.128-.937 1.591.016.01.017.01.904-1.611Zm-1.665-1.703-1.613.902.007.011 1.606-.913Zm0-5.11-1.601-.922-.005.009 1.606.913Zm1.703-1.703.904 1.611.011-.006.01-.006-.925-1.599Zm4.754 0-.938 1.592.016.01.017.01.905-1.612Zm1.684 1.703-1.612.902.009.017.009.016 1.594-.935Zm0 5.11-1.601-.922-.005.008 1.606.914Zm-1.684 1.703.904 1.61.011-.005.01-.006-.925-1.6Zm-1.086-1.46-.922-1.6-.01.005-.011.007.943 1.588Zm.992-1.048 1.625.878.005-.009.005-.009-1.635-.86Zm0-3.5-1.652.826.013.027.014.026 1.625-.879Zm-.973-1.067-.943 1.589.01.006.011.006.922-1.6Zm-2.639 0-.922-1.6-.011.006-.01.006.943 1.588Zm-.973 1.067 1.625.879.005-.01.004-.008-1.634-.86Zm0 3.5-1.635.86.005.01.005.008 1.625-.878Zm.973 1.048.943-1.588-.943 1.588Zm1.31.212c-.597 0-1.08-.132-1.491-.363l-1.809 3.222c1.011.567 2.125.835 3.3.835V23.41Zm-1.458-.343a2.706 2.706 0 0 1-.998-1.026l-3.211 1.827a6.392 6.392 0 0 0 2.334 2.381l1.875-3.183Zm-.991-1.014c-.235-.42-.383-.956-.383-1.662h-3.694c0 1.24.264 2.414.852 3.466l3.225-1.804Zm-.383-1.662c0-.708.148-1.23.376-1.632l-3.211-1.827c-.595 1.046-.859 2.22-.859 3.459h3.694Zm.371-1.623c.266-.461.598-.785 1.007-1.015l-1.809-3.221a6.315 6.315 0 0 0-2.399 2.391l3.201 1.845Zm1.028-1.027c.412-.239.882-.37 1.452-.37v-3.694c-1.178 0-2.293.282-3.303.867l1.851 3.197Zm1.452-.37c.587 0 1.05.134 1.439.363l1.875-3.183c-1.008-.595-2.13-.874-3.314-.874v3.695Zm1.472.382c.404.227.725.544.977.994l3.224-1.803a6.186 6.186 0 0 0-2.392-2.413l-1.809 3.222Zm.995 1.027c.233.397.383.913.383 1.61h3.695c0-1.248-.275-2.43-.89-3.479l-3.188 1.869Zm.383 1.61c0 .698-.149 1.226-.39 1.643l3.201 1.844c.609-1.055.884-2.237.884-3.486h-3.695Zm-.395 1.651c-.252.443-.58.773-1.004 1.018l1.851 3.198a6.354 6.354 0 0 0 2.365-2.389l-3.212-1.827Zm-.983 1.006c-.411.231-.894.363-1.491.363v3.694c1.174 0 2.289-.268 3.3-.835l-1.809-3.222Zm-1.491 2.354c.799 0 1.562-.204 2.253-.614l-1.886-3.177a.675.675 0 0 1-.367.096V25.4Zm2.232-.602a4.445 4.445 0 0 0 1.695-1.77l-3.25-1.757c-.104.192-.204.277-.289.325l1.844 3.202Zm1.705-1.789c.425-.807.587-1.709.587-2.62h-3.695c0 .488-.088.76-.162.9l3.27 1.72Zm.587-2.62c0-.907-.161-1.812-.597-2.618l-3.25 1.757c.063.117.152.372.152.862h3.695Zm-.57-2.566c-.38-.76-.942-1.403-1.704-1.841l-1.843 3.201c.062.036.148.104.243.292l3.304-1.652Zm-1.682-1.829a4.367 4.367 0 0 0-2.253-.614v3.694c.149 0 .259.033.367.097l1.886-3.177Zm-2.253-.614c-.799 0-1.559.203-2.251.601l1.844 3.202a.773.773 0 0 1 .407-.109V15.38Zm-2.272.614c-.736.437-1.281 1.066-1.665 1.795l3.269 1.72c.116-.219.219-.3.282-.338l-1.886-3.177Zm-1.655 1.777c-.436.806-.597 1.711-.597 2.619h3.695c0-.49.088-.745.152-.862l-3.25-1.757Zm-.597 2.619c0 .91.162 1.812.587 2.62l3.269-1.721c-.074-.14-.161-.412-.161-.9h-3.695Zm.597 2.637c.387.717.932 1.33 1.655 1.758l1.886-3.176c-.076-.045-.18-.132-.291-.338l-3.25 1.756Zm1.655 1.758c.691.41 1.454.615 2.253.615v-3.694a.675.675 0 0 1-.367-.097l-1.886 3.176Zm9.115.246h-1.848v1.848h1.848V25.03Zm0-13.475V9.709h-1.848v1.847h1.848Zm1.984 0h1.847V9.709h-1.847v1.847Zm0 13.475v1.848h1.847V25.03h-1.847Zm-.137 0V11.556h-3.695v13.475h3.695Zm-1.847-11.628h1.984V9.71h-1.984v3.694Zm.136-1.847v13.475h3.695V11.556h-3.695Zm1.848 11.628h-1.984v3.694h1.984v-3.694Z"/><circle cx="112.234" cy="13.078" r="2.015" fill="#1127E3" fill-opacity=".5"/><circle cx="112.234" cy="13.078" r="1.612" stroke="#1127E3" stroke-opacity=".5" stroke-width=".806"/></svg>