<svg width="124" height="39" viewBox="0 0 124 39" fill="none" xmlns="http://www.w3.org/2000/svg">
<path d="M48.088 25V13.8H51.912C53.224 13.8 54.3013 14.0347 55.144 14.504C55.9973 14.9627 56.6267 15.6133 57.032 16.456C57.448 17.288 57.656 18.2693 57.656 19.4C57.656 20.5307 57.448 21.5173 57.032 22.36C56.6267 23.192 55.9973 23.8427 55.144 24.312C54.3013 24.7707 53.224 25 51.912 25H48.088ZM50.136 23.24H51.816C52.7547 23.24 53.496 23.0907 54.04 22.792C54.584 22.4827 54.9733 22.0453 55.208 21.48C55.4427 20.904 55.56 20.2107 55.56 19.4C55.56 18.6 55.4427 17.912 55.208 17.336C54.9733 16.76 54.584 16.3173 54.04 16.008C53.496 15.6987 52.7547 15.544 51.816 15.544H50.136V23.24ZM63.271 25.192C62.471 25.192 61.7617 25.0213 61.143 24.68C60.5243 24.3387 60.039 23.8587 59.687 23.24C59.335 22.6213 59.159 21.9067 59.159 21.096C59.159 20.2747 59.3297 19.544 59.671 18.904C60.023 18.264 60.503 17.768 61.111 17.416C61.7297 17.0533 62.455 16.872 63.287 16.872C64.0657 16.872 64.7537 17.0427 65.351 17.384C65.9483 17.7253 66.4123 18.1947 66.743 18.792C67.0843 19.3787 67.255 20.0347 67.255 20.76C67.255 20.8773 67.2497 21 67.239 21.128C67.239 21.256 67.2337 21.3893 67.223 21.528H61.191C61.2337 22.1467 61.447 22.632 61.831 22.984C62.2257 23.336 62.7003 23.512 63.255 23.512C63.671 23.512 64.0177 23.4213 64.295 23.24C64.583 23.048 64.7963 22.8027 64.935 22.504H67.015C66.8657 23.0053 66.615 23.464 66.263 23.88C65.9217 24.2853 65.495 24.6053 64.983 24.84C64.4817 25.0747 63.911 25.192 63.271 25.192ZM63.287 18.536C62.7857 18.536 62.343 18.68 61.959 18.968C61.575 19.2453 61.3297 19.672 61.223 20.248H65.175C65.143 19.7253 64.951 19.3093 64.599 19C64.247 18.6907 63.8097 18.536 63.287 18.536ZM72.2575 25.192C71.5535 25.192 70.9348 25.08 70.4015 24.856C69.8682 24.6213 69.4415 24.3013 69.1215 23.896C68.8015 23.4907 68.6095 23.0213 68.5455 22.488H70.6095C70.6735 22.7973 70.8442 23.064 71.1215 23.288C71.4095 23.5013 71.7775 23.608 72.2255 23.608C72.6735 23.608 72.9988 23.5173 73.2015 23.336C73.4148 23.1547 73.5215 22.9467 73.5215 22.712C73.5215 22.3707 73.3722 22.1413 73.0735 22.024C72.7748 21.896 72.3588 21.7733 71.8255 21.656C71.4842 21.5813 71.1375 21.4907 70.7855 21.384C70.4335 21.2773 70.1082 21.144 69.8095 20.984C69.5215 20.8133 69.2868 20.6 69.1055 20.344C68.9242 20.0773 68.8335 19.752 68.8335 19.368C68.8335 18.664 69.1108 18.072 69.6655 17.592C70.2308 17.112 71.0202 16.872 72.0335 16.872C72.9722 16.872 73.7188 17.0907 74.2735 17.528C74.8388 17.9653 75.1748 18.568 75.2815 19.336H73.3455C73.2282 18.7493 72.7855 18.456 72.0175 18.456C71.6335 18.456 71.3348 18.5307 71.1215 18.68C70.9188 18.8293 70.8175 19.016 70.8175 19.24C70.8175 19.4747 70.9722 19.6613 71.2815 19.8C71.5908 19.9387 72.0015 20.0667 72.5135 20.184C73.0682 20.312 73.5748 20.456 74.0335 20.616C74.5028 20.7653 74.8762 20.9947 75.1535 21.304C75.4308 21.6027 75.5695 22.0347 75.5695 22.6C75.5802 23.0907 75.4522 23.5333 75.1855 23.928C74.9188 24.3227 74.5348 24.632 74.0335 24.856C73.5322 25.08 72.9402 25.192 72.2575 25.192ZM78.4878 15.832C78.1144 15.832 77.8051 15.72 77.5598 15.496C77.3251 15.272 77.2078 14.9893 77.2078 14.648C77.2078 14.3067 77.3251 14.0293 77.5598 13.816C77.8051 13.592 78.1144 13.48 78.4878 13.48C78.8611 13.48 79.1651 13.592 79.3998 13.816C79.6451 14.0293 79.7678 14.3067 79.7678 14.648C79.7678 14.9893 79.6451 15.272 79.3998 15.496C79.1651 15.72 78.8611 15.832 78.4878 15.832ZM77.4638 25V17.064H79.5118V25H77.4638ZM85.0094 22.632C84.6254 22.632 84.268 22.5893 83.9374 22.504L83.3454 23.096C83.5267 23.192 83.772 23.272 84.0814 23.336C84.3907 23.4 84.892 23.464 85.5854 23.528C86.6414 23.624 87.4094 23.8747 87.8894 24.28C88.3694 24.6853 88.6094 25.2453 88.6094 25.96C88.6094 26.4293 88.4814 26.872 88.2254 27.288C87.9694 27.7147 87.5747 28.056 87.0414 28.312C86.508 28.5787 85.8254 28.712 84.9934 28.712C83.8627 28.712 82.9507 28.4987 82.2574 28.072C81.564 27.656 81.2174 27.0267 81.2174 26.184C81.2174 25.4693 81.564 24.8507 82.2574 24.328C82.044 24.232 81.8574 24.1307 81.6974 24.024C81.548 23.9173 81.4147 23.8053 81.2974 23.688V23.32L82.6894 21.848C82.0707 21.304 81.7614 20.6053 81.7614 19.752C81.7614 19.2187 81.8894 18.7333 82.1454 18.296C82.412 17.8587 82.7854 17.512 83.2654 17.256C83.7454 17 84.3267 16.872 85.0094 16.872C85.4574 16.872 85.8734 16.936 86.2574 17.064H89.2654V18.312L87.9054 18.408C88.1187 18.8133 88.2254 19.2613 88.2254 19.752C88.2254 20.2853 88.0974 20.7707 87.8414 21.208C87.5854 21.6453 87.212 21.992 86.7214 22.248C86.2414 22.504 85.6707 22.632 85.0094 22.632ZM85.0094 21.064C85.4254 21.064 85.7667 20.952 86.0334 20.728C86.3107 20.504 86.4494 20.184 86.4494 19.768C86.4494 19.352 86.3107 19.032 86.0334 18.808C85.7667 18.584 85.4254 18.472 85.0094 18.472C84.572 18.472 84.22 18.584 83.9534 18.808C83.6867 19.032 83.5534 19.352 83.5534 19.768C83.5534 20.184 83.6867 20.504 83.9534 20.728C84.22 20.952 84.572 21.064 85.0094 21.064ZM83.0894 25.976C83.0894 26.3707 83.2707 26.664 83.6334 26.856C84.0067 27.0587 84.46 27.16 84.9934 27.16C85.5054 27.16 85.9214 27.0533 86.2414 26.84C86.5614 26.6373 86.7214 26.36 86.7214 26.008C86.7214 25.72 86.6147 25.48 86.4014 25.288C86.1987 25.096 85.788 24.9787 85.1694 24.936C84.732 24.904 84.3267 24.856 83.9534 24.792C83.644 24.9627 83.42 25.1493 83.2814 25.352C83.1534 25.5547 83.0894 25.7627 83.0894 25.976ZM90.7588 25V17.064H92.5668L92.7268 18.408C92.9721 17.9387 93.3241 17.5653 93.7828 17.288C94.2521 17.0107 94.8014 16.872 95.4308 16.872C96.4121 16.872 97.1748 17.1813 97.7188 17.8C98.2627 18.4187 98.5347 19.3253 98.5347 20.52V25H96.4868V20.712C96.4868 20.0293 96.3481 19.5067 96.0708 19.144C95.7934 18.7813 95.3614 18.6 94.7748 18.6C94.1988 18.6 93.7241 18.8027 93.3508 19.208C92.9881 19.6133 92.8068 20.1787 92.8068 20.904V25H90.7588ZM100.541 25V13.8H104.685C105.581 13.8 106.322 13.9493 106.909 14.248C107.496 14.5467 107.933 14.9573 108.221 15.48C108.509 16.0027 108.653 16.5893 108.653 17.24C108.653 17.8587 108.514 18.4293 108.237 18.952C107.96 19.464 107.528 19.88 106.941 20.2C106.354 20.5093 105.602 20.664 104.685 20.664H102.589V25H100.541ZM102.589 19H104.557C105.272 19 105.784 18.8453 106.093 18.536C106.413 18.216 106.573 17.784 106.573 17.24C106.573 16.6853 106.413 16.2533 106.093 15.944C105.784 15.624 105.272 15.464 104.557 15.464H102.589V19ZM112.448 25.192C111.765 25.192 111.205 25.0853 110.768 24.872C110.331 24.648 110.005 24.3547 109.792 23.992C109.579 23.6293 109.472 23.2293 109.472 22.792C109.472 22.056 109.76 21.4587 110.336 21C110.912 20.5413 111.776 20.312 112.928 20.312H114.944V20.12C114.944 19.576 114.789 19.176 114.48 18.92C114.171 18.664 113.787 18.536 113.328 18.536C112.912 18.536 112.549 18.6373 112.24 18.84C111.931 19.032 111.739 19.32 111.664 19.704H109.664C109.717 19.128 109.909 18.6267 110.24 18.2C110.581 17.7733 111.019 17.448 111.552 17.224C112.085 16.9893 112.683 16.872 113.344 16.872C114.475 16.872 115.365 17.1547 116.016 17.72C116.667 18.2853 116.992 19.0853 116.992 20.12V25H115.248L115.056 23.72C114.821 24.1467 114.491 24.4987 114.064 24.776C113.648 25.0533 113.109 25.192 112.448 25.192ZM112.912 23.592C113.499 23.592 113.952 23.4 114.272 23.016C114.603 22.632 114.811 22.1573 114.896 21.592H113.152C112.608 21.592 112.219 21.6933 111.984 21.896C111.749 22.088 111.632 22.328 111.632 22.616C111.632 22.9253 111.749 23.1653 111.984 23.336C112.219 23.5067 112.528 23.592 112.912 23.592ZM118.946 25V13.48H120.994V25H118.946Z" fill="#1127E3" fill-opacity="0.5"/>
<path fill-rule="evenodd" clip-rule="evenodd" d="M0.992188 19.4452V33.9371C0.992188 36.4646 3.0411 38.5135 5.56857 38.5135H20.0604H34.5523C37.0798 38.5135 39.1287 36.4646 39.1287 33.9371V19.4452V4.95334C39.1287 2.42587 37.0798 0.376953 34.5523 0.376953H20.0604H5.56857C3.04111 0.376953 0.992188 2.42587 0.992188 4.95334V19.4452ZM21.485 12.7101C22.9958 12.9869 24.3548 13.8525 25.3695 15.1841C26.1437 16.2002 26.6279 17.3743 26.799 18.6507C26.8387 18.9472 26.8445 19.8421 26.8086 20.1338C26.5931 21.8831 25.7904 23.519 24.5605 24.7158C24.2637 25.0047 24.0271 25.1963 23.6862 25.424C23.1109 25.8084 22.5221 26.0504 21.8591 26.175V26.175C21.7138 26.2023 21.5662 26.2161 21.4184 26.2163L17.4606 26.2209V26.2209C15.1529 26.2235 13.2806 24.3534 13.2806 22.0457V19.4455V16.6456C13.2806 14.4474 15.0626 12.6654 17.2608 12.6654V12.6654H20.993C21.158 12.6654 21.3227 12.6803 21.485 12.7101V12.7101ZM16.9811 13.1152C16.7114 13.2261 16.385 13.4643 15.4113 14.2611C14.0196 15.3997 13.8457 15.5443 13.819 15.5851C13.7725 15.6561 13.7668 15.776 13.8059 15.8628C13.8324 15.9217 14.5092 16.8286 14.5864 16.9086C14.5942 16.9166 15.394 16.2975 16.3638 15.5328C17.3337 14.7681 18.1299 14.1403 18.1334 14.1378C18.1398 14.1329 17.5665 13.3766 17.4404 13.2234C17.3147 13.0709 17.1712 13.037 16.9811 13.1152ZM17.8358 15.1668C17.462 15.4625 17.1413 15.7152 17.1232 15.7284C17.0923 15.751 17.0979 15.7628 17.2189 15.9295L17.3003 16.0418C17.3261 16.0772 17.376 16.0843 17.4106 16.0575V16.0575C17.4454 16.0305 17.6774 15.8526 17.9261 15.6621V15.6621C18.2067 15.4472 18.5794 15.3953 18.908 15.5254L19.4414 15.7366C20.0875 15.9924 20.5219 16.1738 20.5489 16.1991C20.6449 16.2887 20.601 16.0423 21.348 20.6899C21.4557 21.36 21.5471 21.9225 21.5511 21.9401C21.5551 21.9576 21.5527 21.9696 21.5457 21.9666C21.5336 21.9614 21.019 21.4234 19.8849 20.23C19.6076 19.9382 19.3618 19.6784 19.3386 19.6525V19.6525C19.3145 19.6257 19.3142 19.5852 19.3378 19.558L19.5124 19.357C19.85 18.9684 19.9306 18.8013 19.9159 18.5205C19.9055 18.3236 19.8372 18.1767 19.6856 18.026C19.3776 17.7198 18.9851 17.6652 18.6578 17.883C18.5311 17.9673 18.4783 18.027 18.1288 18.4823L17.9605 18.7015C17.8784 18.8084 17.8872 18.9594 17.9811 19.0561V19.0561C18.1525 19.2324 18.4287 19.5139 19.9133 21.0254C20.7614 21.8889 20.9236 22.0583 20.9023 22.0583C20.8974 22.0583 20.5849 21.9189 20.2077 21.7486C19.8305 21.5782 18.7433 21.0882 17.7917 20.6597C16.84 20.2312 16.0402 19.866 16.0144 19.8482C15.9106 19.7767 15.9042 19.743 15.771 18.5747C15.7025 17.9745 15.6467 17.466 15.647 17.4447C15.6474 17.4148 15.7844 17.3016 16.2473 16.9483C16.5772 16.6965 16.8471 16.4852 16.8471 16.4787C16.8471 16.47 16.6749 16.2315 16.607 16.146C16.6042 16.1425 16.2319 16.4318 15.7796 16.7889C14.972 17.4266 14.9575 17.439 14.9666 17.4926C14.9717 17.5227 15.0317 18.0438 15.1001 18.6507C15.1684 19.2576 15.2366 19.7979 15.2516 19.8513C15.3241 20.1093 15.5204 20.3554 15.748 20.4739C15.8136 20.5081 16.614 20.8716 17.5268 21.2818C18.4396 21.6921 19.9251 22.36 20.8278 22.7661C21.7306 23.1721 22.4719 23.5017 22.4753 23.4983C22.4786 23.4949 22.3177 22.4763 22.1177 21.2348C21.9177 19.9932 21.6545 18.3576 21.5327 17.6002C21.393 16.7311 21.2965 16.18 21.2712 16.1065C21.1995 15.898 21.022 15.6818 20.8312 15.5707C20.7909 15.5471 20.2613 15.3319 19.6544 15.0923C19.0474 14.8527 18.5429 14.6505 18.5332 14.6429C18.5232 14.6351 18.2232 14.8604 17.8358 15.1668ZM19.1534 18.2908C19.2618 18.3361 19.3478 18.4146 19.397 18.5133C19.4845 18.6889 19.4438 18.8091 19.1902 19.1237V19.1237C19.1039 19.2309 18.9432 19.238 18.8476 19.139L18.7495 19.0372C18.5966 18.8786 18.4714 18.7425 18.4714 18.7347C18.4714 18.7154 18.6379 18.5003 18.7261 18.4059C18.8523 18.2706 19.0059 18.2292 19.1534 18.2908Z" fill="#1127E3" fill-opacity="0.5"/>
</svg>
