<svg width="45" height="46" viewBox="0 0 45 46" fill="none" xmlns="http://www.w3.org/2000/svg">
<g clip-path="url(#clip0_8421_3753)">
<path fill-rule="evenodd" clip-rule="evenodd" d="M16.4971 0.737305C14.0095 0.73914 11.9963 2.75382 11.9982 5.23639C11.9963 7.71896 14.0114 9.73363 16.4989 9.73547H20.9996V5.23822C21.0015 2.75565 18.9864 0.740974 16.4971 0.737305C16.4989 0.737305 16.4989 0.737305 16.4971 0.737305V0.737305ZM16.4971 12.7373H4.49879C2.01125 12.7391 -0.00378664 14.7538 -0.0019481 17.2364C-0.00562517 19.719 2.00941 21.7336 4.49695 21.7373H16.4971C18.9846 21.7355 20.9996 19.7208 20.9978 17.2382C20.9996 14.7538 18.9846 12.7391 16.4971 12.7373Z" fill="#36C5F0"/>
<path fill-rule="evenodd" clip-rule="evenodd" d="M44.9978 17.2364C44.9997 14.7538 42.9846 12.7391 40.4971 12.7373C38.0096 12.7391 35.9945 14.7538 35.9964 17.2364V21.7373H40.4971C42.9846 21.7355 44.9997 19.7208 44.9978 17.2364ZM32.9977 17.2364V5.23639C32.9995 2.75565 30.9863 0.740974 28.4988 0.737305C26.0113 0.73914 23.9962 2.75382 23.9981 5.23639V17.2364C23.9944 19.719 26.0094 21.7336 28.497 21.7373C30.9845 21.7355 32.9995 19.7208 32.9977 17.2364Z" fill="#2EB67D"/>
<path fill-rule="evenodd" clip-rule="evenodd" d="M28.4968 45.7372C30.9844 45.7354 32.9994 43.7207 32.9976 41.2381C32.9994 38.7555 30.9844 36.7409 28.4968 36.739H23.9961V41.2381C23.9943 43.7188 26.0093 45.7335 28.4968 45.7372ZM28.4968 33.7354H40.497C42.9845 33.7335 44.9995 31.7188 44.9977 29.2363C45.0014 26.7537 42.9863 24.739 40.4988 24.7354H28.4987C26.0111 24.7372 23.9961 26.7519 23.9979 29.2344C23.9961 31.7188 26.0093 33.7335 28.4968 33.7354Z" fill="#ECB22E"/>
<path fill-rule="evenodd" clip-rule="evenodd" d="M-0.00195187 29.2364C-0.0037904 31.719 2.01125 33.7336 4.49879 33.7355C6.98633 33.7336 9.00136 31.719 8.99953 29.2364V24.7373H4.49879C2.01125 24.7391 -0.0037904 26.7538 -0.00195187 29.2364ZM11.9982 29.2364V41.2364C11.9945 43.719 14.0095 45.7337 16.4971 45.7373C18.9846 45.7355 20.9997 43.7208 20.9978 41.2382V29.2401C21.0015 26.7575 18.9865 24.7428 16.4989 24.7391C14.0095 24.7391 11.9963 26.7538 11.9982 29.2364C11.9982 29.2364 11.9982 29.2382 11.9982 29.2364Z" fill="#E01E5A"/>
</g>
<defs>
<clipPath id="clip0_8421_3753">
<rect width="45" height="45" fill="white" transform="translate(0 0.737305)"/>
</clipPath>
</defs>
</svg>
