<svg xmlns="http://www.w3.org/2000/svg" width="196" height="41" fill="none"><path fill="#1127E3" fill-opacity=".5" fill-rule="evenodd" d="M7.605 1.107c-1.494 1.494-.492 3.81 1.648 3.81 1.399 0 2.162-.787 2.162-2.23a2.21 2.21 0 0 0-3.81-1.58Zm8.65 1.51-1.489 2.16 1.57.084c.863.047 2.2.047 2.969 0l1.4-.084-1.306-1.97c-.719-1.082-1.385-2.054-1.48-2.16-.097-.105-.845.781-1.664 1.97Zm8.508-1.51c-1.494 1.494-.492 3.81 1.648 3.81 1.399 0 2.162-.787 2.162-2.23a2.21 2.21 0 0 0-3.81-1.58ZM.727 16.124c0 8.558.056 9.737.555 11.69.833 3.258 2.05 5.332 4.635 7.907 2.477 2.466 4.63 3.72 7.763 4.523 2.49.638 7.314.42 9.752-.44 4.798-1.692 8.732-5.688 10.53-10.697.635-1.77.659-2.16.744-12.165l.087-10.337H.727v9.519Zm30.94-3.363v3.061l-12.494 7.804c-6.872 4.292-12.6 7.808-12.728 7.813-.397.016-1.738-2.705-2.193-4.448-.338-1.299-.431-3.354-.431-9.475V9.699h27.846v3.062Zm62.444.032v1.97h4.5v-3.939h-4.5v1.97Zm66.101 0v1.97h4.5v-3.939h-4.5v1.97ZM51.919 19.071c0 8.882.155 9.933 1.778 12.06.57.748 1.547 1.527 2.574 2.052 1.582.809 1.815.847 5.192.847 3.301 0 3.631-.05 4.981-.763.795-.419 1.905-1.3 2.467-1.956 1.747-2.041 1.915-3.028 2.065-12.119l.133-8.087H66.828l-.003 7.525c0 4.308-.125 7.971-.291 8.57-.657 2.362-2.518 3.663-5.217 3.648-1.901-.011-2.637-.281-3.85-1.412-1.398-1.305-1.61-2.744-1.61-10.928v-7.402H51.92v7.965Zm84.384 3.426V33.89H140.522V11.105H136.303v11.392ZM7.759 16.042c0 3.416.236 4.308 1.51 5.708 2.405 2.645 7.137 1.84 8.64-1.47.412-.908.527-1.842.532-4.322l.006-3.165H14.79v2.954c0 2.578-.07 3.024-.562 3.516-.676.675-1.346.713-2.188.124-.581-.407-.625-.654-.625-3.516v-3.078H7.76v3.249Zm162.016-.295v2.39h-3.094V21.232H169.728l.094 4.732c.091 4.579.118 4.77.842 5.863.991 1.496 2.415 2.152 4.982 2.294 2.374.131 2.557 0 2.563-1.85l.005-1.195h-1.285c-2.716 0-3.216-.96-3.216-6.179v-3.665H177.932v-3.094H173.713v-4.782h-3.938v2.39ZM81.501 18.46c-.67.331-1.365.838-1.545 1.125-.493.79-.753.63-.753-.463v-.985H75.266V33.89H79.484v-5.133c.002-4.653.055-5.22.57-6.065 1.024-1.68 3.582-2.257 4.914-1.108 1.032.891 1.252 2.214 1.26 7.595l.006 4.711H90.173v-5.574c0-6.222-.288-7.855-1.61-9.116-1.068-1.019-2.059-1.343-4.104-1.343-1.212 0-2.11.184-2.958.604Zm41.081.121c-2.811 1.4-4.115 3.748-4.13 7.432-.009 2.064.098 2.612.781 4.003 1.41 2.87 3.748 4.154 7.564 4.154 2.023 0 4.68-.742 5.584-1.561.476-.43.473-.51-.056-1.784l-.555-1.333-1.57.792c-2.569 1.296-5.831.954-6.932-.727-.226-.345-.54-1.093-.697-1.663l-.287-1.037h11.006l-.182-1.951c-.209-2.253-.494-3.126-1.494-4.58-1.671-2.43-5.986-3.263-9.032-1.745Zm26.274-.312c-2.12.756-4.098 2.829-4.673 4.898-.434 1.563-.341 4.833.18 6.363.607 1.78 2.394 3.568 4.175 4.175 2.605.887 6.93.417 8.657-.941l.717-.565-.576-1.364-.576-1.364-1.298.727c-1.723.965-4.372 1.034-5.566.146-1.349-1.005-1.895-2.252-1.895-4.33 0-3.076 1.403-4.779 4.112-4.992 1.23-.097 1.767.024 3.088.697l1.599.814.481-1.258c.605-1.587.39-1.961-1.596-2.777-1.791-.735-5.098-.846-6.829-.229Zm-54.463 7.744v7.876H98.33V18.137h-3.939v7.876Zm5.906-7.775c0 .068 1.502 3.586 3.338 7.817l3.337 7.694h3.807l3.187-7.27c1.753-4 3.264-7.512 3.357-7.806.156-.491.009-.535-1.783-.535h-1.953l-1.77 4.289c-.973 2.36-2.013 4.86-2.31 5.555l-.54 1.266-2.195-5.485-2.195-5.485-2.14-.082c-1.177-.045-2.14-.026-2.14.042Zm60.194 7.775v7.876h3.938V18.137h-3.938v7.876Zm20.106-3.164c1.129 2.591 2.625 6.011 3.324 7.6l1.272 2.888-1.381 3.085c-.76 1.697-1.381 3.156-1.381 3.242 0 .086.916.12 2.036.074l2.035-.083 4.715-10.687c2.593-5.878 4.715-10.725 4.715-10.771 0-.046-.91-.047-2.023-.002l-2.022.083-2.203 5.327c-1.212 2.93-2.248 5.373-2.304 5.43-.056.055-1.09-2.374-2.296-5.398l-2.194-5.5h-4.346l2.053 4.712ZM31.667 20.923v1.66l-7.383 4.573c-4.061 2.516-7.438 4.619-7.505 4.673-.174.143 1.726 2.06 2.041 2.06.205 0 8.122-4.814 11.98-7.286l.682-.436-.19.978c-.106.538-.568 1.749-1.029 2.692-3.95 8.08-14.489 10.261-21.52 4.452-.31-.255-.436-.518-.281-.583.154-.066 5.407-3.338 11.673-7.271 6.265-3.934 11.423-7.157 11.462-7.162.039-.006.07.737.07 1.65Zm96.207.173c.932.482 1.678 1.724 1.678 2.794v.717h-3.516c-3.504 0-3.516-.002-3.516-.662 0-.858 1.091-2.468 1.978-2.916.943-.477 2.379-.45 3.376.067Z" clip-rule="evenodd"/></svg>