<svg width="49" height="56" viewBox="0 0 49 56" fill="none" xmlns="http://www.w3.org/2000/svg">
<path fill-rule="evenodd" clip-rule="evenodd" d="M0.486328 27.6448V55.2894L12.9787 55.1717C27.3391 55.0361 27.9235 54.9508 33.5406 52.1602C46.8262 45.5599 52.4433 29.4229 46.1381 15.9685C45.4746 14.5522 44.4863 12.7465 43.9423 11.9557C41.0664 7.77566 35.9475 3.70642 31.3221 1.92335C26.8276 0.190566 24.9207 0 12.091 0H0.486328V27.6448ZM5.37867 12.7813L5.46029 23.2345L14.2242 23.3338L22.988 23.4328L25.0436 24.4068C30.0374 26.773 32.76 31.2814 32.3633 36.5273C32.1442 39.4236 31.1175 41.6918 29.0222 43.9072C26.1821 46.9103 25.818 47.0041 16.5479 47.1254L8.55591 47.23V38.2023V29.1746H9.95257H11.3492V36.7787V44.3827H16.4585C22.1674 44.3827 23.8158 44.0072 25.9943 42.2101C27.3934 41.0562 28.6821 38.5161 28.9297 36.4236C29.3404 32.9574 27.2022 29.251 23.8229 27.5707C22.4049 26.8655 22.1134 26.8444 12.5131 26.7497L2.65891 26.6523V14.3946V2.13689L3.97797 2.23248L5.29704 2.32776L5.37867 12.7813ZM27.3332 3.0652C34.575 5.0289 40.4531 9.7853 43.6353 16.2559C45.824 20.7062 46.2554 22.5759 46.257 27.6228C46.2579 31.0449 46.1304 32.2563 45.5602 34.2333C42.9969 43.1266 35.8907 50.0373 27.156 52.1311C24.7879 52.6987 23.5026 52.7586 13.5994 52.7605L2.65891 52.7627V40.9687V29.1746H4.36593H6.07296V39.2616V49.3486H15.024C22.9607 49.3486 24.2531 49.2781 26.43 48.726C32.8705 47.0928 37.7067 43.1453 40.6874 37.089C46.009 26.2752 41.6623 13.501 30.7938 8.01465C27.3332 6.26789 25.034 5.897 17.6621 5.897H11.0389V13.3458V20.7947H9.33183H7.6248V11.6907C7.6248 6.68317 7.72971 2.47984 7.85758 2.3498C7.98545 2.21976 11.8613 2.17599 16.4703 2.25265C23.8211 2.37494 25.1553 2.47488 27.3332 3.0652ZM25.7475 8.68163C38.9944 12.0696 44.807 27.1408 37.2507 38.5071C35.9487 40.4655 33.156 43.3256 32.8472 43.0168C32.7746 42.9441 32.9248 42.5584 33.1812 42.1595C34.1868 40.5943 34.6998 37.8845 34.5757 34.7926C34.4686 32.125 34.3333 31.5477 33.3106 29.3944C31.7882 26.1889 29.5495 23.9487 26.3338 22.4133L23.9192 21.2602L18.7205 21.1513L13.5218 21.0424V14.556V8.06958H18.438C22.3152 8.06958 23.8602 8.19901 25.7475 8.68163ZM23.1721 29.8969C25.2153 30.9754 26.3447 32.7712 26.4983 35.1846C26.6312 37.2703 26.205 38.5447 24.8915 39.9901C23.5135 41.5068 22.3018 41.8485 18.0017 41.9333L13.9874 42.0124L13.9036 35.5934L13.8195 29.1746H17.8117C21.3921 29.1746 21.9452 29.2491 23.1721 29.8969Z" fill="black"/>
</svg>
