<svg width="211" height="30" viewBox="0 0 211 30" fill="none" xmlns="http://www.w3.org/2000/svg">
<path fill-rule="evenodd" clip-rule="evenodd" d="M0 14.7445V29.489H105.318H210.636V14.7445V0H105.318H0V14.7445ZM16.1398 11.5946L21.214 18.6756L21.3645 11.823L21.515 4.97041L22.4177 4.77752C22.9142 4.6716 23.7606 4.56869 24.2984 4.54913L25.2763 4.51363V14.5941V24.6745H24.428C23.6661 24.6745 23.0604 23.9541 18.4851 17.6049L13.3904 10.5351L13.3098 17.6049L13.2291 24.6745H11.2786H9.32816V14.7948C9.32816 9.36066 9.41843 4.82447 9.52887 4.71433C9.639 4.6039 10.0302 4.51363 10.3976 4.51363C10.9254 4.51363 12.1329 6.00282 16.1398 11.5946ZM51.9184 5.42628C52.5052 5.91315 52.4866 7.94428 51.8908 8.43868C51.2862 8.94029 48.9163 8.94029 48.3117 8.43868C47.5724 7.82512 47.7027 5.85357 48.5215 5.26319C49.2765 4.71854 51.1755 4.80972 51.9184 5.42628ZM141.088 5.0026L142.029 5.19067V7.99724V10.8041L143.909 10.8935C145.712 10.9795 145.794 11.0175 145.885 11.8107L145.981 12.6382H144.005H142.029V18.6563V24.6745H140.079H138.13L138.048 18.7316L137.967 12.7886L136.82 12.6941C135.772 12.6078 135.681 12.5301 135.767 11.7914C135.847 11.0948 136.016 10.9702 136.989 10.8899L138.117 10.7963V7.80557V4.81454H139.133C139.691 4.81454 140.571 4.89909 141.088 5.0026ZM164.418 5.10491C165.259 5.42448 165.669 6.50594 165.382 7.64969C164.979 9.25504 161.424 9.35103 160.868 7.77156C160.117 5.63692 162.033 4.19797 164.418 5.10491ZM39.237 10.5426C41.7255 10.9025 43.9152 12.0213 44.6981 13.3336C45.1865 14.1523 45.2879 15.0541 45.3881 19.4829L45.5055 24.6724L43.7136 24.4852C42.7281 24.382 40.7614 24.4627 39.3429 24.664C34.9481 25.2877 30.5434 24.2201 29.0533 22.17C28.5099 21.4223 28.4358 20.8752 28.4358 17.6031C28.4358 14.2944 28.5054 13.7927 29.0687 13.0384C29.9335 11.8799 31.9869 10.8818 34.1531 10.5667C36.6467 10.2041 36.8872 10.2032 39.237 10.5426ZM64.7805 10.8038C65.3763 11.3837 64.6264 11.9352 63.1971 11.9677C62.3867 11.9864 61.3104 12.2151 60.8052 12.4766C59.0584 13.3799 58.8778 14.0007 58.7319 19.6063L58.5995 24.7013L56.7576 24.6125L54.9158 24.524V17.7536V10.9832L57.0221 10.9305C58.1806 10.9016 60.0087 10.7484 61.0844 10.5902C63.0469 10.3013 64.3411 10.3762 64.7805 10.8038ZM77.1514 10.5426C79.8367 10.9308 81.9434 12.0649 82.6547 13.5051C83.1049 14.4165 83.1934 15.4032 83.197 19.559L83.2012 24.524L82.4489 24.4753C79.9246 24.3119 79.0649 24.3432 77.0635 24.6709C73.0506 25.3281 68.4314 24.1837 66.9678 22.17C66.4288 21.4283 66.3503 20.8734 66.3503 17.8069C66.3503 14.8176 66.4415 14.1379 66.9615 13.2532C67.7279 11.9482 69.6991 10.9112 72.0676 10.5667C74.5612 10.2041 74.8016 10.2032 77.1514 10.5426ZM129.596 11.0024C132.559 11.8329 133.598 13.3694 133.602 16.9261L133.603 18.6563H127.134H120.664V19.7929C120.664 22.0154 122.372 23.2834 125.328 23.2566C127.635 23.2358 129.463 22.736 130.503 21.8411C131.177 21.2619 131.448 21.1912 132.012 21.4485C134.102 22.4008 130.911 24.3366 126.411 24.8454C124.263 25.0885 120.081 24.3155 118.599 23.4016C118.042 23.0583 117.414 22.3578 117.203 21.8454C116.144 19.2741 116.439 14.0876 117.721 12.7134C119.835 10.4475 124.974 9.70701 129.596 11.0024ZM158.224 10.5276C158.462 10.5303 158.582 10.8014 158.525 11.2088C158.442 11.792 158.23 11.8943 157 11.9467C155.305 12.0186 153.586 12.7675 153.077 13.6552C152.848 14.0539 152.654 16.2126 152.561 19.4086L152.41 24.524L150.529 24.6137L148.649 24.7031V17.7665V10.8297L150.83 10.8625C152.03 10.8808 153.824 10.7611 154.817 10.5965C155.81 10.4319 156.894 10.3482 157.225 10.4105C157.556 10.4728 158.005 10.5255 158.224 10.5276ZM179.343 10.6835C181.132 10.8715 183.404 11.9524 183.404 12.615C183.404 13.5126 182.477 13.6561 181.073 12.9761C177.363 11.1803 172.987 11.7836 172.142 14.2074C171.672 15.5576 171.737 19.9857 172.246 21.2038C172.829 22.5976 174.222 23.2762 176.483 23.2665C178.762 23.2572 180.603 22.7487 181.665 21.8348C182.429 21.1773 182.558 21.1554 183.325 21.552C183.782 21.7885 184.156 22.0406 184.156 22.1123C184.156 22.1842 183.784 22.5913 183.328 23.0168C180.77 25.4096 172.291 25.3961 169.437 22.9948C168.203 21.9564 167.818 20.3369 167.96 16.7838C168.098 13.3597 168.496 12.5864 170.688 11.4866C172.034 10.811 175.382 10.2402 176.934 10.4217C177.348 10.4701 178.432 10.5878 179.343 10.6835ZM98.9236 11.2991C100.154 11.8067 100.251 11.8052 101.473 11.2546C102.474 10.8035 103.446 10.6823 106.062 10.6823C109.004 10.6823 109.549 10.7677 110.869 11.4345C113.484 12.7558 113.593 13.0657 113.593 19.2049V24.524L111.747 24.6128L109.9 24.7013L109.786 19.4775C109.658 13.577 109.464 12.9607 107.54 12.3258C106.334 11.9277 103.29 12.1134 102.295 12.6457C101.743 12.9412 101.707 13.3143 101.707 18.8318V24.7031L99.8264 24.6137L97.9457 24.524L97.7952 19.2281C97.6339 13.5517 97.5659 13.3029 95.9513 12.4678C94.9748 11.9629 92.7018 11.9082 91.1063 12.3514L89.9843 12.6628L89.9027 18.5934L89.8212 24.524L87.9405 24.6137L86.0598 24.7031V17.88V11.0572L87.5962 11.2046C88.4893 11.2904 89.6545 11.1812 90.3796 10.9434C92.0963 10.3804 97.2142 10.5935 98.9236 11.2991ZM196.72 11.1529C197.829 11.5395 197.874 11.6424 197.242 12.3415C196.831 12.7952 196.626 12.8037 195.145 12.4263C192.434 11.7357 190.475 12.5708 190.475 14.4168C190.475 15.2088 191.319 15.7453 193.985 16.6469C196.774 17.5893 197.901 18.4072 198.274 19.7577C198.881 21.9588 197.711 23.9135 195.365 24.6164C192.759 25.3973 186.864 24.6829 186.864 23.5861C186.864 22.8182 187.94 22.5456 189.084 23.0234C190.387 23.5678 192.466 23.5963 193.479 23.0839C193.89 22.876 194.355 22.3403 194.512 21.8938C194.916 20.7452 194.173 20.0375 191.736 19.2503C187.823 17.9862 186.714 16.9866 186.714 14.7262C186.714 13.4735 186.856 13.1091 187.661 12.3044C188.203 11.7619 189.232 11.1812 190.068 10.9455C191.683 10.49 195.126 10.5974 196.72 11.1529ZM50.9287 11.0259L52.0572 11.2125V17.9435V24.6745H50.1012H48.1453V17.7536V10.8327L48.9728 10.836C49.4278 10.8378 50.3083 10.9233 50.9287 11.0259ZM164.975 11.3915C165.105 11.5212 165.174 14.5291 165.13 18.0756L165.048 24.524L163.168 24.6137L161.287 24.7031V17.7265V10.75L163.013 10.9528C163.963 11.0644 164.845 11.2618 164.975 11.3915ZM34.3036 12.5635C32.6085 13.41 32.1445 14.6756 32.2655 18.1207C32.3618 20.8602 32.4226 21.1024 33.2263 21.941C34.3282 23.0914 36.3299 23.5503 38.6195 23.1778C41.6885 22.6783 41.6241 22.7875 41.4637 18.3476C41.3072 14.0115 40.9994 13.1915 39.2547 12.4624C37.863 11.8811 35.5764 11.9277 34.3036 12.5635ZM72.3685 12.4585C70.4944 13.2857 70.2621 13.8541 70.2621 17.6149C70.2621 20.9628 70.2778 21.0404 71.1305 21.9305C72.2433 23.092 74.2353 23.5518 76.534 23.1778C79.6029 22.6783 79.5385 22.7875 79.3781 18.3476C79.2217 14.0115 78.9138 13.1915 77.1692 12.4624C75.9008 11.9325 73.5643 11.9307 72.3685 12.4585ZM122.465 12.5933C121.255 13.2364 120.755 14.1015 120.615 15.7977L120.515 17.0013L125.146 17.0847L129.777 17.168L129.593 15.6141C129.492 14.7593 129.168 13.7891 128.873 13.4581C127.586 12.0117 124.375 11.5784 122.465 12.5933Z" fill="#273B91"/>
</svg>
