<svg width="86" height="31" viewBox="0 0 86 31" fill="none" xmlns="http://www.w3.org/2000/svg">
<g clip-path="url(#clip0_7086_1552)">
<path d="M47.8587 14.4404C46.9071 14.4414 45.9766 14.1601 45.1849 13.6321C44.3932 13.1042 43.7759 12.3532 43.4111 11.4744C43.0463 10.5955 42.9503 9.62815 43.1354 8.69473C43.3204 7.7613 43.7782 6.90374 44.4507 6.23052C45.1232 5.55731 45.9803 5.09869 46.9136 4.91269C47.8468 4.72669 48.8142 4.82166 49.6935 5.18559C50.5727 5.54953 51.3243 6.16607 51.853 6.95722C52.3818 7.74837 52.6641 8.67858 52.6641 9.63016C52.6628 10.9047 52.1562 12.1267 51.2555 13.0284C50.3547 13.9301 49.1332 14.4378 47.8587 14.4404ZM47.8587 0.908203C46.1336 0.908203 44.4473 1.41974 43.013 2.37812C41.5787 3.3365 40.4608 4.69868 39.8006 6.29241C39.1405 7.88614 38.9678 9.63984 39.3043 11.3317C39.6409 13.0236 40.4715 14.5777 41.6913 15.7975C42.9111 17.0173 44.4652 17.848 46.1571 18.1845C47.849 18.5211 49.6027 18.3484 51.1964 17.6882C52.7902 17.0281 54.1523 15.9101 55.1107 14.4758C56.0691 13.0415 56.5806 11.3552 56.5806 9.63016C56.5768 7.31815 55.6566 5.10193 54.0218 3.46709C52.3869 1.83224 50.1707 0.912077 47.8587 0.908203Z" fill="#099DFD"/>
<path d="M62.3492 3.1556L62.2417 3.26304L62.1245 3.37536L62.0464 3.23373L61.978 3.11653C61.6672 2.54023 61.2248 2.04533 60.6869 1.672C60.1489 1.29866 59.5305 1.05739 58.8819 0.967783L58.5547 0.904297V18.358L58.8819 18.314C59.8839 18.1988 60.807 17.7141 61.4708 16.9546C62.1345 16.1951 62.4912 15.2154 62.4713 14.207V9.63114C62.4807 8.44468 62.9248 7.30285 63.7194 6.42179C64.5141 5.54073 65.6042 4.98158 66.7834 4.85018L67.0422 4.82088V0.914064L66.7297 0.948249C65.0552 1.16622 63.505 1.94822 62.3345 3.16537" fill="#099DFD"/>
<path d="M8.72317 14.4473C7.77179 14.4473 6.84177 14.1651 6.05073 13.6366C5.25969 13.108 4.64314 12.3568 4.27906 11.4778C3.91499 10.5988 3.81973 9.63166 4.00533 8.69856C4.19094 7.76546 4.64907 6.90836 5.3218 6.23563C5.99453 5.5629 6.85163 5.10477 7.78473 4.91916C8.71783 4.73356 9.68502 4.82882 10.564 5.1929C11.4429 5.55697 12.1942 6.17352 12.7228 6.96456C13.2513 7.75561 13.5334 8.68562 13.5334 9.637C13.5321 10.9124 13.0249 12.1351 12.1231 13.0369C11.2213 13.9388 9.99853 14.446 8.72317 14.4473ZM14.3246 2.62915L14.2513 2.72682L14.1781 2.82449L14.0804 2.75124L13.9876 2.67799C12.8841 1.84426 11.5982 1.2849 10.2359 1.04607C8.87366 0.807242 7.47413 0.895793 6.15284 1.30442C4.83155 1.71304 3.62637 2.43002 2.63677 3.39618C1.64716 4.36235 0.901508 5.54999 0.461338 6.86112C0.0211669 8.17224 -0.100899 9.56924 0.105214 10.9368C0.311326 12.3044 0.839708 13.6034 1.64675 14.7265C2.4538 15.8497 3.51637 16.7648 4.74677 17.3964C5.97717 18.028 7.34013 18.3579 8.72317 18.359C10.6254 18.3645 12.4761 17.7413 13.9876 16.5862L14.0804 16.5179L14.1781 16.4397L14.2513 16.5423L14.3246 16.64C14.6537 17.0941 15.0712 17.4771 15.5521 17.7658C16.033 18.0544 16.5672 18.2429 17.1228 18.3199L17.4451 18.3638V0.910156L17.1228 0.954108C16.5677 1.03074 16.0338 1.21859 15.553 1.50641C15.0721 1.79422 14.6543 2.17609 14.3246 2.62915Z" fill="#099DFD"/>
<path d="M76.74 14.4463C75.7888 14.4453 74.8593 14.1624 74.0689 13.6332C73.2785 13.1041 72.6627 12.3525 72.2994 11.4734C71.936 10.5944 71.8415 9.62737 72.0276 8.6946C72.2138 7.76182 72.6723 6.90517 73.3452 6.23293C74.0181 5.56069 74.8753 5.10304 75.8082 4.91783C76.7412 4.73262 77.7081 4.82817 78.5868 5.19239C79.4655 5.55661 80.2164 6.17315 80.7448 6.96409C81.2731 7.75503 81.5551 8.68485 81.5551 9.63602C81.5538 10.9114 81.0466 12.1341 80.1448 13.036C79.243 13.9378 78.0202 14.445 76.7449 14.4463H76.74ZM85.1396 0.95313C84.584 1.03022 84.0495 1.21823 83.5679 1.50598C83.0864 1.79374 82.6676 2.17536 82.3365 2.62818L82.2681 2.72096L82.1949 2.82352L82.0972 2.75026L82.0044 2.67701C80.9015 1.84049 79.6153 1.2785 78.2522 1.0375C76.8891 0.796499 75.4882 0.883408 74.1653 1.29104C72.8424 1.69868 71.6355 2.41533 70.6444 3.38175C69.6534 4.34818 68.9066 5.53661 68.4658 6.84882C68.025 8.16102 67.9028 9.5593 68.1094 10.9281C68.316 12.2968 68.8455 13.5967 69.6539 14.7204C70.4624 15.844 71.5268 16.759 72.7589 17.3899C73.9911 18.0207 75.3557 18.3492 76.74 18.3482C78.6422 18.3537 80.493 17.7305 82.0044 16.5755L82.0972 16.5071L82.1949 16.429L82.2681 16.5315L82.3365 16.6292C82.667 17.0831 83.0855 17.4658 83.5671 17.7545C84.0487 18.0431 84.5835 18.2317 85.1396 18.3091L85.4619 18.3531V0.909179L85.1396 0.95313Z" fill="#099DFD"/>
<path d="M28.4139 4.8199C29.3651 4.82087 30.2946 5.1038 31.085 5.63295C31.8754 6.16209 32.4912 6.91369 32.8545 7.79274C33.2179 8.67178 33.3124 9.63881 33.1263 10.5716C32.9401 11.5044 32.4816 12.361 31.8087 13.0333C31.1358 13.7055 30.2786 14.1631 29.3457 14.3484C28.4127 14.5336 27.4458 14.438 26.5671 14.0738C25.6884 13.7096 24.9374 13.093 24.4091 12.3021C23.8808 11.5112 23.5988 10.5813 23.5988 9.63016C23.5994 8.99742 23.7247 8.371 23.9676 7.78673C24.2105 7.20245 24.5662 6.67178 25.0143 6.22504C25.4624 5.7783 25.9941 5.42426 26.5791 5.18316C27.1641 4.94205 27.7909 4.81862 28.4237 4.8199H28.4139ZM33.8688 16.4329C35.5841 15.0671 36.7206 13.1042 37.0511 10.9366C37.3815 8.76907 36.8816 6.55664 35.6513 4.74176C35.5292 4.55619 35.3925 4.3755 35.2508 4.19969C35.7555 3.86751 36.1831 3.43107 36.5049 2.91974C36.8267 2.40841 37.0352 1.83408 37.1163 1.2354L37.1652 0.908203H28.3797C26.5749 0.912135 24.8159 1.47616 23.3453 2.52243C21.8747 3.5687 20.7651 5.04563 20.1697 6.74937C19.5743 8.45312 19.5224 10.2997 20.0211 12.0342C20.5198 13.7687 21.5447 15.3056 22.9541 16.4329C22.5796 16.7292 22.23 17.0559 21.9091 17.4096L24.5657 20.3397C24.9889 19.7687 25.5334 19.2985 26.1601 18.963C26.7867 18.6275 27.48 18.4351 28.1899 18.3996C28.8998 18.364 29.6087 18.4863 30.2657 18.7575C30.9228 19.0287 31.5115 19.4422 31.9897 19.9681C32.4678 20.494 32.8234 21.1194 33.031 21.7992C33.2385 22.4791 33.2928 23.1964 33.19 23.8997C33.0872 24.6031 32.8298 25.2748 32.4363 25.8668C32.0428 26.4587 31.523 26.9561 30.9143 27.3231L33.5758 30.2533C34.6466 29.4586 35.5208 28.4288 36.1309 27.243C36.741 26.0573 37.0708 24.7474 37.0949 23.4141C37.119 22.0808 36.8366 20.7598 36.2697 19.5529C35.7028 18.3459 34.8663 17.2852 33.8248 16.4524" fill="#099DFD"/>
</g>
<defs>
<clipPath id="clip0_7086_1552">
<rect width="85.4615" height="29.7895" fill="white" transform="translate(0 0.675781)"/>
</clipPath>
</defs>
</svg>
