<svg xmlns="http://www.w3.org/2000/svg" width="94" height="36" fill="none"><path fill="url(#a)" d="M41.735 27V8.414h3.398v7.514l6.877-7.514h4.196l-6.85 7.381L56.39 27h-4.168l-5.31-8.603-1.78 1.938V27h-3.398Zm16.904 0V7.882h3.399V27h-3.399Zm11.412.319c-1.133 0-2.062-.177-2.788-.531-.726-.372-1.266-.859-1.62-1.46a3.856 3.856 0 0 1-.53-1.992c0-1.222.477-2.213 1.433-2.974.956-.761 2.39-1.142 4.301-1.142h3.346v-.318c0-.903-.257-1.567-.77-1.992-.513-.425-1.15-.637-1.912-.637-.69 0-1.292.168-1.805.504-.514.32-.832.797-.956 1.434h-3.32c.09-.956.408-1.788.957-2.496a5.42 5.42 0 0 1 2.177-1.62c.885-.389 1.876-.584 2.974-.584 1.876 0 3.354.47 4.434 1.408s1.62 2.266 1.62 3.983V27h-2.894l-.32-2.124a4.87 4.87 0 0 1-1.645 1.752c-.69.46-1.585.69-2.682.69Zm.77-2.656c.974 0 1.726-.318 2.257-.956.549-.637.894-1.424 1.035-2.363H71.22c-.903 0-1.549.169-1.938.505-.39.319-.584.717-.584 1.195 0 .513.194.911.584 1.195.39.283.903.424 1.54.424Zm15.457 2.656c-1.168 0-2.195-.186-3.08-.558-.885-.39-1.593-.92-2.124-1.593a4.574 4.574 0 0 1-.956-2.337h3.425c.106.514.39.956.85 1.328.478.354 1.089.531 1.832.531.744 0 1.283-.15 1.62-.451.354-.301.53-.646.53-1.036 0-.566-.247-.947-.743-1.142-.495-.212-1.186-.416-2.07-.61a22.615 22.615 0 0 1-1.727-.452 8.862 8.862 0 0 1-1.62-.664 3.752 3.752 0 0 1-1.168-1.062c-.3-.442-.451-.982-.451-1.62 0-1.168.46-2.15 1.38-2.947.939-.796 2.249-1.194 3.93-1.194 1.558 0 2.797.362 3.718 1.088.938.726 1.496 1.726 1.672 3h-3.212c-.195-.973-.93-1.46-2.204-1.46-.637 0-1.133.124-1.487.372-.336.248-.505.558-.505.93 0 .389.257.698.77.929.514.23 1.195.442 2.045.637.92.212 1.761.451 2.522.717.78.247 1.399.628 1.86 1.141.46.496.69 1.213.69 2.151a3.698 3.698 0 0 1-.638 2.204c-.442.655-1.08 1.168-1.912 1.54-.831.372-1.814.558-2.947.558Z"/><g filter="url(#b)"><ellipse cx="17.356" cy="20.19" fill="#fff" rx="15.356" ry="13.495"/></g><g filter="url(#c)"><ellipse cx="17.356" cy="16.004" fill="#6C6C6C" rx="15.356" ry="14.89"/></g><ellipse cx="17.356" cy="15.538" fill="#F7F7F7" rx="15.356" ry="14.425"/><ellipse cx="17.357" cy="15.075" fill="url(#d)" rx="12.564" ry="12.098"/><circle cx="12.237" cy="15.073" r="2.792" fill="#fff"/><circle cx="22.476" cy="15.073" r="2.792" fill="#fff"/><defs><linearGradient id="a" x1="66.494" x2="66.494" y1="0" y2="29.609" gradientUnits="userSpaceOnUse"><stop stop-color="#0473E8"/><stop offset="1" stop-color="#7A46FD"/></linearGradient><linearGradient id="d" x1="17.357" x2="17.357" y1="2.977" y2="27.174" gradientUnits="userSpaceOnUse"><stop stop-color="#0374E8"/><stop offset="1" stop-color="#7A46FD"/></linearGradient><filter id="b" width="32.406" height="28.683" x="1.153" y="6.695" color-interpolation-filters="sRGB" filterUnits="userSpaceOnUse"><feFlood flood-opacity="0" result="BackgroundImageFix"/><feColorMatrix in="SourceAlpha" result="hardAlpha" values="0 0 0 0 0 0 0 0 0 0 0 0 0 0 0 0 0 0 127 0"/><feOffset dy=".847"/><feGaussianBlur stdDeviation=".424"/><feComposite in2="hardAlpha" operator="out"/><feColorMatrix values="0 0 0 0 0 0 0 0 0 0 0 0 0 0 0 0 0 0 0.25 0"/><feBlend in2="BackgroundImageFix" result="effect1_dropShadow_10671_13701"/><feBlend in="SourceGraphic" in2="effect1_dropShadow_10671_13701" result="shape"/></filter><filter id="c" width="32.89" height="31.96" x=".91" y=".024" color-interpolation-filters="sRGB" filterUnits="userSpaceOnUse"><feFlood flood-opacity="0" result="BackgroundImageFix"/><feBlend in="SourceGraphic" in2="BackgroundImageFix" result="shape"/><feGaussianBlur result="effect1_foregroundBlur_10671_13701" stdDeviation=".545"/></filter></defs></svg>